<svg width="184" height="46" viewBox="0 0 184 46" fill="none" xmlns="http://www.w3.org/2000/svg">
<path d="M11.3742 22.7489H0C0 25.2765 1.26377 45.4974 26.5399 45.4974L26.5399 34.1232C11.3742 34.1232 11.3742 23.6968 11.3742 22.7489Z" fill="white"/>
<path d="M11.3742 22.7489H0C0 25.2765 1.26377 45.4974 26.5399 45.4974L26.5399 34.1232C11.3742 34.1232 11.3742 23.6968 11.3742 22.7489Z" fill="url(#paint0_linear_405_228)"/>
<path d="M11.3742 0.00012207H0C0 2.52773 1.26377 22.7486 26.5399 22.7486L26.5399 11.3744C11.3742 11.3744 11.3742 0.947977 11.3742 0.00012207Z" fill="white"/>
<path d="M11.3742 0.00012207H0C0 2.52773 1.26377 22.7486 26.5399 22.7486L26.5399 11.3744C11.3742 11.3744 11.3742 0.947977 11.3742 0.00012207Z" fill="url(#paint1_linear_405_228)"/>
<path d="M41.7027 22.7489H53.0769C53.0769 20.2213 51.8131 0.000385284 26.537 0.000385284L26.537 11.3746C41.7027 11.3746 41.7027 21.801 41.7027 22.7489Z" fill="white"/>
<path d="M41.7027 22.7489H53.0769C53.0769 20.2213 51.8131 0.000385284 26.537 0.000385284L26.537 11.3746C41.7027 11.3746 41.7027 21.801 41.7027 22.7489Z" fill="url(#paint2_linear_405_228)"/>
<path d="M41.7027 45.4978H53.0769C53.0769 42.9702 51.8131 22.7493 26.537 22.7493L26.537 34.1235C41.7027 34.1235 41.7027 44.5499 41.7027 45.4978Z" fill="url(#paint3_linear_405_228)"/>
<path d="M69.2994 4.00534C71.6645 4.00534 73.5996 4.80779 75.1047 6.41269C76.6097 8.0176 77.3623 10.1331 77.3623 12.7593C77.3623 15.3779 76.6059 17.4857 75.0931 19.083C73.5804 20.6725 71.6491 21.4673 69.2994 21.4673C66.8651 21.4673 64.907 20.6418 63.425 18.9908C61.9429 17.3398 61.2019 15.3241 61.2019 12.9436C61.2019 10.1715 61.9506 7.99072 63.448 6.40118C64.9531 4.80395 66.9035 4.00534 69.2994 4.00534ZM69.2763 19.5552C70.9887 19.5552 72.3748 18.9563 73.4345 17.7583C74.5019 16.5604 75.0394 14.8941 75.0471 12.7593C75.0471 10.5632 74.5019 8.8738 73.4115 7.69124C72.3287 6.50868 70.9657 5.9174 69.3224 5.9174C67.633 5.9174 66.2432 6.49716 65.1527 7.65668C64.0623 8.81621 63.5171 10.5939 63.5171 12.9897C63.5171 14.9479 64.0508 16.5336 65.1182 17.7468C66.1856 18.9524 67.5716 19.5552 69.2763 19.5552ZM90.021 21.1793H87.9362V13.7499C87.9362 12.4983 87.7097 11.6382 87.2566 11.1698C86.8112 10.7014 86.1892 10.4672 85.3906 10.4672C84.7763 10.4672 84.1927 10.6169 83.6398 10.9164C83.0946 11.2159 82.7068 11.6382 82.4765 12.1834C82.2461 12.7286 82.1309 13.5004 82.1309 14.4986V21.1793H80.0576V8.95827H81.9236V10.686H81.9696C82.4073 10.018 82.9449 9.51883 83.5822 9.18864C84.2273 8.85076 84.9721 8.68182 85.8168 8.68182C86.4618 8.68182 87.0992 8.79701 87.7289 9.02738C88.3585 9.25775 88.85 9.6033 89.2032 10.064C89.5641 10.5248 89.7907 11.0162 89.8828 11.5384C89.975 12.0606 90.021 12.767 90.021 13.6578V21.1793ZM103.786 15.5929H94.6284C94.7129 16.9444 95.0968 17.9772 95.7802 18.6913C96.4714 19.4055 97.3314 19.7626 98.3604 19.7626C99.1513 19.7626 99.8155 19.5552 100.353 19.1406C100.891 18.7182 101.301 18.0847 101.586 17.24L103.716 17.5049C103.371 18.7796 102.737 19.7587 101.816 20.4421C100.894 21.1256 99.7426 21.4673 98.3604 21.4673C96.5251 21.4673 95.0891 20.9067 94.0525 19.7856C93.0235 18.6568 92.509 17.1172 92.509 15.1667C92.509 13.2393 93.0081 11.6766 94.0064 10.4787C95.0124 9.28078 96.4253 8.68182 98.2452 8.68182C99.1359 8.68182 99.9922 8.87764 100.814 9.26926C101.643 9.66089 102.346 10.329 102.922 11.2735C103.498 12.2103 103.786 13.6501 103.786 15.5929ZM101.655 13.8882C101.57 12.6442 101.182 11.7496 100.491 11.2044C99.8079 10.6515 99.0592 10.375 98.2452 10.375C97.27 10.375 96.4675 10.7014 95.8378 11.3541C95.2082 12.0068 94.8434 12.8515 94.7436 13.8882H101.655ZM116.559 9.24623C116.467 8.17117 116.08 7.36488 115.396 6.82736C114.713 6.28215 113.734 6.00955 112.459 6.00955C111.307 6.00955 110.37 6.22456 109.648 6.65458C108.927 7.0846 108.566 7.71044 108.566 8.53209C108.566 9.26159 108.842 9.80679 109.395 10.1677C109.956 10.5209 111.023 10.8742 112.597 11.2274C113.995 11.5346 115.135 11.8494 116.018 12.1719C116.901 12.4944 117.658 12.9974 118.287 13.6808C118.917 14.3566 119.232 15.2665 119.232 16.4107C119.232 17.862 118.652 19.0676 117.492 20.0275C116.341 20.9873 114.836 21.4673 112.977 21.4673C110.604 21.4673 108.827 20.9374 107.644 19.8777C106.469 18.818 105.847 17.4435 105.778 15.7541L107.898 15.5698C107.997 16.9213 108.52 17.9081 109.464 18.5301C110.409 19.1444 111.549 19.4516 112.885 19.4516C114.137 19.4516 115.147 19.1943 115.914 18.6798C116.69 18.1653 117.078 17.4665 117.078 16.5835C117.078 15.662 116.675 14.9901 115.868 14.5677C115.062 14.1454 113.707 13.7307 111.802 13.3238C109.906 12.9091 108.539 12.3293 107.702 11.5845C106.865 10.8396 106.446 9.87206 106.446 8.68182C106.446 7.33033 106.976 6.21304 108.036 5.32996C109.096 4.44688 110.539 4.00534 112.367 4.00534C114.24 4.00534 115.746 4.44688 116.882 5.32996C118.026 6.20536 118.633 7.45319 118.702 9.07345L116.559 9.24623ZM132.651 15.5929H123.494C123.578 16.9444 123.962 17.9772 124.645 18.6913C125.337 19.4055 126.197 19.7626 127.226 19.7626C128.016 19.7626 128.681 19.5552 129.218 19.1406C129.756 18.7182 130.167 18.0847 130.451 17.24L132.582 17.5049C132.236 18.7796 131.603 19.7587 130.681 20.4421C129.76 21.1256 128.608 21.4673 127.226 21.4673C125.39 21.4673 123.954 20.9067 122.918 19.7856C121.889 18.6568 121.374 17.1172 121.374 15.1667C121.374 13.2393 121.873 11.6766 122.872 10.4787C123.878 9.28078 125.29 8.68182 127.11 8.68182C128.001 8.68182 128.857 8.87764 129.679 9.26926C130.508 9.66089 131.211 10.329 131.787 11.2735C132.363 12.2103 132.651 13.6501 132.651 15.5929ZM130.52 13.8882C130.435 12.6442 130.048 11.7496 129.356 11.2044C128.673 10.6515 127.924 10.375 127.11 10.375C126.135 10.375 125.333 10.7014 124.703 11.3541C124.073 12.0068 123.709 12.8515 123.609 13.8882H130.52ZM137.235 21.1793H135.162V4.2933H137.235V21.1793ZM146.173 4.21267L145.862 6.03259C145.448 5.9558 145.041 5.9174 144.641 5.9174C144.142 5.9174 143.731 6.02491 143.409 6.23992C143.094 6.44725 142.937 6.96942 142.937 7.80642V8.95827H145.298V10.5593H142.937V21.1793H140.863V10.5593H139.02V8.95827H140.863V7.63365C140.863 7.01933 140.921 6.46261 141.036 5.96348C141.151 5.46434 141.455 5.01512 141.946 4.61582C142.445 4.20883 143.209 4.00534 144.238 4.00534C144.853 4.00534 145.498 4.07445 146.173 4.21267ZM155.307 15.7772C155.307 17.8428 154.889 19.3095 154.052 20.1772C153.223 21.0373 152.063 21.4673 150.573 21.4673C149.061 21.4673 147.924 21.0449 147.164 20.2003C146.411 19.3479 146.035 18.0693 146.035 16.3646L148.039 16.0882C148.055 17.2093 148.274 18.0501 148.696 18.6107C149.118 19.1713 149.744 19.4516 150.573 19.4516C151.334 19.4516 151.898 19.2711 152.267 18.9102C152.635 18.5493 152.862 18.1346 152.946 17.6662C153.031 17.1901 153.073 16.5988 153.073 15.8924V4.2933H155.307V15.7772ZM163.751 8.68182C165.401 8.68182 166.768 9.21935 167.851 10.2944C168.941 11.3695 169.487 12.8976 169.487 14.8787C169.487 17.2823 168.899 18.9831 167.724 19.9814C166.549 20.972 165.225 21.4673 163.751 21.4673C162.207 21.4673 160.867 20.9566 159.731 19.9353C158.594 18.914 158.026 17.2938 158.026 15.0746C158.026 12.9244 158.575 11.3234 159.673 10.2714C160.771 9.21167 162.13 8.68182 163.751 8.68182ZM163.751 19.7626C164.933 19.7626 165.832 19.3249 166.446 18.4495C167.06 17.5741 167.367 16.4222 167.367 14.9939C167.367 13.4658 167.018 12.314 166.319 11.5384C165.628 10.7628 164.772 10.375 163.751 10.375C162.698 10.375 161.835 10.7705 161.159 11.5614C160.483 12.3447 160.145 13.5157 160.145 15.0746C160.145 16.6257 160.487 17.7967 161.17 18.5877C161.861 19.3709 162.722 19.7626 163.751 19.7626ZM174.036 10.329C174.804 9.23087 175.902 8.68182 177.331 8.68182C178.905 8.68182 180.164 9.25391 181.109 10.3981C182.053 11.5422 182.526 13.0358 182.526 14.8787C182.526 17.0058 181.996 18.6376 180.936 19.7741C179.884 20.9029 178.652 21.4673 177.239 21.4673C175.803 21.4673 174.685 20.8606 173.887 19.6474H173.841V21.1793H171.906V4.2933H173.979V10.329H174.036ZM177.077 19.7626C178.037 19.7626 178.828 19.3517 179.45 18.5301C180.08 17.7008 180.395 16.5412 180.395 15.0515C180.395 13.6156 180.107 12.4791 179.531 11.6421C178.955 10.7974 178.16 10.375 177.146 10.375C176.148 10.375 175.342 10.8089 174.728 11.6766C174.121 12.5443 173.818 13.6424 173.818 14.9709C173.818 16.2686 173.944 17.1939 174.198 17.7468C174.451 18.292 174.831 18.7643 175.338 19.1636C175.853 19.5629 176.432 19.7626 177.077 19.7626Z" fill="#758DCD"/>
<path d="M69.2994 4.00534C71.6645 4.00534 73.5996 4.80779 75.1047 6.41269C76.6097 8.0176 77.3623 10.1331 77.3623 12.7593C77.3623 15.3779 76.6059 17.4857 75.0931 19.083C73.5804 20.6725 71.6491 21.4673 69.2994 21.4673C66.8651 21.4673 64.907 20.6418 63.425 18.9908C61.9429 17.3398 61.2019 15.3241 61.2019 12.9436C61.2019 10.1715 61.9506 7.99072 63.448 6.40118C64.9531 4.80395 66.9035 4.00534 69.2994 4.00534ZM69.2763 19.5552C70.9887 19.5552 72.3748 18.9563 73.4345 17.7583C74.5019 16.5604 75.0394 14.8941 75.0471 12.7593C75.0471 10.5632 74.5019 8.8738 73.4115 7.69124C72.3287 6.50868 70.9657 5.9174 69.3224 5.9174C67.633 5.9174 66.2432 6.49716 65.1527 7.65668C64.0623 8.81621 63.5171 10.5939 63.5171 12.9897C63.5171 14.9479 64.0508 16.5336 65.1182 17.7468C66.1856 18.9524 67.5716 19.5552 69.2763 19.5552ZM90.021 21.1793H87.9362V13.7499C87.9362 12.4983 87.7097 11.6382 87.2566 11.1698C86.8112 10.7014 86.1892 10.4672 85.3906 10.4672C84.7763 10.4672 84.1927 10.6169 83.6398 10.9164C83.0946 11.2159 82.7068 11.6382 82.4765 12.1834C82.2461 12.7286 82.1309 13.5004 82.1309 14.4986V21.1793H80.0576V8.95827H81.9236V10.686H81.9696C82.4073 10.018 82.9449 9.51883 83.5822 9.18864C84.2273 8.85076 84.9721 8.68182 85.8168 8.68182C86.4618 8.68182 87.0992 8.79701 87.7289 9.02738C88.3585 9.25775 88.85 9.6033 89.2032 10.064C89.5641 10.5248 89.7907 11.0162 89.8828 11.5384C89.975 12.0606 90.021 12.767 90.021 13.6578V21.1793ZM103.786 15.5929H94.6284C94.7129 16.9444 95.0968 17.9772 95.7802 18.6913C96.4714 19.4055 97.3314 19.7626 98.3604 19.7626C99.1513 19.7626 99.8155 19.5552 100.353 19.1406C100.891 18.7182 101.301 18.0847 101.586 17.24L103.716 17.5049C103.371 18.7796 102.737 19.7587 101.816 20.4421C100.894 21.1256 99.7426 21.4673 98.3604 21.4673C96.5251 21.4673 95.0891 20.9067 94.0525 19.7856C93.0235 18.6568 92.509 17.1172 92.509 15.1667C92.509 13.2393 93.0081 11.6766 94.0064 10.4787C95.0124 9.28078 96.4253 8.68182 98.2452 8.68182C99.1359 8.68182 99.9922 8.87764 100.814 9.26926C101.643 9.66089 102.346 10.329 102.922 11.2735C103.498 12.2103 103.786 13.6501 103.786 15.5929ZM101.655 13.8882C101.57 12.6442 101.182 11.7496 100.491 11.2044C99.8079 10.6515 99.0592 10.375 98.2452 10.375C97.27 10.375 96.4675 10.7014 95.8378 11.3541C95.2082 12.0068 94.8434 12.8515 94.7436 13.8882H101.655ZM116.559 9.24623C116.467 8.17117 116.08 7.36488 115.396 6.82736C114.713 6.28215 113.734 6.00955 112.459 6.00955C111.307 6.00955 110.37 6.22456 109.648 6.65458C108.927 7.0846 108.566 7.71044 108.566 8.53209C108.566 9.26159 108.842 9.80679 109.395 10.1677C109.956 10.5209 111.023 10.8742 112.597 11.2274C113.995 11.5346 115.135 11.8494 116.018 12.1719C116.901 12.4944 117.658 12.9974 118.287 13.6808C118.917 14.3566 119.232 15.2665 119.232 16.4107C119.232 17.862 118.652 19.0676 117.492 20.0275C116.341 20.9873 114.836 21.4673 112.977 21.4673C110.604 21.4673 108.827 20.9374 107.644 19.8777C106.469 18.818 105.847 17.4435 105.778 15.7541L107.898 15.5698C107.997 16.9213 108.52 17.9081 109.464 18.5301C110.409 19.1444 111.549 19.4516 112.885 19.4516C114.137 19.4516 115.147 19.1943 115.914 18.6798C116.69 18.1653 117.078 17.4665 117.078 16.5835C117.078 15.662 116.675 14.9901 115.868 14.5677C115.062 14.1454 113.707 13.7307 111.802 13.3238C109.906 12.9091 108.539 12.3293 107.702 11.5845C106.865 10.8396 106.446 9.87206 106.446 8.68182C106.446 7.33033 106.976 6.21304 108.036 5.32996C109.096 4.44688 110.539 4.00534 112.367 4.00534C114.24 4.00534 115.746 4.44688 116.882 5.32996C118.026 6.20536 118.633 7.45319 118.702 9.07345L116.559 9.24623ZM132.651 15.5929H123.494C123.578 16.9444 123.962 17.9772 124.645 18.6913C125.337 19.4055 126.197 19.7626 127.226 19.7626C128.016 19.7626 128.681 19.5552 129.218 19.1406C129.756 18.7182 130.167 18.0847 130.451 17.24L132.582 17.5049C132.236 18.7796 131.603 19.7587 130.681 20.4421C129.76 21.1256 128.608 21.4673 127.226 21.4673C125.39 21.4673 123.954 20.9067 122.918 19.7856C121.889 18.6568 121.374 17.1172 121.374 15.1667C121.374 13.2393 121.873 11.6766 122.872 10.4787C123.878 9.28078 125.29 8.68182 127.11 8.68182C128.001 8.68182 128.857 8.87764 129.679 9.26926C130.508 9.66089 131.211 10.329 131.787 11.2735C132.363 12.2103 132.651 13.6501 132.651 15.5929ZM130.52 13.8882C130.435 12.6442 130.048 11.7496 129.356 11.2044C128.673 10.6515 127.924 10.375 127.11 10.375C126.135 10.375 125.333 10.7014 124.703 11.3541C124.073 12.0068 123.709 12.8515 123.609 13.8882H130.52ZM137.235 21.1793H135.162V4.2933H137.235V21.1793ZM146.173 4.21267L145.862 6.03259C145.448 5.9558 145.041 5.9174 144.641 5.9174C144.142 5.9174 143.731 6.02491 143.409 6.23992C143.094 6.44725 142.937 6.96942 142.937 7.80642V8.95827H145.298V10.5593H142.937V21.1793H140.863V10.5593H139.02V8.95827H140.863V7.63365C140.863 7.01933 140.921 6.46261 141.036 5.96348C141.151 5.46434 141.455 5.01512 141.946 4.61582C142.445 4.20883 143.209 4.00534 144.238 4.00534C144.853 4.00534 145.498 4.07445 146.173 4.21267ZM155.307 15.7772C155.307 17.8428 154.889 19.3095 154.052 20.1772C153.223 21.0373 152.063 21.4673 150.573 21.4673C149.061 21.4673 147.924 21.0449 147.164 20.2003C146.411 19.3479 146.035 18.0693 146.035 16.3646L148.039 16.0882C148.055 17.2093 148.274 18.0501 148.696 18.6107C149.118 19.1713 149.744 19.4516 150.573 19.4516C151.334 19.4516 151.898 19.2711 152.267 18.9102C152.635 18.5493 152.862 18.1346 152.946 17.6662C153.031 17.1901 153.073 16.5988 153.073 15.8924V4.2933H155.307V15.7772ZM163.751 8.68182C165.401 8.68182 166.768 9.21935 167.851 10.2944C168.941 11.3695 169.487 12.8976 169.487 14.8787C169.487 17.2823 168.899 18.9831 167.724 19.9814C166.549 20.972 165.225 21.4673 163.751 21.4673C162.207 21.4673 160.867 20.9566 159.731 19.9353C158.594 18.914 158.026 17.2938 158.026 15.0746C158.026 12.9244 158.575 11.3234 159.673 10.2714C160.771 9.21167 162.13 8.68182 163.751 8.68182ZM163.751 19.7626C164.933 19.7626 165.832 19.3249 166.446 18.4495C167.06 17.5741 167.367 16.4222 167.367 14.9939C167.367 13.4658 167.018 12.314 166.319 11.5384C165.628 10.7628 164.772 10.375 163.751 10.375C162.698 10.375 161.835 10.7705 161.159 11.5614C160.483 12.3447 160.145 13.5157 160.145 15.0746C160.145 16.6257 160.487 17.7967 161.17 18.5877C161.861 19.3709 162.722 19.7626 163.751 19.7626ZM174.036 10.329C174.804 9.23087 175.902 8.68182 177.331 8.68182C178.905 8.68182 180.164 9.25391 181.109 10.3981C182.053 11.5422 182.526 13.0358 182.526 14.8787C182.526 17.0058 181.996 18.6376 180.936 19.7741C179.884 20.9029 178.652 21.4673 177.239 21.4673C175.803 21.4673 174.685 20.8606 173.887 19.6474H173.841V21.1793H171.906V4.2933H173.979V10.329H174.036ZM177.077 19.7626C178.037 19.7626 178.828 19.3517 179.45 18.5301C180.08 17.7008 180.395 16.5412 180.395 15.0515C180.395 13.6156 180.107 12.4791 179.531 11.6421C178.955 10.7974 178.16 10.375 177.146 10.375C176.148 10.375 175.342 10.8089 174.728 11.6766C174.121 12.5443 173.818 13.6424 173.818 14.9709C173.818 16.2686 173.944 17.1939 174.198 17.7468C174.451 18.292 174.831 18.7643 175.338 19.1636C175.853 19.5629 176.432 19.7626 177.077 19.7626Z" fill="#748CCD"/>
<path d="M67.5798 35.6172H66.593C66.5347 35.3334 66.4325 35.084 66.2866 34.8692C66.1434 34.6543 65.9683 34.4739 65.7614 34.328C65.5571 34.1794 65.3303 34.068 65.081 33.9938C64.8316 33.9195 64.5716 33.8823 64.3011 33.8823C63.8077 33.8823 63.3607 34.007 62.9601 34.2564C62.5622 34.5057 62.2452 34.8731 62.0091 35.3586C61.7757 35.844 61.6589 36.4396 61.6589 37.1452C61.6589 37.8508 61.7757 38.4464 62.0091 38.9318C62.2452 39.4173 62.5622 39.7847 62.9601 40.034C63.3607 40.2834 63.8077 40.4081 64.3011 40.4081C64.5716 40.4081 64.8316 40.3709 65.081 40.2966C65.3303 40.2224 65.5571 40.1123 65.7614 39.9664C65.9683 39.8178 66.1434 39.6361 66.2866 39.4212C66.4325 39.2037 66.5347 38.9544 66.593 38.6732H67.5798C67.5056 39.0896 67.3703 39.4624 67.174 39.7913C66.9777 40.1202 66.7336 40.4001 66.4418 40.6309C66.15 40.859 65.8224 41.0328 65.459 41.1521C65.0982 41.2715 64.7122 41.3312 64.3011 41.3312C63.6061 41.3312 62.988 41.1614 62.4468 40.8219C61.9057 40.4823 61.4799 39.9995 61.1695 39.3735C60.8591 38.7474 60.704 38.0047 60.704 37.1452C60.704 36.2857 60.8591 35.5429 61.1695 34.9169C61.4799 34.2909 61.9057 33.8081 62.4468 33.4685C62.988 33.129 63.6061 32.9592 64.3011 32.9592C64.7122 32.9592 65.0982 33.0189 65.459 33.1382C65.8224 33.2576 66.15 33.4327 66.4418 33.6635C66.7336 33.8916 66.9777 34.1702 67.174 34.4991C67.3703 34.8254 67.5056 35.1981 67.5798 35.6172ZM71.5301 41.3471C70.9783 41.3471 70.4942 41.2158 70.0777 40.9532C69.6639 40.6906 69.3403 40.3232 69.1068 39.851C68.876 39.3788 68.7606 38.827 68.7606 38.1957C68.7606 37.559 68.876 37.0033 69.1068 36.5284C69.3403 36.0536 69.6639 35.6849 70.0777 35.4222C70.4942 35.1596 70.9783 35.0283 71.5301 35.0283C72.0819 35.0283 72.5646 35.1596 72.9785 35.4222C73.395 35.6849 73.7186 36.0536 73.9494 36.5284C74.1828 37.0033 74.2995 37.559 74.2995 38.1957C74.2995 38.827 74.1828 39.3788 73.9494 39.851C73.7186 40.3232 73.395 40.6906 72.9785 40.9532C72.5646 41.2158 72.0819 41.3471 71.5301 41.3471ZM71.5301 40.5036C71.9492 40.5036 72.2941 40.3961 72.5646 40.1812C72.8352 39.9664 73.0355 39.6839 73.1655 39.3337C73.2955 38.9835 73.3605 38.6042 73.3605 38.1957C73.3605 37.7872 73.2955 37.4065 73.1655 37.0537C73.0355 36.7009 72.8352 36.4157 72.5646 36.1982C72.2941 35.9806 71.9492 35.8719 71.5301 35.8719C71.111 35.8719 70.7661 35.9806 70.4955 36.1982C70.2249 36.4157 70.0247 36.7009 69.8947 37.0537C69.7647 37.4065 69.6997 37.7872 69.6997 38.1957C69.6997 38.6042 69.7647 38.9835 69.8947 39.3337C70.0247 39.6839 70.2249 39.9664 70.4955 40.1812C70.7661 40.3961 71.111 40.5036 71.5301 40.5036ZM75.351 39.66H76.3537C76.375 39.9359 76.4996 40.1454 76.7278 40.2887C76.9586 40.4319 77.2583 40.5036 77.6271 40.5036C78.0037 40.5036 78.326 40.4266 78.594 40.2728C78.8619 40.1163 78.9959 39.8642 78.9959 39.5167C78.9959 39.3125 78.9455 39.1347 78.8447 38.9835C78.7439 38.8297 78.6019 38.7103 78.4189 38.6254C78.2359 38.5405 78.0197 38.4981 77.7703 38.4981H76.7198V37.6545H77.7703C78.1443 37.6545 78.4202 37.5696 78.598 37.3999C78.7783 37.2301 78.8685 37.0179 78.8685 36.7632C78.8685 36.49 78.7717 36.2711 78.5781 36.1067C78.3844 35.9395 78.1098 35.856 77.7544 35.856C77.3963 35.856 77.0978 35.9369 76.8591 36.0987C76.6203 36.2579 76.4943 36.4634 76.4811 36.7155H75.4943C75.5049 36.3865 75.6057 36.096 75.7967 35.844C75.9877 35.5894 76.2476 35.3904 76.5766 35.2472C76.9055 35.1013 77.2822 35.0283 77.7066 35.0283C78.1364 35.0283 78.5091 35.1039 78.8248 35.2551C79.1431 35.4037 79.3885 35.6066 79.5609 35.8639C79.736 36.1186 79.8235 36.4077 79.8235 36.7314C79.8235 37.0762 79.7267 37.3548 79.533 37.567C79.3394 37.7792 79.0967 37.9304 78.8049 38.0206V38.0843C79.0357 38.1002 79.2359 38.1745 79.4057 38.3071C79.5781 38.4371 79.7121 38.6082 79.8076 38.8204C79.9031 39.03 79.9508 39.2621 79.9508 39.5167C79.9508 39.8881 79.8514 40.2118 79.6524 40.4876C79.4535 40.7609 79.1802 40.9731 78.8327 41.1243C78.4852 41.2728 78.0886 41.3471 77.643 41.3471C77.2106 41.3471 76.8233 41.2768 76.4811 41.1362C76.1389 40.993 75.867 40.7954 75.6654 40.5433C75.4664 40.2887 75.3616 39.9942 75.351 39.66ZM80.6173 42.9706V40.3444H81.1267C81.2513 40.2144 81.3588 40.0738 81.449 39.9226C81.5392 39.7714 81.6174 39.5923 81.6837 39.3854C81.7527 39.1759 81.8111 38.9212 81.8588 38.6214C81.9066 38.319 81.949 37.9543 81.9861 37.5272L82.1931 35.1079H86.0767V40.3444H87.0157V42.9706H86.0767V41.2198H81.5564V42.9706H80.6173ZM82.1931 40.3444H85.1376V35.9833H83.0685L82.9093 37.5272C82.843 38.1665 82.7607 38.7249 82.6626 39.2024C82.5644 39.6799 82.4079 40.0605 82.1931 40.3444ZM90.0607 41.363C89.6734 41.363 89.3219 41.2901 89.0063 41.1442C88.6906 40.9956 88.4399 40.7821 88.2542 40.5036C88.0685 40.2224 87.9757 39.8828 87.9757 39.4849C87.9757 39.1347 88.0447 38.8509 88.1826 38.6334C88.3205 38.4132 88.5049 38.2408 88.7357 38.1161C88.9665 37.9914 89.2211 37.8986 89.4997 37.8376C89.7809 37.7739 90.0634 37.7235 90.3472 37.6864C90.7186 37.6386 91.0197 37.6028 91.2505 37.5789C91.4839 37.5524 91.6537 37.5086 91.7598 37.4476C91.8686 37.3866 91.9229 37.2805 91.9229 37.1293V37.0974C91.9229 36.7048 91.8155 36.3998 91.6006 36.1823C91.3884 35.9647 91.0661 35.856 90.6337 35.856C90.1854 35.856 89.8339 35.9541 89.5793 36.1504C89.3246 36.3467 89.1455 36.5563 89.0421 36.7791L88.1508 36.4608C88.3099 36.0894 88.5221 35.8003 88.7874 35.5933C89.0553 35.3838 89.3471 35.2379 89.6628 35.1556C89.9811 35.0708 90.2942 35.0283 90.6019 35.0283C90.7982 35.0283 91.0237 35.0522 91.2783 35.0999C91.5356 35.145 91.7837 35.2392 92.0224 35.3825C92.2638 35.5257 92.4641 35.7419 92.6233 36.031C92.7824 36.3202 92.862 36.7075 92.862 37.1929V41.2198H91.9229V40.3921H91.8752C91.8115 40.5248 91.7054 40.6667 91.5569 40.8179C91.4083 40.9691 91.2107 41.0978 90.964 41.2039C90.7173 41.31 90.4162 41.363 90.0607 41.363ZM90.204 40.5195C90.5754 40.5195 90.8884 40.4465 91.143 40.3006C91.4004 40.1547 91.594 39.9664 91.724 39.7356C91.8566 39.5048 91.9229 39.2621 91.9229 39.0074V38.1479C91.8832 38.1957 91.7956 38.2394 91.6603 38.2792C91.5277 38.3164 91.3738 38.3495 91.1987 38.3787C91.0263 38.4052 90.8579 38.4291 90.6934 38.4503C90.5316 38.4689 90.4003 38.4848 90.2995 38.4981C90.0554 38.5299 89.8273 38.5816 89.6151 38.6533C89.4055 38.7222 89.2357 38.827 89.1057 38.9676C88.9784 39.1056 88.9147 39.2939 88.9147 39.5327C88.9147 39.8589 89.0354 40.1056 89.2768 40.2728C89.5209 40.4372 89.8299 40.5195 90.204 40.5195ZM95.5151 39.8351L98.4596 35.1079H99.5419V41.2198H98.6028V36.4926L95.6742 41.2198H94.576V35.1079H95.5151V39.8351ZM97.8389 33.0706H98.7143C98.7143 33.5003 98.5657 33.8518 98.2686 34.1251C97.9715 34.3983 97.5683 34.5349 97.059 34.5349C96.5576 34.5349 96.1584 34.3983 95.8613 34.1251C95.5668 33.8518 95.4196 33.5003 95.4196 33.0706H96.295C96.295 33.2775 96.352 33.4592 96.4661 33.6157C96.5828 33.7722 96.7804 33.8505 97.059 33.8505C97.3375 33.8505 97.5364 33.7722 97.6558 33.6157C97.7778 33.4592 97.8389 33.2775 97.8389 33.0706ZM103.872 41.2198V40.3444H104.095C104.278 40.3444 104.431 40.3086 104.553 40.237C104.675 40.1627 104.773 40.034 104.847 39.851C104.924 39.6653 104.982 39.408 105.022 39.079C105.065 38.7474 105.095 38.3257 105.114 37.8137L105.225 35.1079H109.3V41.2198H108.361V35.9833H106.116L106.021 38.1638C106 38.6652 105.955 39.1069 105.886 39.4889C105.819 39.8682 105.717 40.1865 105.579 40.4439C105.444 40.7012 105.264 40.8948 105.038 41.0248C104.813 41.1548 104.53 41.2198 104.19 41.2198H103.872ZM111.962 39.8351L114.906 35.1079H115.989V41.2198H115.049V36.4926L112.121 41.2198H111.023V35.1079H111.962V39.8351ZM122.42 35.1079V41.2198H121.481V35.1079H122.42ZM122.054 38.0206V38.896C121.841 38.9756 121.631 39.0459 121.421 39.1069C121.211 39.1652 120.991 39.2117 120.76 39.2462C120.53 39.278 120.276 39.2939 120 39.2939C119.308 39.2939 118.752 39.1069 118.333 38.7329C117.917 38.3588 117.708 37.7978 117.708 37.0497V35.092H118.648V37.0497C118.648 37.3627 118.707 37.62 118.827 37.8216C118.946 38.0232 119.108 38.1731 119.312 38.2713C119.516 38.3694 119.746 38.4185 120 38.4185C120.398 38.4185 120.758 38.3827 121.079 38.3111C121.402 38.2368 121.727 38.14 122.054 38.0206ZM128.233 37.7341V38.6095H124.859V37.7341H128.233ZM125.082 35.1079V41.2198H124.143V35.1079H125.082ZM128.949 35.1079V41.2198H128.01V35.1079H128.949ZM131.476 37.3203H133.227C133.943 37.3203 134.491 37.502 134.87 37.8654C135.25 38.2288 135.439 38.6891 135.439 39.2462C135.439 39.6122 135.354 39.9452 135.185 40.2449C135.015 40.542 134.766 40.7794 134.437 40.9572C134.108 41.1322 133.704 41.2198 133.227 41.2198H130.664V35.1079H131.603V40.3444H133.227C133.598 40.3444 133.903 40.2462 134.142 40.0499C134.381 39.8536 134.5 39.6016 134.5 39.2939C134.5 38.9703 134.381 38.7063 134.142 38.5021C133.903 38.2978 133.598 38.1957 133.227 38.1957H131.476V37.3203ZM136.41 41.2198V35.1079H137.349V41.2198H136.41ZM140.007 39.8351L142.952 35.1079H144.034V41.2198H143.095V36.4926L140.166 41.2198H139.068V35.1079H140.007V39.8351ZM142.331 33.0706H143.206C143.206 33.5003 143.058 33.8518 142.761 34.1251C142.464 34.3983 142.061 34.5349 141.551 34.5349C141.05 34.5349 140.651 34.3983 140.353 34.1251C140.059 33.8518 139.912 33.5003 139.912 33.0706H140.787C140.787 33.2775 140.844 33.4592 140.958 33.6157C141.075 33.7722 141.273 33.8505 141.551 33.8505C141.83 33.8505 142.029 33.7722 142.148 33.6157C142.27 33.4592 142.331 33.2775 142.331 33.0706ZM153.442 32.8159L153.919 33.3889C153.734 33.5693 153.519 33.6953 153.275 33.7669C153.031 33.8386 152.755 33.8823 152.447 33.8983C152.139 33.9142 151.797 33.9301 151.42 33.946C150.996 33.9619 150.644 34.0654 150.366 34.2564C150.087 34.4474 149.872 34.7233 149.721 35.084C149.57 35.4448 149.473 35.8878 149.431 36.413H149.51C149.717 36.031 150.004 35.7499 150.37 35.5695C150.736 35.3891 151.129 35.2989 151.548 35.2989C152.025 35.2989 152.455 35.4103 152.837 35.6331C153.219 35.856 153.521 36.1862 153.744 36.6239C153.967 37.0616 154.078 37.6015 154.078 38.2434C154.078 38.8827 153.964 39.4345 153.736 39.8987C153.511 40.363 153.194 40.7211 152.785 40.9731C152.379 41.2224 151.903 41.3471 151.357 41.3471C150.81 41.3471 150.331 41.2185 149.92 40.9611C149.509 40.7012 149.189 40.3165 148.961 39.8072C148.733 39.2952 148.619 38.6626 148.619 37.9092V37.2566C148.619 35.8958 148.85 34.8638 149.311 34.1609C149.776 33.4579 150.473 33.0945 151.404 33.0706C151.733 33.06 152.026 33.0573 152.284 33.0626C152.541 33.068 152.765 33.056 152.956 33.0268C153.147 32.9977 153.309 32.9274 153.442 32.8159ZM151.357 40.5036C151.725 40.5036 152.042 40.4107 152.308 40.225C152.576 40.0393 152.781 39.778 152.924 39.4411C153.068 39.1016 153.139 38.7023 153.139 38.2434C153.139 37.7978 153.066 37.4184 152.92 37.1054C152.777 36.7924 152.572 36.5536 152.304 36.3892C152.036 36.2247 151.715 36.1425 151.341 36.1425C151.068 36.1425 150.822 36.1889 150.605 36.2817C150.387 36.3746 150.201 36.5112 150.048 36.6916C149.894 36.872 149.774 37.0921 149.689 37.3521C149.607 37.6121 149.563 37.9092 149.558 38.2434C149.558 38.9278 149.719 39.4756 150.04 39.8868C150.361 40.298 150.8 40.5036 151.357 40.5036ZM155.515 43.5117V35.1079H156.422V36.0788H156.533C156.602 35.9727 156.698 35.8374 156.82 35.6729C156.945 35.5058 157.122 35.3573 157.353 35.2273C157.587 35.0946 157.902 35.0283 158.3 35.0283C158.815 35.0283 159.268 35.157 159.661 35.4143C160.054 35.6716 160.36 36.0364 160.58 36.5085C160.8 36.9807 160.91 37.5378 160.91 38.1798C160.91 38.827 160.8 39.3881 160.58 39.8629C160.36 40.3351 160.055 40.7012 159.665 40.9611C159.275 41.2185 158.825 41.3471 158.316 41.3471C157.924 41.3471 157.609 41.2821 157.373 41.1521C157.137 41.0195 156.955 40.8696 156.828 40.7025C156.701 40.5327 156.602 40.3921 156.533 40.2807H156.454V43.5117H155.515ZM156.438 38.1638C156.438 38.6254 156.506 39.0326 156.641 39.3854C156.776 39.7356 156.974 40.0101 157.234 40.2091C157.494 40.4054 157.812 40.5036 158.189 40.5036C158.581 40.5036 158.909 40.4001 159.172 40.1932C159.437 39.9836 159.636 39.7024 159.768 39.3496C159.904 38.9941 159.971 38.5989 159.971 38.1638C159.971 37.7341 159.905 37.3468 159.772 37.0019C159.642 36.6544 159.445 36.3799 159.18 36.1783C158.917 35.974 158.587 35.8719 158.189 35.8719C157.807 35.8719 157.486 35.9687 157.226 36.1624C156.966 36.3534 156.77 36.6213 156.637 36.9661C156.504 37.3083 156.438 37.7076 156.438 38.1638ZM164.905 41.3471C164.317 41.3471 163.809 41.2171 163.382 40.9572C162.957 40.6945 162.629 40.3285 162.399 39.8589C162.171 39.3868 162.056 38.8376 162.056 38.2116C162.056 37.5855 162.171 37.0338 162.399 36.5563C162.629 36.0761 162.95 35.7021 163.362 35.4342C163.775 35.1636 164.258 35.0283 164.81 35.0283C165.128 35.0283 165.443 35.0814 165.753 35.1875C166.063 35.2936 166.346 35.466 166.601 35.7048C166.855 35.9409 167.058 36.2539 167.209 36.6438C167.361 37.0338 167.436 37.5139 167.436 38.0843V38.4822H162.725V37.6704H166.481C166.481 37.3256 166.412 37.0179 166.274 36.7473C166.139 36.4767 165.945 36.2632 165.693 36.1067C165.444 35.9501 165.15 35.8719 164.81 35.8719C164.436 35.8719 164.112 35.9647 163.839 36.1504C163.569 36.3335 163.36 36.5722 163.214 36.8667C163.068 37.1611 162.996 37.4768 162.996 37.8137V38.3548C162.996 38.8164 163.075 39.2077 163.234 39.5287C163.396 39.847 163.62 40.0897 163.907 40.2568C164.193 40.4213 164.526 40.5036 164.905 40.5036C165.152 40.5036 165.375 40.4691 165.574 40.4001C165.776 40.3285 165.949 40.2224 166.095 40.0818C166.241 39.9385 166.354 39.7608 166.433 39.5486L167.341 39.8032C167.245 40.1109 167.085 40.3815 166.859 40.615C166.634 40.8458 166.355 41.0261 166.024 41.1561C165.692 41.2835 165.319 41.3471 164.905 41.3471ZM172.955 37.7341V38.6095H169.581V37.7341H172.955ZM169.804 35.1079V41.2198H168.865V35.1079H169.804ZM173.671 35.1079V41.2198H172.732V35.1079H173.671ZM174.734 42.9706V40.3444H175.243C175.368 40.2144 175.475 40.0738 175.565 39.9226C175.656 39.7714 175.734 39.5923 175.8 39.3854C175.869 39.1759 175.928 38.9212 175.975 38.6214C176.023 38.319 176.066 37.9543 176.103 37.5272L176.31 35.1079H180.193V40.3444H181.132V42.9706H180.193V41.2198H175.673V42.9706H174.734ZM176.31 40.3444H179.254V35.9833H177.185L177.026 37.5272C176.959 38.1665 176.877 38.7249 176.779 39.2024C176.681 39.6799 176.524 40.0605 176.31 40.3444Z" fill="#748CCD"/>
<defs>
<linearGradient id="paint0_linear_405_228" x1="26.5827" y1="-0.128881" x2="26.5827" y2="45.4974" gradientUnits="userSpaceOnUse">
<stop stop-color="#FFB7B9"/>
<stop offset="1" stop-color="#728CCD"/>
</linearGradient>
<linearGradient id="paint1_linear_405_228" x1="26.5827" y1="2.74026e-05" x2="26.5827" y2="45.7556" gradientUnits="userSpaceOnUse">
<stop stop-color="#FFB7B9"/>
<stop offset="1" stop-color="#728CCD"/>
</linearGradient>
<linearGradient id="paint2_linear_405_228" x1="26.5821" y1="0.000371012" x2="26.5821" y2="45.4974" gradientUnits="userSpaceOnUse">
<stop stop-color="#FFB7B9"/>
<stop offset="1" stop-color="#728CCD"/>
</linearGradient>
<linearGradient id="paint3_linear_405_228" x1="26.5821" y1="-0.257763" x2="26.5821" y2="45.4978" gradientUnits="userSpaceOnUse">
<stop stop-color="#FFB7B9"/>
<stop offset="1" stop-color="#728CCD"/>
</linearGradient>
</defs>
</svg>
