<svg width="481" height="228" viewBox="0 0 481 228" fill="none" xmlns="http://www.w3.org/2000/svg">
<path d="M28.2266 43.4941C35.0443 43.4941 40.6224 45.8073 44.9609 50.4336C49.2995 55.0599 51.4688 61.1582 51.4688 68.7285C51.4688 76.2767 49.2884 82.3529 44.9277 86.957C40.5671 91.5391 35 93.8301 28.2266 93.8301C21.2096 93.8301 15.5651 91.4505 11.293 86.6914C7.02083 81.9323 4.88477 76.1217 4.88477 69.2598C4.88477 61.2689 7.04297 54.9824 11.3594 50.4004C15.6979 45.7962 21.3203 43.4941 28.2266 43.4941ZM28.1602 88.3184C33.0964 88.3184 37.0918 86.5918 40.1465 83.1387C43.2233 79.6855 44.7728 74.8822 44.7949 68.7285C44.7949 62.3978 43.2233 57.528 40.0801 54.1191C36.959 50.7103 33.0299 49.0059 28.293 49.0059C23.4232 49.0059 19.4167 50.6771 16.2734 54.0195C13.1302 57.362 11.5586 62.4863 11.5586 69.3926C11.5586 75.0371 13.097 79.6081 16.1738 83.1055C19.2507 86.5807 23.2461 88.3184 28.1602 88.3184ZM87.959 93H81.9492V71.584C81.9492 67.9759 81.2962 65.4967 79.9902 64.1465C78.7064 62.7962 76.9134 62.1211 74.6113 62.1211C72.8405 62.1211 71.1582 62.5527 69.5645 63.416C67.9928 64.2793 66.875 65.4967 66.2109 67.0684C65.5469 68.64 65.2148 70.8646 65.2148 73.7422V93H59.2383V57.7715H64.6172V62.752H64.75C66.0117 60.8262 67.5612 59.3874 69.3984 58.4355C71.2578 57.4616 73.4049 56.9746 75.8398 56.9746C77.6992 56.9746 79.5365 57.3066 81.3516 57.9707C83.1667 58.6348 84.5833 59.6309 85.6016 60.959C86.6419 62.2871 87.2949 63.7038 87.5605 65.209C87.8262 66.7142 87.959 68.7507 87.959 71.3184V93ZM127.637 76.8965H101.24C101.484 80.7923 102.59 83.7695 104.561 85.8281C106.553 87.8867 109.032 88.916 111.998 88.916C114.278 88.916 116.193 88.3184 117.742 87.123C119.292 85.9056 120.476 84.0794 121.295 81.6445L127.438 82.4082C126.441 86.0827 124.615 88.9049 121.959 90.875C119.303 92.8451 115.982 93.8301 111.998 93.8301C106.708 93.8301 102.568 92.2142 99.5801 88.9824C96.6139 85.7285 95.1309 81.2904 95.1309 75.668C95.1309 70.112 96.5697 65.6074 99.4473 62.1543C102.347 58.7012 106.42 56.9746 111.666 56.9746C114.234 56.9746 116.702 57.5391 119.07 58.668C121.461 59.7969 123.486 61.7227 125.146 64.4453C126.807 67.1458 127.637 71.2962 127.637 76.8965ZM121.494 71.9824C121.251 68.3965 120.133 65.8177 118.141 64.2461C116.171 62.6523 114.012 61.8555 111.666 61.8555C108.855 61.8555 106.542 62.7962 104.727 64.6777C102.911 66.5592 101.86 68.9941 101.572 71.9824H121.494ZM164.459 58.6016C164.193 55.5026 163.076 53.1784 161.105 51.6289C159.135 50.0573 156.313 49.2715 152.639 49.2715C149.318 49.2715 146.618 49.8913 144.537 51.1309C142.456 52.3704 141.416 54.1745 141.416 56.543C141.416 58.6458 142.213 60.2174 143.807 61.2578C145.423 62.276 148.499 63.2943 153.037 64.3125C157.066 65.1979 160.353 66.1055 162.898 67.0352C165.444 67.9648 167.624 69.4147 169.439 71.3848C171.255 73.3327 172.162 75.9557 172.162 79.2539C172.162 83.4375 170.491 86.9128 167.148 89.6797C163.828 92.4466 159.49 93.8301 154.133 93.8301C147.293 93.8301 142.169 92.3027 138.76 89.248C135.373 86.1934 133.58 82.2311 133.381 77.3613L139.49 76.8301C139.778 80.7259 141.283 83.5703 144.006 85.3633C146.729 87.1341 150.016 88.0195 153.867 88.0195C157.475 88.0195 160.386 87.278 162.6 85.7949C164.835 84.3118 165.953 82.2975 165.953 79.752C165.953 77.0957 164.791 75.1589 162.467 73.9414C160.143 72.724 156.236 71.5286 150.746 70.3555C145.279 69.1602 141.339 67.4889 138.926 65.3418C136.513 63.1947 135.307 60.4056 135.307 56.9746C135.307 53.0788 136.834 49.8581 139.889 47.3125C142.943 44.7669 147.105 43.4941 152.373 43.4941C157.774 43.4941 162.113 44.7669 165.389 47.3125C168.687 49.8359 170.436 53.4329 170.635 58.1035L164.459 58.6016ZM210.844 76.8965H184.447C184.691 80.7923 185.798 83.7695 187.768 85.8281C189.76 87.8867 192.239 88.916 195.205 88.916C197.485 88.916 199.4 88.3184 200.949 87.123C202.499 85.9056 203.683 84.0794 204.502 81.6445L210.645 82.4082C209.648 86.0827 207.822 88.9049 205.166 90.875C202.51 92.8451 199.189 93.8301 195.205 93.8301C189.915 93.8301 185.775 92.2142 182.787 88.9824C179.821 85.7285 178.338 81.2904 178.338 75.668C178.338 70.112 179.777 65.6074 182.654 62.1543C185.554 58.7012 189.627 56.9746 194.873 56.9746C197.441 56.9746 199.909 57.5391 202.277 58.668C204.668 59.7969 206.693 61.7227 208.354 64.4453C210.014 67.1458 210.844 71.2962 210.844 76.8965ZM204.701 71.9824C204.458 68.3965 203.34 65.8177 201.348 64.2461C199.378 62.6523 197.219 61.8555 194.873 61.8555C192.062 61.8555 189.749 62.7962 187.934 64.6777C186.118 66.5592 185.067 68.9941 184.779 71.9824H204.701ZM224.059 93H218.082V44.3242H224.059V93ZM249.824 44.0918L248.928 49.3379C247.732 49.1165 246.559 49.0059 245.408 49.0059C243.969 49.0059 242.785 49.3158 241.855 49.9355C240.948 50.5332 240.494 52.0384 240.494 54.4512V57.7715H247.301V62.3867H240.494V93H234.518V62.3867H229.205V57.7715H234.518V53.9531C234.518 52.1823 234.684 50.5775 235.016 49.1387C235.348 47.6999 236.222 46.4049 237.639 45.2539C239.077 44.0807 241.28 43.4941 244.246 43.4941C246.017 43.4941 247.876 43.6934 249.824 44.0918ZM276.154 77.4277C276.154 83.3822 274.948 87.61 272.535 90.1113C270.145 92.5905 266.802 93.8301 262.508 93.8301C258.147 93.8301 254.871 92.6126 252.68 90.1777C250.51 87.7207 249.426 84.0352 249.426 79.1211L255.203 78.3242C255.247 81.556 255.878 83.9798 257.096 85.5957C258.313 87.2116 260.117 88.0195 262.508 88.0195C264.699 88.0195 266.326 87.4993 267.389 86.459C268.451 85.4186 269.104 84.2233 269.348 82.873C269.591 81.5007 269.713 79.7962 269.713 77.7598V44.3242H276.154V77.4277ZM300.492 56.9746C305.251 56.9746 309.191 58.5241 312.312 61.623C315.456 64.722 317.027 69.127 317.027 74.8379C317.027 81.7663 315.334 86.6693 311.947 89.5469C308.561 92.4023 304.742 93.8301 300.492 93.8301C296.043 93.8301 292.18 92.3581 288.904 89.4141C285.628 86.4701 283.99 81.7995 283.99 75.4023C283.99 69.2044 285.573 64.5892 288.738 61.5566C291.904 58.502 295.822 56.9746 300.492 56.9746ZM300.492 88.916C303.901 88.916 306.491 87.6543 308.262 85.1309C310.033 82.6074 310.918 79.2871 310.918 75.1699C310.918 70.765 309.911 67.4447 307.896 65.209C305.904 62.9733 303.436 61.8555 300.492 61.8555C297.46 61.8555 294.969 62.9954 293.021 65.2754C291.074 67.5332 290.1 70.9089 290.1 75.4023C290.1 79.8737 291.085 83.2493 293.055 85.5293C295.047 87.7871 297.526 88.916 300.492 88.916ZM330.143 61.7227C332.356 58.5573 335.521 56.9746 339.639 56.9746C344.176 56.9746 347.807 58.6237 350.529 61.9219C353.252 65.2201 354.613 69.5254 354.613 74.8379C354.613 80.9694 353.086 85.6732 350.031 88.9492C346.999 92.2031 343.446 93.8301 339.373 93.8301C335.234 93.8301 332.013 92.0814 329.711 88.584H329.578V93H324V44.3242H329.977V61.7227H330.143ZM338.908 88.916C341.675 88.916 343.955 87.7318 345.748 85.3633C347.563 82.9727 348.471 79.6302 348.471 75.3359C348.471 71.1966 347.641 67.9206 345.98 65.5078C344.32 63.0729 342.029 61.8555 339.107 61.8555C336.23 61.8555 333.906 63.1061 332.135 65.6074C330.386 68.1087 329.512 71.2741 329.512 75.1035C329.512 78.8444 329.877 81.5117 330.607 83.1055C331.338 84.6771 332.434 86.0384 333.895 87.1895C335.378 88.3405 337.049 88.916 338.908 88.916Z" fill="#28384B"/>
<path d="M28.2266 43.4941C35.0443 43.4941 40.6224 45.8073 44.9609 50.4336C49.2995 55.0599 51.4688 61.1582 51.4688 68.7285C51.4688 76.2767 49.2884 82.3529 44.9277 86.957C40.5671 91.5391 35 93.8301 28.2266 93.8301C21.2096 93.8301 15.5651 91.4505 11.293 86.6914C7.02083 81.9323 4.88477 76.1217 4.88477 69.2598C4.88477 61.2689 7.04297 54.9824 11.3594 50.4004C15.6979 45.7962 21.3203 43.4941 28.2266 43.4941ZM28.1602 88.3184C33.0964 88.3184 37.0918 86.5918 40.1465 83.1387C43.2233 79.6855 44.7728 74.8822 44.7949 68.7285C44.7949 62.3978 43.2233 57.528 40.0801 54.1191C36.959 50.7103 33.0299 49.0059 28.293 49.0059C23.4232 49.0059 19.4167 50.6771 16.2734 54.0195C13.1302 57.362 11.5586 62.4863 11.5586 69.3926C11.5586 75.0371 13.097 79.6081 16.1738 83.1055C19.2507 86.5807 23.2461 88.3184 28.1602 88.3184ZM87.959 93H81.9492V71.584C81.9492 67.9759 81.2962 65.4967 79.9902 64.1465C78.7064 62.7962 76.9134 62.1211 74.6113 62.1211C72.8405 62.1211 71.1582 62.5527 69.5645 63.416C67.9928 64.2793 66.875 65.4967 66.2109 67.0684C65.5469 68.64 65.2148 70.8646 65.2148 73.7422V93H59.2383V57.7715H64.6172V62.752H64.75C66.0117 60.8262 67.5612 59.3874 69.3984 58.4355C71.2578 57.4616 73.4049 56.9746 75.8398 56.9746C77.6992 56.9746 79.5365 57.3066 81.3516 57.9707C83.1667 58.6348 84.5833 59.6309 85.6016 60.959C86.6419 62.2871 87.2949 63.7038 87.5605 65.209C87.8262 66.7142 87.959 68.7507 87.959 71.3184V93ZM127.637 76.8965H101.24C101.484 80.7923 102.59 83.7695 104.561 85.8281C106.553 87.8867 109.032 88.916 111.998 88.916C114.278 88.916 116.193 88.3184 117.742 87.123C119.292 85.9056 120.476 84.0794 121.295 81.6445L127.438 82.4082C126.441 86.0827 124.615 88.9049 121.959 90.875C119.303 92.8451 115.982 93.8301 111.998 93.8301C106.708 93.8301 102.568 92.2142 99.5801 88.9824C96.6139 85.7285 95.1309 81.2904 95.1309 75.668C95.1309 70.112 96.5697 65.6074 99.4473 62.1543C102.347 58.7012 106.42 56.9746 111.666 56.9746C114.234 56.9746 116.702 57.5391 119.07 58.668C121.461 59.7969 123.486 61.7227 125.146 64.4453C126.807 67.1458 127.637 71.2962 127.637 76.8965ZM121.494 71.9824C121.251 68.3965 120.133 65.8177 118.141 64.2461C116.171 62.6523 114.012 61.8555 111.666 61.8555C108.855 61.8555 106.542 62.7962 104.727 64.6777C102.911 66.5592 101.86 68.9941 101.572 71.9824H121.494ZM164.459 58.6016C164.193 55.5026 163.076 53.1784 161.105 51.6289C159.135 50.0573 156.313 49.2715 152.639 49.2715C149.318 49.2715 146.618 49.8913 144.537 51.1309C142.456 52.3704 141.416 54.1745 141.416 56.543C141.416 58.6458 142.213 60.2174 143.807 61.2578C145.423 62.276 148.499 63.2943 153.037 64.3125C157.066 65.1979 160.353 66.1055 162.898 67.0352C165.444 67.9648 167.624 69.4147 169.439 71.3848C171.255 73.3327 172.162 75.9557 172.162 79.2539C172.162 83.4375 170.491 86.9128 167.148 89.6797C163.828 92.4466 159.49 93.8301 154.133 93.8301C147.293 93.8301 142.169 92.3027 138.76 89.248C135.373 86.1934 133.58 82.2311 133.381 77.3613L139.49 76.8301C139.778 80.7259 141.283 83.5703 144.006 85.3633C146.729 87.1341 150.016 88.0195 153.867 88.0195C157.475 88.0195 160.386 87.278 162.6 85.7949C164.835 84.3118 165.953 82.2975 165.953 79.752C165.953 77.0957 164.791 75.1589 162.467 73.9414C160.143 72.724 156.236 71.5286 150.746 70.3555C145.279 69.1602 141.339 67.4889 138.926 65.3418C136.513 63.1947 135.307 60.4056 135.307 56.9746C135.307 53.0788 136.834 49.8581 139.889 47.3125C142.943 44.7669 147.105 43.4941 152.373 43.4941C157.774 43.4941 162.113 44.7669 165.389 47.3125C168.687 49.8359 170.436 53.4329 170.635 58.1035L164.459 58.6016ZM210.844 76.8965H184.447C184.691 80.7923 185.798 83.7695 187.768 85.8281C189.76 87.8867 192.239 88.916 195.205 88.916C197.485 88.916 199.4 88.3184 200.949 87.123C202.499 85.9056 203.683 84.0794 204.502 81.6445L210.645 82.4082C209.648 86.0827 207.822 88.9049 205.166 90.875C202.51 92.8451 199.189 93.8301 195.205 93.8301C189.915 93.8301 185.775 92.2142 182.787 88.9824C179.821 85.7285 178.338 81.2904 178.338 75.668C178.338 70.112 179.777 65.6074 182.654 62.1543C185.554 58.7012 189.627 56.9746 194.873 56.9746C197.441 56.9746 199.909 57.5391 202.277 58.668C204.668 59.7969 206.693 61.7227 208.354 64.4453C210.014 67.1458 210.844 71.2962 210.844 76.8965ZM204.701 71.9824C204.458 68.3965 203.34 65.8177 201.348 64.2461C199.378 62.6523 197.219 61.8555 194.873 61.8555C192.062 61.8555 189.749 62.7962 187.934 64.6777C186.118 66.5592 185.067 68.9941 184.779 71.9824H204.701ZM224.059 93H218.082V44.3242H224.059V93ZM249.824 44.0918L248.928 49.3379C247.732 49.1165 246.559 49.0059 245.408 49.0059C243.969 49.0059 242.785 49.3158 241.855 49.9355C240.948 50.5332 240.494 52.0384 240.494 54.4512V57.7715H247.301V62.3867H240.494V93H234.518V62.3867H229.205V57.7715H234.518V53.9531C234.518 52.1823 234.684 50.5775 235.016 49.1387C235.348 47.6999 236.222 46.4049 237.639 45.2539C239.077 44.0807 241.28 43.4941 244.246 43.4941C246.017 43.4941 247.876 43.6934 249.824 44.0918ZM276.154 77.4277C276.154 83.3822 274.948 87.61 272.535 90.1113C270.145 92.5905 266.802 93.8301 262.508 93.8301C258.147 93.8301 254.871 92.6126 252.68 90.1777C250.51 87.7207 249.426 84.0352 249.426 79.1211L255.203 78.3242C255.247 81.556 255.878 83.9798 257.096 85.5957C258.313 87.2116 260.117 88.0195 262.508 88.0195C264.699 88.0195 266.326 87.4993 267.389 86.459C268.451 85.4186 269.104 84.2233 269.348 82.873C269.591 81.5007 269.713 79.7962 269.713 77.7598V44.3242H276.154V77.4277ZM300.492 56.9746C305.251 56.9746 309.191 58.5241 312.312 61.623C315.456 64.722 317.027 69.127 317.027 74.8379C317.027 81.7663 315.334 86.6693 311.947 89.5469C308.561 92.4023 304.742 93.8301 300.492 93.8301C296.043 93.8301 292.18 92.3581 288.904 89.4141C285.628 86.4701 283.99 81.7995 283.99 75.4023C283.99 69.2044 285.573 64.5892 288.738 61.5566C291.904 58.502 295.822 56.9746 300.492 56.9746ZM300.492 88.916C303.901 88.916 306.491 87.6543 308.262 85.1309C310.033 82.6074 310.918 79.2871 310.918 75.1699C310.918 70.765 309.911 67.4447 307.896 65.209C305.904 62.9733 303.436 61.8555 300.492 61.8555C297.46 61.8555 294.969 62.9954 293.021 65.2754C291.074 67.5332 290.1 70.9089 290.1 75.4023C290.1 79.8737 291.085 83.2493 293.055 85.5293C295.047 87.7871 297.526 88.916 300.492 88.916ZM330.143 61.7227C332.356 58.5573 335.521 56.9746 339.639 56.9746C344.176 56.9746 347.807 58.6237 350.529 61.9219C353.252 65.2201 354.613 69.5254 354.613 74.8379C354.613 80.9694 353.086 85.6732 350.031 88.9492C346.999 92.2031 343.446 93.8301 339.373 93.8301C335.234 93.8301 332.013 92.0814 329.711 88.584H329.578V93H324V44.3242H329.977V61.7227H330.143ZM338.908 88.916C341.675 88.916 343.955 87.7318 345.748 85.3633C347.563 82.9727 348.471 79.6302 348.471 75.3359C348.471 71.1966 347.641 67.9206 345.98 65.5078C344.32 63.0729 342.029 61.8555 339.107 61.8555C336.23 61.8555 333.906 63.1061 332.135 65.6074C330.386 68.1087 329.512 71.2741 329.512 75.1035C329.512 78.8444 329.877 81.5117 330.607 83.1055C331.338 84.6771 332.434 86.0384 333.895 87.1895C335.378 88.3405 337.049 88.916 338.908 88.916Z" fill="#28384B"/>
<path d="M32.3267 132.099H29.5085C29.3419 131.288 29.0502 130.576 28.6335 129.963C28.2244 129.349 27.7244 128.834 27.1335 128.417C26.5502 127.993 25.9025 127.675 25.1903 127.463C24.4782 127.25 23.7358 127.144 22.9631 127.144C21.554 127.144 20.2775 127.5 19.1335 128.213C17.9972 128.925 17.0919 129.974 16.4176 131.36C15.7509 132.747 15.4176 134.447 15.4176 136.463C15.4176 138.478 15.7509 140.178 16.4176 141.565C17.0919 142.951 17.9972 144 19.1335 144.713C20.2775 145.425 21.554 145.781 22.9631 145.781C23.7358 145.781 24.4782 145.675 25.1903 145.463C25.9025 145.25 26.5502 144.936 27.1335 144.519C27.7244 144.095 28.2244 143.576 28.6335 142.963C29.0502 142.341 29.3419 141.629 29.5085 140.826H32.3267C32.1146 142.016 31.7282 143.08 31.1676 144.019C30.607 144.959 29.91 145.758 29.0767 146.417C28.2434 147.069 27.3078 147.565 26.2699 147.906C25.2396 148.247 24.1373 148.417 22.9631 148.417C20.9782 148.417 19.2131 147.932 17.6676 146.963C16.1222 145.993 14.9063 144.614 14.0199 142.826C13.1335 141.038 12.6903 138.917 12.6903 136.463C12.6903 134.008 13.1335 131.887 14.0199 130.099C14.9063 128.311 16.1222 126.932 17.6676 125.963C19.2131 124.993 20.9782 124.508 22.9631 124.508C24.1373 124.508 25.2396 124.678 26.2699 125.019C27.3078 125.36 28.2434 125.86 29.0767 126.519C29.91 127.171 30.607 127.966 31.1676 128.906C31.7282 129.838 32.1146 130.902 32.3267 132.099ZM43.608 148.463C42.0322 148.463 40.6496 148.088 39.4602 147.338C38.2784 146.588 37.3542 145.538 36.6875 144.19C36.0284 142.841 35.6989 141.266 35.6989 139.463C35.6989 137.644 36.0284 136.057 36.6875 134.701C37.3542 133.345 38.2784 132.292 39.4602 131.542C40.6496 130.792 42.0322 130.417 43.608 130.417C45.1837 130.417 46.5625 130.792 47.7443 131.542C48.9337 132.292 49.858 133.345 50.517 134.701C51.1837 136.057 51.517 137.644 51.517 139.463C51.517 141.266 51.1837 142.841 50.517 144.19C49.858 145.538 48.9337 146.588 47.7443 147.338C46.5625 148.088 45.1837 148.463 43.608 148.463ZM43.608 146.053C44.8049 146.053 45.7898 145.747 46.5625 145.133C47.3352 144.519 47.9072 143.713 48.2784 142.713C48.6496 141.713 48.8352 140.629 48.8352 139.463C48.8352 138.296 48.6496 137.209 48.2784 136.201C47.9072 135.194 47.3352 134.379 46.5625 133.758C45.7898 133.137 44.8049 132.826 43.608 132.826C42.411 132.826 41.4261 133.137 40.6534 133.758C39.8807 134.379 39.3087 135.194 38.9375 136.201C38.5663 137.209 38.3807 138.296 38.3807 139.463C38.3807 140.629 38.5663 141.713 38.9375 142.713C39.3087 143.713 39.8807 144.519 40.6534 145.133C41.4261 145.747 42.411 146.053 43.608 146.053ZM54.5199 143.644H57.3835C57.4441 144.432 57.8002 145.031 58.4517 145.44C59.1108 145.849 59.9669 146.053 61.0199 146.053C62.0956 146.053 63.0161 145.834 63.7812 145.394C64.5464 144.947 64.929 144.228 64.929 143.235C64.929 142.652 64.785 142.144 64.4972 141.713C64.2093 141.273 63.804 140.932 63.2812 140.69C62.7585 140.447 62.1411 140.326 61.429 140.326H58.429V137.917H61.429C62.4972 137.917 63.285 137.675 63.7926 137.19C64.3078 136.705 64.5653 136.099 64.5653 135.372C64.5653 134.591 64.2888 133.966 63.7358 133.497C63.1828 133.019 62.3987 132.781 61.3835 132.781C60.3608 132.781 59.5085 133.012 58.8267 133.474C58.1449 133.928 57.785 134.516 57.7472 135.235H54.929C54.9593 134.296 55.2472 133.466 55.7926 132.747C56.3381 132.019 57.0805 131.451 58.0199 131.042C58.9593 130.625 60.035 130.417 61.2472 130.417C62.4744 130.417 63.5388 130.633 64.4403 131.065C65.3494 131.489 66.0502 132.069 66.5426 132.803C67.0426 133.531 67.2926 134.356 67.2926 135.281C67.2926 136.266 67.0161 137.061 66.4631 137.667C65.91 138.273 65.2169 138.705 64.3835 138.963V139.144C65.0426 139.19 65.6146 139.402 66.0994 139.781C66.5919 140.152 66.9744 140.641 67.2472 141.247C67.5199 141.845 67.6562 142.508 67.6562 143.235C67.6562 144.296 67.3722 145.22 66.804 146.008C66.2358 146.788 65.4555 147.394 64.4631 147.826C63.4706 148.25 62.3381 148.463 61.0653 148.463C59.8305 148.463 58.7244 148.262 57.7472 147.86C56.7699 147.451 55.9934 146.887 55.4176 146.167C54.8494 145.44 54.5502 144.599 54.5199 143.644ZM69.5597 153.099V145.599H71.0142C71.3703 145.228 71.6771 144.826 71.9347 144.394C72.1922 143.963 72.4157 143.451 72.6051 142.86C72.8021 142.262 72.9688 141.534 73.1051 140.678C73.2415 139.815 73.3627 138.773 73.4688 137.553L74.0597 130.644H85.1506V145.599H87.8324V153.099H85.1506V148.099H72.2415V153.099H69.5597ZM74.0597 145.599H82.4688V133.144H76.5597L76.1051 137.553C75.9157 139.379 75.6809 140.974 75.4006 142.338C75.1203 143.701 74.6733 144.788 74.0597 145.599ZM96.5284 148.508C95.4223 148.508 94.4186 148.3 93.517 147.883C92.6155 147.459 91.8996 146.849 91.3693 146.053C90.839 145.25 90.5739 144.281 90.5739 143.144C90.5739 142.144 90.7708 141.334 91.1648 140.713C91.5587 140.084 92.0852 139.591 92.7443 139.235C93.4034 138.879 94.1307 138.614 94.9261 138.44C95.7292 138.258 96.536 138.114 97.3466 138.008C98.4072 137.872 99.267 137.769 99.9261 137.701C100.593 137.625 101.078 137.5 101.381 137.326C101.691 137.152 101.847 136.849 101.847 136.417V136.326C101.847 135.205 101.54 134.334 100.926 133.713C100.32 133.091 99.3996 132.781 98.1648 132.781C96.8845 132.781 95.8807 133.061 95.1534 133.622C94.4261 134.182 93.9148 134.781 93.6193 135.417L91.0739 134.508C91.5284 133.447 92.1345 132.622 92.892 132.031C93.6572 131.432 94.4905 131.016 95.392 130.781C96.3011 130.538 97.1951 130.417 98.0739 130.417C98.6345 130.417 99.2784 130.485 100.006 130.622C100.741 130.75 101.449 131.019 102.131 131.428C102.82 131.838 103.392 132.455 103.847 133.281C104.301 134.106 104.528 135.213 104.528 136.599V148.099H101.847V145.735H101.71C101.528 146.114 101.225 146.519 100.801 146.951C100.377 147.383 99.8125 147.75 99.108 148.053C98.4034 148.356 97.5436 148.508 96.5284 148.508ZM96.9375 146.099C97.9981 146.099 98.892 145.891 99.6193 145.474C100.354 145.057 100.907 144.519 101.278 143.86C101.657 143.201 101.847 142.508 101.847 141.781V139.326C101.733 139.463 101.483 139.588 101.097 139.701C100.718 139.807 100.278 139.902 99.7784 139.985C99.286 140.061 98.8049 140.129 98.3352 140.19C97.8731 140.243 97.4981 140.288 97.2102 140.326C96.5133 140.417 95.8617 140.565 95.2557 140.769C94.6572 140.966 94.1723 141.266 93.8011 141.667C93.4375 142.061 93.2557 142.599 93.2557 143.281C93.2557 144.213 93.6004 144.917 94.2898 145.394C94.9867 145.864 95.8693 146.099 96.9375 146.099ZM112.105 144.144L120.514 130.644H123.605V148.099H120.923V134.599L112.56 148.099H109.423V130.644H112.105V144.144ZM118.741 124.826H121.241C121.241 126.053 120.817 127.057 119.969 127.838C119.12 128.618 117.969 129.008 116.514 129.008C115.082 129.008 113.942 128.618 113.094 127.838C112.253 127.057 111.832 126.053 111.832 124.826H114.332C114.332 125.417 114.495 125.936 114.821 126.383C115.154 126.83 115.719 127.053 116.514 127.053C117.31 127.053 117.878 126.83 118.219 126.383C118.567 125.936 118.741 125.417 118.741 124.826ZM135.972 148.099V145.599H136.608C137.131 145.599 137.566 145.497 137.915 145.292C138.263 145.08 138.544 144.713 138.756 144.19C138.975 143.659 139.142 142.925 139.256 141.985C139.377 141.038 139.464 139.834 139.517 138.372L139.835 130.644H151.472V148.099H148.79V133.144H142.381L142.108 139.372C142.047 140.803 141.919 142.065 141.722 143.156C141.532 144.239 141.241 145.148 140.847 145.883C140.46 146.618 139.945 147.171 139.301 147.542C138.657 147.913 137.85 148.099 136.881 148.099H135.972ZM159.074 144.144L167.483 130.644H170.574V148.099H167.892V134.599L159.528 148.099H156.392V130.644H159.074V144.144ZM188.94 130.644V148.099H186.259V130.644H188.94ZM187.895 138.963V141.463C187.289 141.69 186.687 141.891 186.088 142.065C185.49 142.231 184.861 142.364 184.202 142.463C183.543 142.553 182.819 142.599 182.031 142.599C180.054 142.599 178.467 142.065 177.27 140.997C176.08 139.928 175.486 138.326 175.486 136.19V130.599H178.168V136.19C178.168 137.084 178.338 137.819 178.679 138.394C179.02 138.97 179.482 139.398 180.065 139.678C180.649 139.959 181.304 140.099 182.031 140.099C183.168 140.099 184.194 139.997 185.111 139.792C186.035 139.58 186.963 139.303 187.895 138.963ZM205.543 138.144V140.644H195.906V138.144H205.543ZM196.543 130.644V148.099H193.861V130.644H196.543ZM207.588 130.644V148.099H204.906V130.644H207.588ZM214.804 136.963H219.804C221.849 136.963 223.414 137.481 224.497 138.519C225.58 139.557 226.122 140.872 226.122 142.463C226.122 143.508 225.88 144.459 225.395 145.315C224.91 146.163 224.198 146.841 223.259 147.349C222.319 147.849 221.168 148.099 219.804 148.099H212.486V130.644H215.168V145.599H219.804C220.865 145.599 221.736 145.319 222.418 144.758C223.099 144.197 223.44 143.478 223.44 142.599C223.44 141.675 223.099 140.921 222.418 140.338C221.736 139.754 220.865 139.463 219.804 139.463H214.804V136.963ZM228.895 148.099V130.644H231.577V148.099H228.895ZM239.168 144.144L247.577 130.644H250.668V148.099H247.986V134.599L239.622 148.099H236.486V130.644H239.168V144.144ZM245.804 124.826H248.304C248.304 126.053 247.88 127.057 247.031 127.838C246.183 128.618 245.031 129.008 243.577 129.008C242.145 129.008 241.005 128.618 240.156 127.838C239.315 127.057 238.895 126.053 238.895 124.826H241.395C241.395 125.417 241.558 125.936 241.884 126.383C242.217 126.83 242.781 127.053 243.577 127.053C244.372 127.053 244.94 126.83 245.281 126.383C245.63 125.936 245.804 125.417 245.804 124.826ZM277.534 124.099L278.898 125.735C278.367 126.25 277.754 126.61 277.057 126.815C276.36 127.019 275.572 127.144 274.693 127.19C273.814 127.235 272.837 127.281 271.761 127.326C270.549 127.372 269.545 127.667 268.75 128.213C267.955 128.758 267.341 129.546 266.909 130.576C266.477 131.606 266.201 132.872 266.08 134.372H266.307C266.898 133.281 267.716 132.478 268.761 131.963C269.807 131.447 270.928 131.19 272.125 131.19C273.489 131.19 274.716 131.508 275.807 132.144C276.898 132.781 277.761 133.724 278.398 134.974C279.034 136.224 279.352 137.766 279.352 139.599C279.352 141.425 279.027 143 278.375 144.326C277.731 145.652 276.826 146.675 275.659 147.394C274.5 148.106 273.14 148.463 271.58 148.463C270.019 148.463 268.652 148.095 267.477 147.36C266.303 146.618 265.39 145.519 264.739 144.065C264.087 142.603 263.761 140.796 263.761 138.644V136.781C263.761 132.894 264.42 129.947 265.739 127.94C267.064 125.932 269.057 124.894 271.716 124.826C272.655 124.796 273.492 124.788 274.227 124.803C274.962 124.819 275.602 124.784 276.148 124.701C276.693 124.618 277.155 124.417 277.534 124.099ZM271.58 146.053C272.633 146.053 273.538 145.788 274.295 145.258C275.061 144.728 275.648 143.981 276.057 143.019C276.466 142.05 276.67 140.909 276.67 139.599C276.67 138.326 276.462 137.243 276.045 136.349C275.636 135.455 275.049 134.773 274.284 134.303C273.519 133.834 272.602 133.599 271.534 133.599C270.754 133.599 270.053 133.731 269.432 133.997C268.811 134.262 268.28 134.652 267.841 135.167C267.402 135.682 267.061 136.311 266.818 137.053C266.583 137.796 266.458 138.644 266.443 139.599C266.443 141.553 266.902 143.118 267.818 144.292C268.735 145.466 269.989 146.053 271.58 146.053ZM283.455 154.644V130.644H286.045V133.417H286.364C286.561 133.114 286.833 132.728 287.182 132.258C287.538 131.781 288.045 131.356 288.705 130.985C289.371 130.606 290.273 130.417 291.409 130.417C292.879 130.417 294.174 130.784 295.295 131.519C296.417 132.254 297.292 133.296 297.92 134.644C298.549 135.993 298.864 137.584 298.864 139.417C298.864 141.266 298.549 142.868 297.92 144.224C297.292 145.572 296.42 146.618 295.307 147.36C294.193 148.095 292.909 148.463 291.455 148.463C290.333 148.463 289.436 148.277 288.761 147.906C288.087 147.527 287.568 147.099 287.205 146.622C286.841 146.137 286.561 145.735 286.364 145.417H286.136V154.644H283.455ZM286.091 139.372C286.091 140.69 286.284 141.853 286.67 142.86C287.057 143.86 287.621 144.644 288.364 145.213C289.106 145.773 290.015 146.053 291.091 146.053C292.212 146.053 293.148 145.758 293.898 145.167C294.655 144.569 295.223 143.766 295.602 142.758C295.989 141.743 296.182 140.614 296.182 139.372C296.182 138.144 295.992 137.038 295.614 136.053C295.242 135.061 294.678 134.277 293.92 133.701C293.17 133.118 292.227 132.826 291.091 132.826C290 132.826 289.083 133.103 288.341 133.656C287.598 134.201 287.038 134.966 286.659 135.951C286.28 136.928 286.091 138.069 286.091 139.372ZM310.273 148.463C308.591 148.463 307.14 148.091 305.92 147.349C304.708 146.599 303.773 145.553 303.114 144.213C302.462 142.864 302.136 141.296 302.136 139.508C302.136 137.72 302.462 136.144 303.114 134.781C303.773 133.409 304.689 132.341 305.864 131.576C307.045 130.803 308.424 130.417 310 130.417C310.909 130.417 311.807 130.569 312.693 130.872C313.58 131.175 314.386 131.667 315.114 132.349C315.841 133.023 316.42 133.917 316.852 135.031C317.284 136.144 317.5 137.516 317.5 139.144V140.281H304.045V137.963H314.773C314.773 136.978 314.576 136.099 314.182 135.326C313.795 134.553 313.242 133.944 312.523 133.497C311.811 133.05 310.97 132.826 310 132.826C308.932 132.826 308.008 133.091 307.227 133.622C306.455 134.144 305.86 134.826 305.443 135.667C305.027 136.508 304.818 137.409 304.818 138.372V139.917C304.818 141.235 305.045 142.353 305.5 143.269C305.962 144.178 306.602 144.872 307.42 145.349C308.239 145.819 309.189 146.053 310.273 146.053C310.977 146.053 311.614 145.955 312.182 145.758C312.758 145.553 313.254 145.25 313.67 144.849C314.087 144.44 314.409 143.932 314.636 143.326L317.227 144.053C316.955 144.932 316.496 145.705 315.852 146.372C315.208 147.031 314.413 147.546 313.466 147.917C312.519 148.281 311.455 148.463 310.273 148.463ZM333.261 138.144V140.644H323.625V138.144H333.261ZM324.261 130.644V148.099H321.58V130.644H324.261ZM335.307 130.644V148.099H332.625V130.644H335.307ZM338.341 153.099V145.599H339.795C340.152 145.228 340.458 144.826 340.716 144.394C340.973 143.963 341.197 143.451 341.386 142.86C341.583 142.262 341.75 141.534 341.886 140.678C342.023 139.815 342.144 138.773 342.25 137.553L342.841 130.644H353.932V145.599H356.614V153.099H353.932V148.099H341.023V153.099H338.341ZM342.841 145.599H351.25V133.144H345.341L344.886 137.553C344.697 139.379 344.462 140.974 344.182 142.338C343.902 143.701 343.455 144.788 342.841 145.599Z" fill="#28384B"/>
<path d="M11.2727 210H9.86364C9.7803 209.595 9.63447 209.239 9.42614 208.932C9.22159 208.625 8.97159 208.367 8.67614 208.159C8.38447 207.947 8.06061 207.788 7.70455 207.682C7.34849 207.576 6.97727 207.523 6.59091 207.523C5.88636 207.523 5.24811 207.701 4.67614 208.057C4.10795 208.413 3.6553 208.938 3.31818 209.631C2.98485 210.324 2.81818 211.174 2.81818 212.182C2.81818 213.189 2.98485 214.04 3.31818 214.733C3.6553 215.426 4.10795 215.951 4.67614 216.307C5.24811 216.663 5.88636 216.841 6.59091 216.841C6.97727 216.841 7.34849 216.788 7.70455 216.682C8.06061 216.576 8.38447 216.419 8.67614 216.21C8.97159 215.998 9.22159 215.739 9.42614 215.432C9.63447 215.121 9.7803 214.765 9.86364 214.364H11.2727C11.1667 214.958 10.9735 215.491 10.6932 215.96C10.4129 216.43 10.0644 216.83 9.64773 217.159C9.23106 217.485 8.76326 217.733 8.24432 217.903C7.72917 218.074 7.17803 218.159 6.59091 218.159C5.59849 218.159 4.71591 217.917 3.94318 217.432C3.17045 216.947 2.5625 216.258 2.11932 215.364C1.67614 214.47 1.45455 213.409 1.45455 212.182C1.45455 210.955 1.67614 209.894 2.11932 209C2.5625 208.106 3.17045 207.417 3.94318 206.932C4.71591 206.447 5.59849 206.205 6.59091 206.205C7.17803 206.205 7.72917 206.29 8.24432 206.46C8.76326 206.631 9.23106 206.881 9.64773 207.21C10.0644 207.536 10.4129 207.934 10.6932 208.403C10.9735 208.869 11.1667 209.402 11.2727 210ZM16.9134 218.182C16.1255 218.182 15.4342 217.994 14.8395 217.619C14.2486 217.244 13.7865 216.72 13.4531 216.045C13.1236 215.371 12.9588 214.583 12.9588 213.682C12.9588 212.773 13.1236 211.979 13.4531 211.301C13.7865 210.623 14.2486 210.097 14.8395 209.722C15.4342 209.347 16.1255 209.159 16.9134 209.159C17.7012 209.159 18.3906 209.347 18.9815 209.722C19.5762 210.097 20.0384 210.623 20.3679 211.301C20.7012 211.979 20.8679 212.773 20.8679 213.682C20.8679 214.583 20.7012 215.371 20.3679 216.045C20.0384 216.72 19.5762 217.244 18.9815 217.619C18.3906 217.994 17.7012 218.182 16.9134 218.182ZM16.9134 216.977C17.5118 216.977 18.0043 216.824 18.3906 216.517C18.777 216.21 19.063 215.807 19.2486 215.307C19.4342 214.807 19.527 214.265 19.527 213.682C19.527 213.098 19.4342 212.555 19.2486 212.051C19.063 211.547 18.777 211.14 18.3906 210.83C18.0043 210.519 17.5118 210.364 16.9134 210.364C16.3149 210.364 15.8224 210.519 15.4361 210.83C15.0497 211.14 14.7637 211.547 14.5781 212.051C14.3925 212.555 14.2997 213.098 14.2997 213.682C14.2997 214.265 14.3925 214.807 14.5781 215.307C14.7637 215.807 15.0497 216.21 15.4361 216.517C15.8224 216.824 16.3149 216.977 16.9134 216.977ZM22.3693 215.773H23.8011C23.8314 216.167 24.0095 216.466 24.3352 216.67C24.6648 216.875 25.0928 216.977 25.6193 216.977C26.1572 216.977 26.6174 216.867 27 216.648C27.3826 216.424 27.5739 216.064 27.5739 215.568C27.5739 215.277 27.5019 215.023 27.358 214.807C27.214 214.587 27.0114 214.417 26.75 214.295C26.4886 214.174 26.1799 214.114 25.8239 214.114H24.3239V212.909H25.8239C26.358 212.909 26.7519 212.788 27.0057 212.545C27.2633 212.303 27.392 212 27.392 211.636C27.392 211.246 27.2538 210.934 26.9773 210.699C26.7008 210.46 26.3087 210.341 25.8011 210.341C25.2898 210.341 24.8636 210.456 24.5227 210.688C24.1818 210.915 24.0019 211.208 23.983 211.568H22.5739C22.589 211.098 22.733 210.684 23.0057 210.324C23.2784 209.96 23.6496 209.676 24.1193 209.472C24.589 209.263 25.1269 209.159 25.733 209.159C26.3466 209.159 26.8788 209.267 27.3295 209.483C27.7841 209.695 28.1345 209.985 28.3807 210.352C28.6307 210.716 28.7557 211.129 28.7557 211.591C28.7557 212.083 28.6174 212.481 28.3409 212.784C28.0644 213.087 27.7178 213.303 27.3011 213.432V213.523C27.6307 213.545 27.9167 213.652 28.1591 213.841C28.4053 214.027 28.5966 214.271 28.733 214.574C28.8693 214.873 28.9375 215.205 28.9375 215.568C28.9375 216.098 28.7955 216.561 28.5114 216.955C28.2273 217.345 27.8371 217.648 27.3409 217.864C26.8447 218.076 26.2784 218.182 25.642 218.182C25.0246 218.182 24.4716 218.081 23.983 217.881C23.4943 217.676 23.1061 217.394 22.8182 217.034C22.5341 216.67 22.3845 216.25 22.3693 215.773ZM29.8892 220.5V216.75H30.6165C30.7945 216.564 30.9479 216.364 31.0767 216.148C31.2055 215.932 31.3172 215.676 31.4119 215.381C31.5104 215.081 31.5938 214.718 31.6619 214.29C31.7301 213.858 31.7907 213.337 31.8438 212.727L32.1392 209.273H37.6847V216.75H39.0256V220.5H37.6847V218H31.2301V220.5H29.8892ZM32.1392 216.75H36.3438V210.523H33.3892L33.1619 212.727C33.0672 213.64 32.9498 214.437 32.8097 215.119C32.6695 215.801 32.446 216.345 32.1392 216.75ZM43.3736 218.205C42.8205 218.205 42.3187 218.1 41.8679 217.892C41.4171 217.68 41.0592 217.375 40.794 216.977C40.5289 216.576 40.3963 216.091 40.3963 215.523C40.3963 215.023 40.4948 214.617 40.6918 214.307C40.8887 213.992 41.152 213.746 41.4815 213.568C41.8111 213.39 42.1747 213.258 42.5724 213.17C42.974 213.08 43.3774 213.008 43.7827 212.955C44.313 212.886 44.7429 212.835 45.0724 212.801C45.4058 212.763 45.6482 212.701 45.7997 212.614C45.955 212.527 46.0327 212.375 46.0327 212.159V212.114C46.0327 211.553 45.8793 211.117 45.5724 210.807C45.2694 210.496 44.8092 210.341 44.1918 210.341C43.5516 210.341 43.0497 210.481 42.6861 210.761C42.3224 211.042 42.0668 211.341 41.919 211.659L40.6463 211.205C40.8736 210.674 41.1766 210.261 41.5554 209.966C41.938 209.667 42.3546 209.458 42.8054 209.341C43.2599 209.22 43.7069 209.159 44.1463 209.159C44.4266 209.159 44.7486 209.193 45.1122 209.261C45.4796 209.326 45.8338 209.46 46.1747 209.665C46.5194 209.869 46.8054 210.178 47.0327 210.591C47.2599 211.004 47.3736 211.557 47.3736 212.25V218H46.0327V216.818H45.9645C45.8736 217.008 45.7221 217.21 45.5099 217.426C45.2978 217.642 45.0156 217.826 44.6634 217.977C44.3111 218.129 43.8812 218.205 43.3736 218.205ZM43.5781 217C44.1084 217 44.5554 216.896 44.919 216.688C45.2865 216.479 45.563 216.21 45.7486 215.881C45.938 215.551 46.0327 215.205 46.0327 214.841V213.614C45.9759 213.682 45.8509 213.744 45.6577 213.801C45.4683 213.854 45.2486 213.902 44.9986 213.943C44.7524 213.981 44.5118 214.015 44.277 214.045C44.0459 214.072 43.8584 214.095 43.7145 214.114C43.366 214.159 43.0402 214.233 42.7372 214.335C42.438 214.434 42.1955 214.583 42.0099 214.784C41.8281 214.981 41.7372 215.25 41.7372 215.591C41.7372 216.057 41.9096 216.409 42.2543 216.648C42.6027 216.883 43.044 217 43.5781 217ZM49.821 218V209.273H53.3892C54.3286 209.273 55.0748 209.485 55.6278 209.909C56.1809 210.333 56.4574 210.894 56.4574 211.591C56.4574 212.121 56.3002 212.532 55.9858 212.824C55.6714 213.112 55.268 213.307 54.7756 213.409C55.0975 213.455 55.41 213.568 55.7131 213.75C56.0199 213.932 56.2737 214.182 56.4744 214.5C56.6752 214.814 56.7756 215.201 56.7756 215.659C56.7756 216.106 56.6619 216.506 56.4347 216.858C56.2074 217.21 55.8816 217.489 55.4574 217.693C55.0331 217.898 54.5256 218 53.9347 218H49.821ZM51.0938 216.773H53.9347C54.3968 216.773 54.7585 216.663 55.0199 216.443C55.2813 216.223 55.4119 215.924 55.4119 215.545C55.4119 215.095 55.2813 214.741 55.0199 214.483C54.7585 214.222 54.3968 214.091 53.9347 214.091H51.0938V216.773ZM51.0938 212.932H53.3892C53.7491 212.932 54.0578 212.883 54.3153 212.784C54.5729 212.682 54.7699 212.538 54.9062 212.352C55.0464 212.163 55.1165 211.939 55.1165 211.682C55.1165 211.314 54.9631 211.027 54.6562 210.818C54.3494 210.606 53.9271 210.5 53.3892 210.5H51.0938V212.932ZM61.3736 218.205C60.8205 218.205 60.3187 218.1 59.8679 217.892C59.4171 217.68 59.0592 217.375 58.794 216.977C58.5289 216.576 58.3963 216.091 58.3963 215.523C58.3963 215.023 58.4948 214.617 58.6918 214.307C58.8887 213.992 59.152 213.746 59.4815 213.568C59.8111 213.39 60.1747 213.258 60.5724 213.17C60.974 213.08 61.3774 213.008 61.7827 212.955C62.313 212.886 62.7429 212.835 63.0724 212.801C63.4058 212.763 63.6482 212.701 63.7997 212.614C63.955 212.527 64.0327 212.375 64.0327 212.159V212.114C64.0327 211.553 63.8793 211.117 63.5724 210.807C63.2694 210.496 62.8092 210.341 62.1918 210.341C61.5516 210.341 61.0497 210.481 60.6861 210.761C60.3224 211.042 60.0668 211.341 59.919 211.659L58.6463 211.205C58.8736 210.674 59.1766 210.261 59.5554 209.966C59.938 209.667 60.3546 209.458 60.8054 209.341C61.2599 209.22 61.7069 209.159 62.1463 209.159C62.4266 209.159 62.7486 209.193 63.1122 209.261C63.4796 209.326 63.8338 209.46 64.1747 209.665C64.5194 209.869 64.8054 210.178 65.0327 210.591C65.2599 211.004 65.3736 211.557 65.3736 212.25V218H64.0327V216.818H63.9645C63.8736 217.008 63.7221 217.21 63.5099 217.426C63.2978 217.642 63.0156 217.826 62.6634 217.977C62.3111 218.129 61.8812 218.205 61.3736 218.205ZM61.5781 217C62.1084 217 62.5554 216.896 62.919 216.688C63.2865 216.479 63.563 216.21 63.7486 215.881C63.938 215.551 64.0327 215.205 64.0327 214.841V213.614C63.9759 213.682 63.8509 213.744 63.6577 213.801C63.4683 213.854 63.2486 213.902 62.9986 213.943C62.7524 213.981 62.5118 214.015 62.277 214.045C62.0459 214.072 61.8584 214.095 61.7145 214.114C61.366 214.159 61.0402 214.233 60.7372 214.335C60.438 214.434 60.1955 214.583 60.0099 214.784C59.8281 214.981 59.7372 215.25 59.7372 215.591C59.7372 216.057 59.9096 216.409 60.2543 216.648C60.6027 216.883 61.044 217 61.5781 217ZM69.1619 216.023L73.3665 209.273H74.9119V218H73.571V211.25L69.3892 218H67.821V209.273H69.1619V216.023ZM72.4801 206.364H73.7301C73.7301 206.977 73.518 207.479 73.0938 207.869C72.6695 208.259 72.0938 208.455 71.3665 208.455C70.6506 208.455 70.0805 208.259 69.6562 207.869C69.2358 207.479 69.0256 206.977 69.0256 206.364H70.2756C70.2756 206.659 70.357 206.919 70.5199 207.142C70.6866 207.366 70.9688 207.477 71.3665 207.477C71.7642 207.477 72.0483 207.366 72.2188 207.142C72.393 206.919 72.4801 206.659 72.4801 206.364ZM88.3452 206L89.027 206.818C88.7618 207.076 88.455 207.256 88.1065 207.358C87.758 207.46 87.3641 207.523 86.9247 207.545C86.4853 207.568 85.9967 207.591 85.4588 207.614C84.8527 207.636 84.3509 207.784 83.9531 208.057C83.5554 208.33 83.2486 208.723 83.0327 209.239C82.8168 209.754 82.6785 210.386 82.6179 211.136H82.7315C83.027 210.591 83.4361 210.189 83.9588 209.932C84.4815 209.674 85.0421 209.545 85.6406 209.545C86.3224 209.545 86.9361 209.705 87.4815 210.023C88.027 210.341 88.4588 210.812 88.777 211.438C89.0952 212.062 89.2543 212.833 89.2543 213.75C89.2543 214.663 89.0914 215.451 88.7656 216.114C88.4437 216.777 87.991 217.288 87.4077 217.648C86.8281 218.004 86.1482 218.182 85.3679 218.182C84.5876 218.182 83.9039 217.998 83.3168 217.631C82.7296 217.259 82.2732 216.71 81.9474 215.983C81.6217 215.252 81.4588 214.348 81.4588 213.273V212.341C81.4588 210.398 81.7884 208.924 82.4474 207.92C83.1103 206.917 84.1065 206.398 85.4361 206.364C85.9058 206.348 86.3243 206.345 86.6918 206.352C87.0592 206.36 87.3793 206.343 87.652 206.301C87.9247 206.259 88.1558 206.159 88.3452 206ZM85.3679 216.977C85.8944 216.977 86.3471 216.845 86.7259 216.58C87.1084 216.314 87.402 215.941 87.6065 215.46C87.8111 214.975 87.9134 214.405 87.9134 213.75C87.9134 213.114 87.8092 212.572 87.6009 212.125C87.3963 211.678 87.1027 211.337 86.7202 211.102C86.3376 210.867 85.8793 210.75 85.3452 210.75C84.955 210.75 84.6046 210.816 84.294 210.949C83.9834 211.081 83.7183 211.277 83.4986 211.534C83.2789 211.792 83.1084 212.106 82.9872 212.477C82.8698 212.848 82.8073 213.273 82.7997 213.75C82.7997 214.727 83.0289 215.509 83.4872 216.097C83.9455 216.684 84.5724 216.977 85.3679 216.977ZM92.6463 216.023L96.8509 209.273H98.3963V218H97.0554V211.25L92.8736 218H91.3054V209.273H92.6463V216.023ZM100.307 215.773H101.739C101.769 216.167 101.947 216.466 102.273 216.67C102.602 216.875 103.03 216.977 103.557 216.977C104.095 216.977 104.555 216.867 104.938 216.648C105.32 216.424 105.511 216.064 105.511 215.568C105.511 215.277 105.439 215.023 105.295 214.807C105.152 214.587 104.949 214.417 104.688 214.295C104.426 214.174 104.117 214.114 103.761 214.114H102.261V212.909H103.761C104.295 212.909 104.689 212.788 104.943 212.545C105.201 212.303 105.33 212 105.33 211.636C105.33 211.246 105.191 210.934 104.915 210.699C104.638 210.46 104.246 210.341 103.739 210.341C103.227 210.341 102.801 210.456 102.46 210.688C102.119 210.915 101.939 211.208 101.92 211.568H100.511C100.527 211.098 100.67 210.684 100.943 210.324C101.216 209.96 101.587 209.676 102.057 209.472C102.527 209.263 103.064 209.159 103.67 209.159C104.284 209.159 104.816 209.267 105.267 209.483C105.722 209.695 106.072 209.985 106.318 210.352C106.568 210.716 106.693 211.129 106.693 211.591C106.693 212.083 106.555 212.481 106.278 212.784C106.002 213.087 105.655 213.303 105.239 213.432V213.523C105.568 213.545 105.854 213.652 106.097 213.841C106.343 214.027 106.534 214.271 106.67 214.574C106.807 214.873 106.875 215.205 106.875 215.568C106.875 216.098 106.733 216.561 106.449 216.955C106.165 217.345 105.775 217.648 105.278 217.864C104.782 218.076 104.216 218.182 103.58 218.182C102.962 218.182 102.409 218.081 101.92 217.881C101.432 217.676 101.044 217.394 100.756 217.034C100.472 216.67 100.322 216.25 100.307 215.773ZM114.599 213.023V214.273H109.781V213.023H114.599ZM110.099 209.273V218H108.759V209.273H110.099ZM115.622 209.273V218H114.281V209.273H115.622ZM121.73 218.182C120.889 218.182 120.164 217.996 119.554 217.625C118.948 217.25 118.48 216.727 118.151 216.057C117.825 215.383 117.662 214.598 117.662 213.705C117.662 212.811 117.825 212.023 118.151 211.341C118.48 210.655 118.938 210.121 119.526 209.739C120.116 209.352 120.806 209.159 121.594 209.159C122.048 209.159 122.497 209.235 122.94 209.386C123.384 209.538 123.787 209.784 124.151 210.125C124.514 210.462 124.804 210.909 125.02 211.466C125.236 212.023 125.344 212.708 125.344 213.523V214.091H118.616V212.932H123.98C123.98 212.439 123.882 212 123.685 211.614C123.491 211.227 123.215 210.922 122.855 210.699C122.499 210.475 122.079 210.364 121.594 210.364C121.06 210.364 120.598 210.496 120.207 210.761C119.821 211.023 119.524 211.364 119.315 211.784C119.107 212.205 119.003 212.655 119.003 213.136V213.909C119.003 214.568 119.116 215.127 119.344 215.585C119.575 216.04 119.895 216.386 120.304 216.625C120.713 216.86 121.188 216.977 121.73 216.977C122.082 216.977 122.401 216.928 122.685 216.83C122.973 216.727 123.221 216.576 123.429 216.375C123.637 216.17 123.798 215.917 123.912 215.614L125.207 215.977C125.071 216.417 124.842 216.803 124.52 217.136C124.198 217.466 123.8 217.723 123.327 217.909C122.853 218.091 122.321 218.182 121.73 218.182ZM130.929 218.182C130.111 218.182 129.406 217.989 128.815 217.602C128.224 217.216 127.77 216.684 127.452 216.006C127.134 215.328 126.974 214.553 126.974 213.682C126.974 212.795 127.137 212.013 127.463 211.335C127.793 210.653 128.251 210.121 128.838 209.739C129.429 209.352 130.118 209.159 130.906 209.159C131.52 209.159 132.073 209.273 132.565 209.5C133.058 209.727 133.461 210.045 133.776 210.455C134.09 210.864 134.285 211.341 134.361 211.886H133.02C132.918 211.489 132.69 211.136 132.338 210.83C131.99 210.519 131.52 210.364 130.929 210.364C130.406 210.364 129.948 210.5 129.554 210.773C129.164 211.042 128.859 211.422 128.639 211.915C128.423 212.403 128.315 212.977 128.315 213.636C128.315 214.311 128.421 214.898 128.634 215.398C128.849 215.898 129.152 216.286 129.543 216.562C129.937 216.839 130.399 216.977 130.929 216.977C131.277 216.977 131.594 216.917 131.878 216.795C132.162 216.674 132.402 216.5 132.599 216.273C132.796 216.045 132.937 215.773 133.02 215.455H134.361C134.285 215.97 134.098 216.434 133.798 216.847C133.503 217.256 133.111 217.581 132.622 217.824C132.137 218.062 131.573 218.182 130.929 218.182ZM142.162 216.023L146.366 209.273H147.912V218H146.571V211.25L142.389 218H140.821V209.273H142.162V216.023ZM155.732 221.273C155.504 221.273 155.302 221.254 155.124 221.216C154.946 221.182 154.822 221.148 154.754 221.114L155.095 219.932C155.421 220.015 155.709 220.045 155.959 220.023C156.209 220 156.43 219.888 156.624 219.688C156.821 219.491 157 219.17 157.163 218.727L157.413 218.045L154.186 209.273H155.641L158.05 216.227H158.141L160.55 209.273H162.004L158.3 219.273C158.133 219.723 157.927 220.097 157.68 220.392C157.434 220.691 157.148 220.913 156.822 221.057C156.5 221.201 156.137 221.273 155.732 221.273ZM163.774 218V209.273H170.638V218H169.297V210.523H165.115V218H163.774ZM173.087 221.273V209.273H174.382V210.659H174.541C174.64 210.508 174.776 210.314 174.95 210.08C175.128 209.841 175.382 209.629 175.712 209.443C176.045 209.254 176.496 209.159 177.064 209.159C177.799 209.159 178.446 209.343 179.007 209.71C179.568 210.078 180.005 210.598 180.32 211.273C180.634 211.947 180.791 212.742 180.791 213.659C180.791 214.583 180.634 215.384 180.32 216.062C180.005 216.737 179.57 217.259 179.013 217.631C178.456 217.998 177.814 218.182 177.087 218.182C176.526 218.182 176.077 218.089 175.74 217.903C175.403 217.714 175.143 217.5 174.962 217.261C174.78 217.019 174.64 216.818 174.541 216.659H174.428V221.273H173.087ZM174.405 213.636C174.405 214.295 174.501 214.877 174.695 215.381C174.888 215.881 175.17 216.273 175.541 216.557C175.912 216.837 176.367 216.977 176.905 216.977C177.465 216.977 177.933 216.83 178.308 216.534C178.687 216.235 178.971 215.833 179.161 215.33C179.354 214.822 179.45 214.258 179.45 213.636C179.45 213.023 179.356 212.47 179.166 211.977C178.981 211.481 178.698 211.089 178.32 210.801C177.945 210.509 177.473 210.364 176.905 210.364C176.359 210.364 175.901 210.502 175.53 210.778C175.159 211.051 174.878 211.434 174.689 211.926C174.5 212.415 174.405 212.985 174.405 213.636ZM185.405 218.205C184.852 218.205 184.35 218.1 183.899 217.892C183.448 217.68 183.09 217.375 182.825 216.977C182.56 216.576 182.428 216.091 182.428 215.523C182.428 215.023 182.526 214.617 182.723 214.307C182.92 213.992 183.183 213.746 183.513 213.568C183.842 213.39 184.206 213.258 184.604 213.17C185.005 213.08 185.409 213.008 185.814 212.955C186.344 212.886 186.774 212.835 187.104 212.801C187.437 212.763 187.679 212.701 187.831 212.614C187.986 212.527 188.064 212.375 188.064 212.159V212.114C188.064 211.553 187.911 211.117 187.604 210.807C187.301 210.496 186.84 210.341 186.223 210.341C185.583 210.341 185.081 210.481 184.717 210.761C184.354 211.042 184.098 211.341 183.95 211.659L182.678 211.205C182.905 210.674 183.208 210.261 183.587 209.966C183.969 209.667 184.386 209.458 184.837 209.341C185.291 209.22 185.738 209.159 186.178 209.159C186.458 209.159 186.78 209.193 187.143 209.261C187.511 209.326 187.865 209.46 188.206 209.665C188.551 209.869 188.837 210.178 189.064 210.591C189.291 211.004 189.405 211.557 189.405 212.25V218H188.064V216.818H187.996C187.905 217.008 187.753 217.21 187.541 217.426C187.329 217.642 187.047 217.826 186.695 217.977C186.342 218.129 185.912 218.205 185.405 218.205ZM185.609 217C186.14 217 186.587 216.896 186.95 216.688C187.318 216.479 187.594 216.21 187.78 215.881C187.969 215.551 188.064 215.205 188.064 214.841V213.614C188.007 213.682 187.882 213.744 187.689 213.801C187.5 213.854 187.28 213.902 187.03 213.943C186.784 213.981 186.543 214.015 186.308 214.045C186.077 214.072 185.89 214.095 185.746 214.114C185.397 214.159 185.071 214.233 184.768 214.335C184.469 214.434 184.227 214.583 184.041 214.784C183.859 214.981 183.768 215.25 183.768 215.591C183.768 216.057 183.941 216.409 184.286 216.648C184.634 216.883 185.075 217 185.609 217ZM191.852 218V209.273H195.42C196.36 209.273 197.106 209.485 197.659 209.909C198.212 210.333 198.489 210.894 198.489 211.591C198.489 212.121 198.331 212.532 198.017 212.824C197.703 213.112 197.299 213.307 196.807 213.409C197.129 213.455 197.441 213.568 197.744 213.75C198.051 213.932 198.305 214.182 198.506 214.5C198.706 214.814 198.807 215.201 198.807 215.659C198.807 216.106 198.693 216.506 198.466 216.858C198.239 217.21 197.913 217.489 197.489 217.693C197.064 217.898 196.557 218 195.966 218H191.852ZM193.125 216.773H195.966C196.428 216.773 196.79 216.663 197.051 216.443C197.313 216.223 197.443 215.924 197.443 215.545C197.443 215.095 197.313 214.741 197.051 214.483C196.79 214.222 196.428 214.091 195.966 214.091H193.125V216.773ZM193.125 212.932H195.42C195.78 212.932 196.089 212.883 196.347 212.784C196.604 212.682 196.801 212.538 196.938 212.352C197.078 212.163 197.148 211.939 197.148 211.682C197.148 211.314 196.994 211.027 196.688 210.818C196.381 210.606 195.958 210.5 195.42 210.5H193.125V212.932ZM200.064 218V216.75H200.382C200.643 216.75 200.861 216.699 201.036 216.597C201.21 216.491 201.35 216.307 201.456 216.045C201.566 215.78 201.649 215.413 201.706 214.943C201.767 214.47 201.81 213.867 201.837 213.136L201.996 209.273H207.814V218H206.473V210.523H203.268L203.132 213.636C203.102 214.352 203.037 214.983 202.939 215.528C202.844 216.07 202.698 216.525 202.501 216.892C202.308 217.259 202.051 217.536 201.729 217.722C201.407 217.907 201.003 218 200.518 218H200.064ZM215.524 218V210.5H213.206C212.683 210.5 212.272 210.621 211.973 210.864C211.674 211.106 211.524 211.439 211.524 211.864C211.524 212.28 211.659 212.608 211.928 212.847C212.2 213.085 212.573 213.205 213.047 213.205H215.865V214.455H213.047C212.456 214.455 211.946 214.35 211.518 214.142C211.09 213.934 210.761 213.636 210.53 213.25C210.299 212.86 210.183 212.398 210.183 211.864C210.183 211.326 210.304 210.864 210.547 210.477C210.789 210.091 211.136 209.794 211.587 209.585C212.041 209.377 212.581 209.273 213.206 209.273H216.797V218H215.524ZM209.706 218L212.183 213.659H213.638L211.161 218H209.706ZM220.599 216.023L224.804 209.273H226.349V218H225.009V211.25L220.827 218H219.259V209.273H220.599V216.023ZM223.918 206.364H225.168C225.168 206.977 224.955 207.479 224.531 207.869C224.107 208.259 223.531 208.455 222.804 208.455C222.088 208.455 221.518 208.259 221.094 207.869C220.673 207.479 220.463 206.977 220.463 206.364H221.713C221.713 206.659 221.795 206.919 221.957 207.142C222.124 207.366 222.406 207.477 222.804 207.477C223.202 207.477 223.486 207.366 223.656 207.142C223.83 206.919 223.918 206.659 223.918 206.364ZM234.646 216.023L238.851 209.273H240.396V218H239.055V211.25L234.874 218H233.305V209.273H234.646V216.023ZM247.625 216.182L250.67 209.273H251.943L248.17 218H247.08L243.375 209.273H244.625L247.625 216.182ZM244.193 209.273V218H242.852V209.273H244.193ZM251.057 218V209.273H252.398V218H251.057ZM259.352 218V209.273H262.92C263.86 209.273 264.606 209.485 265.159 209.909C265.712 210.333 265.989 210.894 265.989 211.591C265.989 212.121 265.831 212.532 265.517 212.824C265.203 213.112 264.799 213.307 264.307 213.409C264.629 213.455 264.941 213.568 265.244 213.75C265.551 213.932 265.805 214.182 266.006 214.5C266.206 214.814 266.307 215.201 266.307 215.659C266.307 216.106 266.193 216.506 265.966 216.858C265.739 217.21 265.413 217.489 264.989 217.693C264.564 217.898 264.057 218 263.466 218H259.352ZM260.625 216.773H263.466C263.928 216.773 264.29 216.663 264.551 216.443C264.813 216.223 264.943 215.924 264.943 215.545C264.943 215.095 264.813 214.741 264.551 214.483C264.29 214.222 263.928 214.091 263.466 214.091H260.625V216.773ZM260.625 212.932H262.92C263.28 212.932 263.589 212.883 263.847 212.784C264.104 212.682 264.301 212.538 264.438 212.352C264.578 212.163 264.648 211.939 264.648 211.682C264.648 211.314 264.494 211.027 264.188 210.818C263.881 210.606 263.458 210.5 262.92 210.5H260.625V212.932ZM276.382 218.182C275.594 218.182 274.903 217.994 274.308 217.619C273.717 217.244 273.255 216.72 272.922 216.045C272.592 215.371 272.428 214.583 272.428 213.682C272.428 212.773 272.592 211.979 272.922 211.301C273.255 210.623 273.717 210.097 274.308 209.722C274.903 209.347 275.594 209.159 276.382 209.159C277.17 209.159 277.859 209.347 278.45 209.722C279.045 210.097 279.507 210.623 279.837 211.301C280.17 211.979 280.337 212.773 280.337 213.682C280.337 214.583 280.17 215.371 279.837 216.045C279.507 216.72 279.045 217.244 278.45 217.619C277.859 217.994 277.17 218.182 276.382 218.182ZM276.382 216.977C276.981 216.977 277.473 216.824 277.859 216.517C278.246 216.21 278.532 215.807 278.717 215.307C278.903 214.807 278.996 214.265 278.996 213.682C278.996 213.098 278.903 212.555 278.717 212.051C278.532 211.547 278.246 211.14 277.859 210.83C277.473 210.519 276.981 210.364 276.382 210.364C275.784 210.364 275.291 210.519 274.905 210.83C274.518 211.14 274.232 211.547 274.047 212.051C273.861 212.555 273.768 213.098 273.768 213.682C273.768 214.265 273.861 214.807 274.047 215.307C274.232 215.807 274.518 216.21 274.905 216.517C275.291 216.824 275.784 216.977 276.382 216.977ZM281.452 220.5V216.75H282.179C282.357 216.564 282.51 216.364 282.639 216.148C282.768 215.932 282.88 215.676 282.974 215.381C283.073 215.081 283.156 214.718 283.224 214.29C283.293 213.858 283.353 213.337 283.406 212.727L283.702 209.273H289.247V216.75H290.588V220.5H289.247V218H282.793V220.5H281.452ZM283.702 216.75H287.906V210.523H284.952L284.724 212.727C284.63 213.64 284.512 214.437 284.372 215.119C284.232 215.801 284.009 216.345 283.702 216.75ZM298.209 213.023V214.273H293.391V213.023H298.209ZM293.709 209.273V218H292.368V209.273H293.709ZM299.232 209.273V218H297.891V209.273H299.232ZM305.226 218.182C304.438 218.182 303.747 217.994 303.152 217.619C302.561 217.244 302.099 216.72 301.766 216.045C301.436 215.371 301.271 214.583 301.271 213.682C301.271 212.773 301.436 211.979 301.766 211.301C302.099 210.623 302.561 210.097 303.152 209.722C303.747 209.347 304.438 209.159 305.226 209.159C306.014 209.159 306.703 209.347 307.294 209.722C307.889 210.097 308.351 210.623 308.68 211.301C309.014 211.979 309.18 212.773 309.18 213.682C309.18 214.583 309.014 215.371 308.68 216.045C308.351 216.72 307.889 217.244 307.294 217.619C306.703 217.994 306.014 218.182 305.226 218.182ZM305.226 216.977C305.824 216.977 306.317 216.824 306.703 216.517C307.089 216.21 307.375 215.807 307.561 215.307C307.747 214.807 307.839 214.265 307.839 213.682C307.839 213.098 307.747 212.555 307.561 212.051C307.375 211.547 307.089 211.14 306.703 210.83C306.317 210.519 305.824 210.364 305.226 210.364C304.627 210.364 304.135 210.519 303.749 210.83C303.362 211.14 303.076 211.547 302.891 212.051C302.705 212.555 302.612 213.098 302.612 213.682C302.612 214.265 302.705 214.807 302.891 215.307C303.076 215.807 303.362 216.21 303.749 216.517C304.135 216.824 304.627 216.977 305.226 216.977ZM316 216.182L319.045 209.273H320.318L316.545 218H315.455L311.75 209.273H313L316 216.182ZM312.568 209.273V218H311.227V209.273H312.568ZM319.432 218V209.273H320.773V218H319.432ZM332.5 216.182L335.545 209.273H336.818L333.045 218H331.955L328.25 209.273H329.5L332.5 216.182ZM329.068 209.273V218H327.727V209.273H329.068ZM335.932 218V209.273H337.273V218H335.932ZM343.386 218.182C342.545 218.182 341.82 217.996 341.21 217.625C340.604 217.25 340.136 216.727 339.807 216.057C339.481 215.383 339.318 214.598 339.318 213.705C339.318 212.811 339.481 212.023 339.807 211.341C340.136 210.655 340.595 210.121 341.182 209.739C341.773 209.352 342.462 209.159 343.25 209.159C343.705 209.159 344.153 209.235 344.597 209.386C345.04 209.538 345.443 209.784 345.807 210.125C346.17 210.462 346.46 210.909 346.676 211.466C346.892 212.023 347 212.708 347 213.523V214.091H340.273V212.932H345.636C345.636 212.439 345.538 212 345.341 211.614C345.148 211.227 344.871 210.922 344.511 210.699C344.155 210.475 343.735 210.364 343.25 210.364C342.716 210.364 342.254 210.496 341.864 210.761C341.477 211.023 341.18 211.364 340.972 211.784C340.763 212.205 340.659 212.655 340.659 213.136V213.909C340.659 214.568 340.773 215.127 341 215.585C341.231 216.04 341.551 216.386 341.96 216.625C342.369 216.86 342.845 216.977 343.386 216.977C343.739 216.977 344.057 216.928 344.341 216.83C344.629 216.727 344.877 216.576 345.085 216.375C345.294 216.17 345.455 215.917 345.568 215.614L346.864 215.977C346.727 216.417 346.498 216.803 346.176 217.136C345.854 217.466 345.456 217.723 344.983 217.909C344.509 218.091 343.977 218.182 343.386 218.182ZM352.585 218.182C351.767 218.182 351.063 217.989 350.472 217.602C349.881 217.216 349.426 216.684 349.108 216.006C348.79 215.328 348.631 214.553 348.631 213.682C348.631 212.795 348.794 212.013 349.119 211.335C349.449 210.653 349.907 210.121 350.494 209.739C351.085 209.352 351.775 209.159 352.562 209.159C353.176 209.159 353.729 209.273 354.222 209.5C354.714 209.727 355.117 210.045 355.432 210.455C355.746 210.864 355.941 211.341 356.017 211.886H354.676C354.574 211.489 354.347 211.136 353.994 210.83C353.646 210.519 353.176 210.364 352.585 210.364C352.063 210.364 351.604 210.5 351.21 210.773C350.82 211.042 350.515 211.422 350.295 211.915C350.08 212.403 349.972 212.977 349.972 213.636C349.972 214.311 350.078 214.898 350.29 215.398C350.506 215.898 350.809 216.286 351.199 216.562C351.593 216.839 352.055 216.977 352.585 216.977C352.934 216.977 353.25 216.917 353.534 216.795C353.818 216.674 354.059 216.5 354.256 216.273C354.453 216.045 354.593 215.773 354.676 215.455H356.017C355.941 215.97 355.754 216.434 355.455 216.847C355.159 217.256 354.767 217.581 354.278 217.824C353.794 218.062 353.229 218.182 352.585 218.182ZM357.29 210.523V209.273H364.381V210.523H361.517V218H360.176V210.523H357.29ZM369.543 218.182C368.702 218.182 367.976 217.996 367.366 217.625C366.76 217.25 366.293 216.727 365.963 216.057C365.637 215.383 365.474 214.598 365.474 213.705C365.474 212.811 365.637 212.023 365.963 211.341C366.293 210.655 366.751 210.121 367.338 209.739C367.929 209.352 368.618 209.159 369.406 209.159C369.861 209.159 370.31 209.235 370.753 209.386C371.196 209.538 371.599 209.784 371.963 210.125C372.327 210.462 372.616 210.909 372.832 211.466C373.048 212.023 373.156 212.708 373.156 213.523V214.091H366.429V212.932H371.793C371.793 212.439 371.694 212 371.497 211.614C371.304 211.227 371.027 210.922 370.668 210.699C370.312 210.475 369.891 210.364 369.406 210.364C368.872 210.364 368.41 210.496 368.02 210.761C367.634 211.023 367.336 211.364 367.128 211.784C366.92 212.205 366.815 212.655 366.815 213.136V213.909C366.815 214.568 366.929 215.127 367.156 215.585C367.387 216.04 367.707 216.386 368.116 216.625C368.526 216.86 369.001 216.977 369.543 216.977C369.895 216.977 370.213 216.928 370.497 216.83C370.785 216.727 371.033 216.576 371.241 216.375C371.45 216.17 371.611 215.917 371.724 215.614L373.02 215.977C372.884 216.417 372.654 216.803 372.332 217.136C372.01 217.466 371.613 217.723 371.139 217.909C370.666 218.091 370.134 218.182 369.543 218.182Z" fill="#28384B"/>
</svg>
