<svg width="682" height="490" viewBox="0 0 682 490" fill="none" xmlns="http://www.w3.org/2000/svg">
<g filter="url(#filter0_f_405_178)">
<path d="M265.692 67.092C294.171 59.8195 324.554 50.05 352.424 59.3901C380.048 68.6483 392.584 100.484 416.208 117.536C440.495 135.067 480.612 134.134 493.459 161.192C506.419 188.487 481.941 219.447 478.869 249.507C476.195 275.675 485.618 302.729 476.477 327.394C467.164 352.524 446.274 370.864 426.995 389.481C406.746 409.034 386.345 428.837 360.318 439.558C332.621 450.967 302.303 457.072 272.616 453.074C242.23 448.982 212.556 436.71 189.458 416.549C166.831 396.798 155.236 368.012 143.493 340.369C132.291 313.998 119.703 286.751 122.194 258.208C124.625 230.348 146.652 209.022 157.214 183.128C168.2 156.197 166.091 123.147 185.953 101.901C206.011 80.4462 237.236 74.3589 265.692 67.092Z" fill="url(#paint0_linear_405_178)"/>
</g>
<g opacity="0.5" filter="url(#filter1_bdiii_405_178)">
<ellipse cx="167" cy="230.351" rx="96.5" ry="114.83" fill="white" fill-opacity="0.1" shape-rendering="crispEdges"/>
</g>
<path d="M229.227 208.494C236.044 208.494 241.622 210.807 245.961 215.434C250.299 220.06 252.469 226.158 252.469 233.729C252.469 241.277 250.288 247.353 245.928 251.957C241.567 256.539 236 258.83 229.227 258.83C222.21 258.83 216.565 256.451 212.293 251.691C208.021 246.932 205.885 241.122 205.885 234.26C205.885 226.269 208.043 219.982 212.359 215.4C216.698 210.796 222.32 208.494 229.227 208.494ZM229.16 253.318C234.096 253.318 238.092 251.592 241.146 248.139C244.223 244.686 245.773 239.882 245.795 233.729C245.795 227.398 244.223 222.528 241.08 219.119C237.959 215.71 234.03 214.006 229.293 214.006C224.423 214.006 220.417 215.677 217.273 219.02C214.13 222.362 212.559 227.486 212.559 234.393C212.559 240.037 214.097 244.608 217.174 248.105C220.251 251.581 224.246 253.318 229.16 253.318ZM288.959 258H282.949V236.584C282.949 232.976 282.296 230.497 280.99 229.146C279.706 227.796 277.913 227.121 275.611 227.121C273.84 227.121 272.158 227.553 270.564 228.416C268.993 229.279 267.875 230.497 267.211 232.068C266.547 233.64 266.215 235.865 266.215 238.742V258H260.238V222.771H265.617V227.752H265.75C267.012 225.826 268.561 224.387 270.398 223.436C272.258 222.462 274.405 221.975 276.84 221.975C278.699 221.975 280.536 222.307 282.352 222.971C284.167 223.635 285.583 224.631 286.602 225.959C287.642 227.287 288.295 228.704 288.561 230.209C288.826 231.714 288.959 233.751 288.959 236.318V258ZM328.637 241.896H302.24C302.484 245.792 303.59 248.77 305.561 250.828C307.553 252.887 310.032 253.916 312.998 253.916C315.278 253.916 317.193 253.318 318.742 252.123C320.292 250.906 321.476 249.079 322.295 246.645L328.438 247.408C327.441 251.083 325.615 253.905 322.959 255.875C320.303 257.845 316.982 258.83 312.998 258.83C307.708 258.83 303.568 257.214 300.58 253.982C297.614 250.729 296.131 246.29 296.131 240.668C296.131 235.112 297.57 230.607 300.447 227.154C303.347 223.701 307.42 221.975 312.666 221.975C315.234 221.975 317.702 222.539 320.07 223.668C322.461 224.797 324.486 226.723 326.146 229.445C327.807 232.146 328.637 236.296 328.637 241.896ZM322.494 236.982C322.251 233.396 321.133 230.818 319.141 229.246C317.171 227.652 315.012 226.855 312.666 226.855C309.855 226.855 307.542 227.796 305.727 229.678C303.911 231.559 302.86 233.994 302.572 236.982H322.494ZM365.459 223.602C365.193 220.503 364.076 218.178 362.105 216.629C360.135 215.057 357.313 214.271 353.639 214.271C350.318 214.271 347.618 214.891 345.537 216.131C343.456 217.37 342.416 219.174 342.416 221.543C342.416 223.646 343.213 225.217 344.807 226.258C346.423 227.276 349.499 228.294 354.037 229.312C358.066 230.198 361.353 231.105 363.898 232.035C366.444 232.965 368.624 234.415 370.439 236.385C372.255 238.333 373.162 240.956 373.162 244.254C373.162 248.438 371.491 251.913 368.148 254.68C364.828 257.447 360.49 258.83 355.133 258.83C348.293 258.83 343.169 257.303 339.76 254.248C336.373 251.193 334.58 247.231 334.381 242.361L340.49 241.83C340.778 245.726 342.283 248.57 345.006 250.363C347.729 252.134 351.016 253.02 354.867 253.02C358.475 253.02 361.386 252.278 363.6 250.795C365.835 249.312 366.953 247.298 366.953 244.752C366.953 242.096 365.791 240.159 363.467 238.941C361.143 237.724 357.236 236.529 351.746 235.355C346.279 234.16 342.339 232.489 339.926 230.342C337.513 228.195 336.307 225.406 336.307 221.975C336.307 218.079 337.834 214.858 340.889 212.312C343.943 209.767 348.105 208.494 353.373 208.494C358.774 208.494 363.113 209.767 366.389 212.312C369.687 214.836 371.436 218.433 371.635 223.104L365.459 223.602ZM411.844 241.896H385.447C385.691 245.792 386.798 248.77 388.768 250.828C390.76 252.887 393.239 253.916 396.205 253.916C398.485 253.916 400.4 253.318 401.949 252.123C403.499 250.906 404.683 249.079 405.502 246.645L411.645 247.408C410.648 251.083 408.822 253.905 406.166 255.875C403.51 257.845 400.189 258.83 396.205 258.83C390.915 258.83 386.775 257.214 383.787 253.982C380.821 250.729 379.338 246.29 379.338 240.668C379.338 235.112 380.777 230.607 383.654 227.154C386.554 223.701 390.627 221.975 395.873 221.975C398.441 221.975 400.909 222.539 403.277 223.668C405.668 224.797 407.693 226.723 409.354 229.445C411.014 232.146 411.844 236.296 411.844 241.896ZM405.701 236.982C405.458 233.396 404.34 230.818 402.348 229.246C400.378 227.652 398.219 226.855 395.873 226.855C393.062 226.855 390.749 227.796 388.934 229.678C387.118 231.559 386.067 233.994 385.779 236.982H405.701ZM425.059 258H419.082V209.324H425.059V258ZM450.824 209.092L449.928 214.338C448.732 214.117 447.559 214.006 446.408 214.006C444.969 214.006 443.785 214.316 442.855 214.936C441.948 215.533 441.494 217.038 441.494 219.451V222.771H448.301V227.387H441.494V258H435.518V227.387H430.205V222.771H435.518V218.953C435.518 217.182 435.684 215.577 436.016 214.139C436.348 212.7 437.222 211.405 438.639 210.254C440.077 209.081 442.28 208.494 445.246 208.494C447.017 208.494 448.876 208.693 450.824 209.092ZM477.154 242.428C477.154 248.382 475.948 252.61 473.535 255.111C471.145 257.59 467.802 258.83 463.508 258.83C459.147 258.83 455.871 257.613 453.68 255.178C451.51 252.721 450.426 249.035 450.426 244.121L456.203 243.324C456.247 246.556 456.878 248.98 458.096 250.596C459.313 252.212 461.117 253.02 463.508 253.02C465.699 253.02 467.326 252.499 468.389 251.459C469.451 250.419 470.104 249.223 470.348 247.873C470.591 246.501 470.713 244.796 470.713 242.76V209.324H477.154V242.428ZM501.492 221.975C506.251 221.975 510.191 223.524 513.312 226.623C516.456 229.722 518.027 234.127 518.027 239.838C518.027 246.766 516.334 251.669 512.947 254.547C509.561 257.402 505.742 258.83 501.492 258.83C497.043 258.83 493.18 257.358 489.904 254.414C486.628 251.47 484.99 246.799 484.99 240.402C484.99 234.204 486.573 229.589 489.738 226.557C492.904 223.502 496.822 221.975 501.492 221.975ZM501.492 253.916C504.901 253.916 507.491 252.654 509.262 250.131C511.033 247.607 511.918 244.287 511.918 240.17C511.918 235.765 510.911 232.445 508.896 230.209C506.904 227.973 504.436 226.855 501.492 226.855C498.46 226.855 495.969 227.995 494.021 230.275C492.074 232.533 491.1 235.909 491.1 240.402C491.1 244.874 492.085 248.249 494.055 250.529C496.047 252.787 498.526 253.916 501.492 253.916ZM531.143 226.723C533.356 223.557 536.521 221.975 540.639 221.975C545.176 221.975 548.807 223.624 551.529 226.922C554.252 230.22 555.613 234.525 555.613 239.838C555.613 245.969 554.086 250.673 551.031 253.949C547.999 257.203 544.446 258.83 540.373 258.83C536.234 258.83 533.013 257.081 530.711 253.584H530.578V258H525V209.324H530.977V226.723H531.143ZM539.908 253.916C542.675 253.916 544.955 252.732 546.748 250.363C548.563 247.973 549.471 244.63 549.471 240.336C549.471 236.197 548.641 232.921 546.98 230.508C545.32 228.073 543.029 226.855 540.107 226.855C537.23 226.855 534.906 228.106 533.135 230.607C531.386 233.109 530.512 236.274 530.512 240.104C530.512 243.844 530.877 246.512 531.607 248.105C532.338 249.677 533.434 251.038 534.895 252.189C536.378 253.34 538.049 253.916 539.908 253.916Z" fill="#28384B"/>
<path d="M229.227 208.494C236.044 208.494 241.622 210.807 245.961 215.434C250.299 220.06 252.469 226.158 252.469 233.729C252.469 241.277 250.288 247.353 245.928 251.957C241.567 256.539 236 258.83 229.227 258.83C222.21 258.83 216.565 256.451 212.293 251.691C208.021 246.932 205.885 241.122 205.885 234.26C205.885 226.269 208.043 219.982 212.359 215.4C216.698 210.796 222.32 208.494 229.227 208.494ZM229.16 253.318C234.096 253.318 238.092 251.592 241.146 248.139C244.223 244.686 245.773 239.882 245.795 233.729C245.795 227.398 244.223 222.528 241.08 219.119C237.959 215.71 234.03 214.006 229.293 214.006C224.423 214.006 220.417 215.677 217.273 219.02C214.13 222.362 212.559 227.486 212.559 234.393C212.559 240.037 214.097 244.608 217.174 248.105C220.251 251.581 224.246 253.318 229.16 253.318ZM288.959 258H282.949V236.584C282.949 232.976 282.296 230.497 280.99 229.146C279.706 227.796 277.913 227.121 275.611 227.121C273.84 227.121 272.158 227.553 270.564 228.416C268.993 229.279 267.875 230.497 267.211 232.068C266.547 233.64 266.215 235.865 266.215 238.742V258H260.238V222.771H265.617V227.752H265.75C267.012 225.826 268.561 224.387 270.398 223.436C272.258 222.462 274.405 221.975 276.84 221.975C278.699 221.975 280.536 222.307 282.352 222.971C284.167 223.635 285.583 224.631 286.602 225.959C287.642 227.287 288.295 228.704 288.561 230.209C288.826 231.714 288.959 233.751 288.959 236.318V258ZM328.637 241.896H302.24C302.484 245.792 303.59 248.77 305.561 250.828C307.553 252.887 310.032 253.916 312.998 253.916C315.278 253.916 317.193 253.318 318.742 252.123C320.292 250.906 321.476 249.079 322.295 246.645L328.438 247.408C327.441 251.083 325.615 253.905 322.959 255.875C320.303 257.845 316.982 258.83 312.998 258.83C307.708 258.83 303.568 257.214 300.58 253.982C297.614 250.729 296.131 246.29 296.131 240.668C296.131 235.112 297.57 230.607 300.447 227.154C303.347 223.701 307.42 221.975 312.666 221.975C315.234 221.975 317.702 222.539 320.07 223.668C322.461 224.797 324.486 226.723 326.146 229.445C327.807 232.146 328.637 236.296 328.637 241.896ZM322.494 236.982C322.251 233.396 321.133 230.818 319.141 229.246C317.171 227.652 315.012 226.855 312.666 226.855C309.855 226.855 307.542 227.796 305.727 229.678C303.911 231.559 302.86 233.994 302.572 236.982H322.494ZM365.459 223.602C365.193 220.503 364.076 218.178 362.105 216.629C360.135 215.057 357.313 214.271 353.639 214.271C350.318 214.271 347.618 214.891 345.537 216.131C343.456 217.37 342.416 219.174 342.416 221.543C342.416 223.646 343.213 225.217 344.807 226.258C346.423 227.276 349.499 228.294 354.037 229.312C358.066 230.198 361.353 231.105 363.898 232.035C366.444 232.965 368.624 234.415 370.439 236.385C372.255 238.333 373.162 240.956 373.162 244.254C373.162 248.438 371.491 251.913 368.148 254.68C364.828 257.447 360.49 258.83 355.133 258.83C348.293 258.83 343.169 257.303 339.76 254.248C336.373 251.193 334.58 247.231 334.381 242.361L340.49 241.83C340.778 245.726 342.283 248.57 345.006 250.363C347.729 252.134 351.016 253.02 354.867 253.02C358.475 253.02 361.386 252.278 363.6 250.795C365.835 249.312 366.953 247.298 366.953 244.752C366.953 242.096 365.791 240.159 363.467 238.941C361.143 237.724 357.236 236.529 351.746 235.355C346.279 234.16 342.339 232.489 339.926 230.342C337.513 228.195 336.307 225.406 336.307 221.975C336.307 218.079 337.834 214.858 340.889 212.312C343.943 209.767 348.105 208.494 353.373 208.494C358.774 208.494 363.113 209.767 366.389 212.312C369.687 214.836 371.436 218.433 371.635 223.104L365.459 223.602ZM411.844 241.896H385.447C385.691 245.792 386.798 248.77 388.768 250.828C390.76 252.887 393.239 253.916 396.205 253.916C398.485 253.916 400.4 253.318 401.949 252.123C403.499 250.906 404.683 249.079 405.502 246.645L411.645 247.408C410.648 251.083 408.822 253.905 406.166 255.875C403.51 257.845 400.189 258.83 396.205 258.83C390.915 258.83 386.775 257.214 383.787 253.982C380.821 250.729 379.338 246.29 379.338 240.668C379.338 235.112 380.777 230.607 383.654 227.154C386.554 223.701 390.627 221.975 395.873 221.975C398.441 221.975 400.909 222.539 403.277 223.668C405.668 224.797 407.693 226.723 409.354 229.445C411.014 232.146 411.844 236.296 411.844 241.896ZM405.701 236.982C405.458 233.396 404.34 230.818 402.348 229.246C400.378 227.652 398.219 226.855 395.873 226.855C393.062 226.855 390.749 227.796 388.934 229.678C387.118 231.559 386.067 233.994 385.779 236.982H405.701ZM425.059 258H419.082V209.324H425.059V258ZM450.824 209.092L449.928 214.338C448.732 214.117 447.559 214.006 446.408 214.006C444.969 214.006 443.785 214.316 442.855 214.936C441.948 215.533 441.494 217.038 441.494 219.451V222.771H448.301V227.387H441.494V258H435.518V227.387H430.205V222.771H435.518V218.953C435.518 217.182 435.684 215.577 436.016 214.139C436.348 212.7 437.222 211.405 438.639 210.254C440.077 209.081 442.28 208.494 445.246 208.494C447.017 208.494 448.876 208.693 450.824 209.092ZM477.154 242.428C477.154 248.382 475.948 252.61 473.535 255.111C471.145 257.59 467.802 258.83 463.508 258.83C459.147 258.83 455.871 257.613 453.68 255.178C451.51 252.721 450.426 249.035 450.426 244.121L456.203 243.324C456.247 246.556 456.878 248.98 458.096 250.596C459.313 252.212 461.117 253.02 463.508 253.02C465.699 253.02 467.326 252.499 468.389 251.459C469.451 250.419 470.104 249.223 470.348 247.873C470.591 246.501 470.713 244.796 470.713 242.76V209.324H477.154V242.428ZM501.492 221.975C506.251 221.975 510.191 223.524 513.312 226.623C516.456 229.722 518.027 234.127 518.027 239.838C518.027 246.766 516.334 251.669 512.947 254.547C509.561 257.402 505.742 258.83 501.492 258.83C497.043 258.83 493.18 257.358 489.904 254.414C486.628 251.47 484.99 246.799 484.99 240.402C484.99 234.204 486.573 229.589 489.738 226.557C492.904 223.502 496.822 221.975 501.492 221.975ZM501.492 253.916C504.901 253.916 507.491 252.654 509.262 250.131C511.033 247.607 511.918 244.287 511.918 240.17C511.918 235.765 510.911 232.445 508.896 230.209C506.904 227.973 504.436 226.855 501.492 226.855C498.46 226.855 495.969 227.995 494.021 230.275C492.074 232.533 491.1 235.909 491.1 240.402C491.1 244.874 492.085 248.249 494.055 250.529C496.047 252.787 498.526 253.916 501.492 253.916ZM531.143 226.723C533.356 223.557 536.521 221.975 540.639 221.975C545.176 221.975 548.807 223.624 551.529 226.922C554.252 230.22 555.613 234.525 555.613 239.838C555.613 245.969 554.086 250.673 551.031 253.949C547.999 257.203 544.446 258.83 540.373 258.83C536.234 258.83 533.013 257.081 530.711 253.584H530.578V258H525V209.324H530.977V226.723H531.143ZM539.908 253.916C542.675 253.916 544.955 252.732 546.748 250.363C548.563 247.973 549.471 244.63 549.471 240.336C549.471 236.197 548.641 232.921 546.98 230.508C545.32 228.073 543.029 226.855 540.107 226.855C537.23 226.855 534.906 228.106 533.135 230.607C531.386 233.109 530.512 236.274 530.512 240.104C530.512 243.844 530.877 246.512 531.607 248.105C532.338 249.677 533.434 251.038 534.895 252.189C536.378 253.34 538.049 253.916 539.908 253.916Z" fill="#28384B"/>
<path d="M233.327 297.099H230.509C230.342 296.288 230.05 295.576 229.634 294.963C229.224 294.349 228.724 293.834 228.134 293.417C227.55 292.993 226.902 292.675 226.19 292.463C225.478 292.25 224.736 292.144 223.963 292.144C222.554 292.144 221.277 292.5 220.134 293.213C218.997 293.925 218.092 294.974 217.418 296.36C216.751 297.747 216.418 299.447 216.418 301.463C216.418 303.478 216.751 305.178 217.418 306.565C218.092 307.951 218.997 309 220.134 309.713C221.277 310.425 222.554 310.781 223.963 310.781C224.736 310.781 225.478 310.675 226.19 310.463C226.902 310.25 227.55 309.936 228.134 309.519C228.724 309.095 229.224 308.576 229.634 307.963C230.05 307.341 230.342 306.629 230.509 305.826H233.327C233.115 307.016 232.728 308.08 232.168 309.019C231.607 309.959 230.91 310.758 230.077 311.417C229.243 312.069 228.308 312.565 227.27 312.906C226.24 313.247 225.137 313.417 223.963 313.417C221.978 313.417 220.213 312.932 218.668 311.963C217.122 310.993 215.906 309.614 215.02 307.826C214.134 306.038 213.69 303.917 213.69 301.463C213.69 299.008 214.134 296.887 215.02 295.099C215.906 293.311 217.122 291.932 218.668 290.963C220.213 289.993 221.978 289.508 223.963 289.508C225.137 289.508 226.24 289.678 227.27 290.019C228.308 290.36 229.243 290.86 230.077 291.519C230.91 292.171 231.607 292.966 232.168 293.906C232.728 294.838 233.115 295.902 233.327 297.099ZM244.608 313.463C243.032 313.463 241.65 313.088 240.46 312.338C239.278 311.588 238.354 310.538 237.688 309.19C237.028 307.841 236.699 306.266 236.699 304.463C236.699 302.644 237.028 301.057 237.688 299.701C238.354 298.345 239.278 297.292 240.46 296.542C241.65 295.792 243.032 295.417 244.608 295.417C246.184 295.417 247.563 295.792 248.744 296.542C249.934 297.292 250.858 298.345 251.517 299.701C252.184 301.057 252.517 302.644 252.517 304.463C252.517 306.266 252.184 307.841 251.517 309.19C250.858 310.538 249.934 311.588 248.744 312.338C247.563 313.088 246.184 313.463 244.608 313.463ZM244.608 311.053C245.805 311.053 246.79 310.747 247.562 310.133C248.335 309.519 248.907 308.713 249.278 307.713C249.65 306.713 249.835 305.629 249.835 304.463C249.835 303.296 249.65 302.209 249.278 301.201C248.907 300.194 248.335 299.379 247.562 298.758C246.79 298.137 245.805 297.826 244.608 297.826C243.411 297.826 242.426 298.137 241.653 298.758C240.881 299.379 240.309 300.194 239.938 301.201C239.566 302.209 239.381 303.296 239.381 304.463C239.381 305.629 239.566 306.713 239.938 307.713C240.309 308.713 240.881 309.519 241.653 310.133C242.426 310.747 243.411 311.053 244.608 311.053ZM255.52 308.644H258.384C258.444 309.432 258.8 310.031 259.452 310.44C260.111 310.849 260.967 311.053 262.02 311.053C263.096 311.053 264.016 310.834 264.781 310.394C265.546 309.947 265.929 309.228 265.929 308.235C265.929 307.652 265.785 307.144 265.497 306.713C265.209 306.273 264.804 305.932 264.281 305.69C263.759 305.447 263.141 305.326 262.429 305.326H259.429V302.917H262.429C263.497 302.917 264.285 302.675 264.793 302.19C265.308 301.705 265.565 301.099 265.565 300.372C265.565 299.591 265.289 298.966 264.736 298.497C264.183 298.019 263.399 297.781 262.384 297.781C261.361 297.781 260.509 298.012 259.827 298.474C259.145 298.928 258.785 299.516 258.747 300.235H255.929C255.959 299.296 256.247 298.466 256.793 297.747C257.338 297.019 258.08 296.451 259.02 296.042C259.959 295.625 261.035 295.417 262.247 295.417C263.474 295.417 264.539 295.633 265.44 296.065C266.349 296.489 267.05 297.069 267.543 297.803C268.043 298.531 268.293 299.356 268.293 300.281C268.293 301.266 268.016 302.061 267.463 302.667C266.91 303.273 266.217 303.705 265.384 303.963V304.144C266.043 304.19 266.615 304.402 267.099 304.781C267.592 305.152 267.974 305.641 268.247 306.247C268.52 306.845 268.656 307.508 268.656 308.235C268.656 309.296 268.372 310.22 267.804 311.008C267.236 311.788 266.455 312.394 265.463 312.826C264.471 313.25 263.338 313.463 262.065 313.463C260.83 313.463 259.724 313.262 258.747 312.86C257.77 312.451 256.993 311.887 256.418 311.167C255.849 310.44 255.55 309.599 255.52 308.644ZM270.56 318.099V310.599H272.014C272.37 310.228 272.677 309.826 272.935 309.394C273.192 308.963 273.416 308.451 273.605 307.86C273.802 307.262 273.969 306.534 274.105 305.678C274.241 304.815 274.363 303.773 274.469 302.553L275.06 295.644H286.151V310.599H288.832V318.099H286.151V313.099H273.241V318.099H270.56ZM275.06 310.599H283.469V298.144H277.56L277.105 302.553C276.916 304.379 276.681 305.974 276.401 307.338C276.12 308.701 275.673 309.788 275.06 310.599ZM297.528 313.508C296.422 313.508 295.419 313.3 294.517 312.883C293.616 312.459 292.9 311.849 292.369 311.053C291.839 310.25 291.574 309.281 291.574 308.144C291.574 307.144 291.771 306.334 292.165 305.713C292.559 305.084 293.085 304.591 293.744 304.235C294.403 303.879 295.131 303.614 295.926 303.44C296.729 303.258 297.536 303.114 298.347 303.008C299.407 302.872 300.267 302.769 300.926 302.701C301.593 302.625 302.078 302.5 302.381 302.326C302.691 302.152 302.847 301.849 302.847 301.417V301.326C302.847 300.205 302.54 299.334 301.926 298.713C301.32 298.091 300.4 297.781 299.165 297.781C297.884 297.781 296.881 298.061 296.153 298.622C295.426 299.182 294.915 299.781 294.619 300.417L292.074 299.508C292.528 298.447 293.134 297.622 293.892 297.031C294.657 296.432 295.491 296.016 296.392 295.781C297.301 295.538 298.195 295.417 299.074 295.417C299.634 295.417 300.278 295.485 301.006 295.622C301.741 295.75 302.449 296.019 303.131 296.428C303.82 296.838 304.392 297.455 304.847 298.281C305.301 299.106 305.528 300.213 305.528 301.599V313.099H302.847V310.735H302.71C302.528 311.114 302.225 311.519 301.801 311.951C301.377 312.383 300.813 312.75 300.108 313.053C299.403 313.356 298.544 313.508 297.528 313.508ZM297.938 311.099C298.998 311.099 299.892 310.891 300.619 310.474C301.354 310.057 301.907 309.519 302.278 308.86C302.657 308.201 302.847 307.508 302.847 306.781V304.326C302.733 304.463 302.483 304.588 302.097 304.701C301.718 304.807 301.278 304.902 300.778 304.985C300.286 305.061 299.805 305.129 299.335 305.19C298.873 305.243 298.498 305.288 298.21 305.326C297.513 305.417 296.862 305.565 296.256 305.769C295.657 305.966 295.172 306.266 294.801 306.667C294.438 307.061 294.256 307.599 294.256 308.281C294.256 309.213 294.6 309.917 295.29 310.394C295.987 310.864 296.869 311.099 297.938 311.099ZM313.105 309.144L321.514 295.644H324.605V313.099H321.923V299.599L313.56 313.099H310.423V295.644H313.105V309.144ZM319.741 289.826H322.241C322.241 291.053 321.817 292.057 320.969 292.838C320.12 293.618 318.969 294.008 317.514 294.008C316.082 294.008 314.942 293.618 314.094 292.838C313.253 292.057 312.832 291.053 312.832 289.826H315.332C315.332 290.417 315.495 290.936 315.821 291.383C316.154 291.83 316.719 292.053 317.514 292.053C318.31 292.053 318.878 291.83 319.219 291.383C319.567 290.936 319.741 290.417 319.741 289.826ZM336.972 313.099V310.599H337.608C338.131 310.599 338.566 310.497 338.915 310.292C339.263 310.08 339.544 309.713 339.756 309.19C339.975 308.659 340.142 307.925 340.256 306.985C340.377 306.038 340.464 304.834 340.517 303.372L340.835 295.644H352.472V313.099H349.79V298.144H343.381L343.108 304.372C343.047 305.803 342.919 307.065 342.722 308.156C342.532 309.239 342.241 310.148 341.847 310.883C341.46 311.618 340.945 312.171 340.301 312.542C339.657 312.913 338.85 313.099 337.881 313.099H336.972ZM360.074 309.144L368.483 295.644H371.574V313.099H368.892V299.599L360.528 313.099H357.392V295.644H360.074V309.144ZM389.94 295.644V313.099H387.259V295.644H389.94ZM388.895 303.963V306.463C388.289 306.69 387.687 306.891 387.088 307.065C386.49 307.231 385.861 307.364 385.202 307.463C384.543 307.553 383.819 307.599 383.031 307.599C381.054 307.599 379.467 307.065 378.27 305.997C377.08 304.928 376.486 303.326 376.486 301.19V295.599H379.168V301.19C379.168 302.084 379.338 302.819 379.679 303.394C380.02 303.97 380.482 304.398 381.065 304.678C381.649 304.959 382.304 305.099 383.031 305.099C384.168 305.099 385.194 304.997 386.111 304.792C387.035 304.58 387.963 304.303 388.895 303.963ZM406.543 303.144V305.644H396.906V303.144H406.543ZM397.543 295.644V313.099H394.861V295.644H397.543ZM408.588 295.644V313.099H405.906V295.644H408.588ZM415.804 301.963H420.804C422.849 301.963 424.414 302.481 425.497 303.519C426.58 304.557 427.122 305.872 427.122 307.463C427.122 308.508 426.88 309.459 426.395 310.315C425.91 311.163 425.198 311.841 424.259 312.349C423.319 312.849 422.168 313.099 420.804 313.099H413.486V295.644H416.168V310.599H420.804C421.865 310.599 422.736 310.319 423.418 309.758C424.099 309.197 424.44 308.478 424.44 307.599C424.44 306.675 424.099 305.921 423.418 305.338C422.736 304.754 421.865 304.463 420.804 304.463H415.804V301.963ZM429.895 313.099V295.644H432.577V313.099H429.895ZM440.168 309.144L448.577 295.644H451.668V313.099H448.986V299.599L440.622 313.099H437.486V295.644H440.168V309.144ZM446.804 289.826H449.304C449.304 291.053 448.88 292.057 448.031 292.838C447.183 293.618 446.031 294.008 444.577 294.008C443.145 294.008 442.005 293.618 441.156 292.838C440.315 292.057 439.895 291.053 439.895 289.826H442.395C442.395 290.417 442.558 290.936 442.884 291.383C443.217 291.83 443.781 292.053 444.577 292.053C445.372 292.053 445.94 291.83 446.281 291.383C446.63 290.936 446.804 290.417 446.804 289.826ZM478.534 289.099L479.898 290.735C479.367 291.25 478.754 291.61 478.057 291.815C477.36 292.019 476.572 292.144 475.693 292.19C474.814 292.235 473.837 292.281 472.761 292.326C471.549 292.372 470.545 292.667 469.75 293.213C468.955 293.758 468.341 294.546 467.909 295.576C467.477 296.606 467.201 297.872 467.08 299.372H467.307C467.898 298.281 468.716 297.478 469.761 296.963C470.807 296.447 471.928 296.19 473.125 296.19C474.489 296.19 475.716 296.508 476.807 297.144C477.898 297.781 478.761 298.724 479.398 299.974C480.034 301.224 480.352 302.766 480.352 304.599C480.352 306.425 480.027 308 479.375 309.326C478.731 310.652 477.826 311.675 476.659 312.394C475.5 313.106 474.14 313.463 472.58 313.463C471.019 313.463 469.652 313.095 468.477 312.36C467.303 311.618 466.39 310.519 465.739 309.065C465.087 307.603 464.761 305.796 464.761 303.644V301.781C464.761 297.894 465.42 294.947 466.739 292.94C468.064 290.932 470.057 289.894 472.716 289.826C473.655 289.796 474.492 289.788 475.227 289.803C475.962 289.819 476.602 289.784 477.148 289.701C477.693 289.618 478.155 289.417 478.534 289.099ZM472.58 311.053C473.633 311.053 474.538 310.788 475.295 310.258C476.061 309.728 476.648 308.981 477.057 308.019C477.466 307.05 477.67 305.909 477.67 304.599C477.67 303.326 477.462 302.243 477.045 301.349C476.636 300.455 476.049 299.773 475.284 299.303C474.519 298.834 473.602 298.599 472.534 298.599C471.754 298.599 471.053 298.731 470.432 298.997C469.811 299.262 469.28 299.652 468.841 300.167C468.402 300.682 468.061 301.311 467.818 302.053C467.583 302.796 467.458 303.644 467.443 304.599C467.443 306.553 467.902 308.118 468.818 309.292C469.735 310.466 470.989 311.053 472.58 311.053ZM484.455 319.644V295.644H487.045V298.417H487.364C487.561 298.114 487.833 297.728 488.182 297.258C488.538 296.781 489.045 296.356 489.705 295.985C490.371 295.606 491.273 295.417 492.409 295.417C493.879 295.417 495.174 295.784 496.295 296.519C497.417 297.254 498.292 298.296 498.92 299.644C499.549 300.993 499.864 302.584 499.864 304.417C499.864 306.266 499.549 307.868 498.92 309.224C498.292 310.572 497.42 311.618 496.307 312.36C495.193 313.095 493.909 313.463 492.455 313.463C491.333 313.463 490.436 313.277 489.761 312.906C489.087 312.527 488.568 312.099 488.205 311.622C487.841 311.137 487.561 310.735 487.364 310.417H487.136V319.644H484.455ZM487.091 304.372C487.091 305.69 487.284 306.853 487.67 307.86C488.057 308.86 488.621 309.644 489.364 310.213C490.106 310.773 491.015 311.053 492.091 311.053C493.212 311.053 494.148 310.758 494.898 310.167C495.655 309.569 496.223 308.766 496.602 307.758C496.989 306.743 497.182 305.614 497.182 304.372C497.182 303.144 496.992 302.038 496.614 301.053C496.242 300.061 495.678 299.277 494.92 298.701C494.17 298.118 493.227 297.826 492.091 297.826C491 297.826 490.083 298.103 489.341 298.656C488.598 299.201 488.038 299.966 487.659 300.951C487.28 301.928 487.091 303.069 487.091 304.372ZM511.273 313.463C509.591 313.463 508.14 313.091 506.92 312.349C505.708 311.599 504.773 310.553 504.114 309.213C503.462 307.864 503.136 306.296 503.136 304.508C503.136 302.72 503.462 301.144 504.114 299.781C504.773 298.409 505.689 297.341 506.864 296.576C508.045 295.803 509.424 295.417 511 295.417C511.909 295.417 512.807 295.569 513.693 295.872C514.58 296.175 515.386 296.667 516.114 297.349C516.841 298.023 517.42 298.917 517.852 300.031C518.284 301.144 518.5 302.516 518.5 304.144V305.281H505.045V302.963H515.773C515.773 301.978 515.576 301.099 515.182 300.326C514.795 299.553 514.242 298.944 513.523 298.497C512.811 298.05 511.97 297.826 511 297.826C509.932 297.826 509.008 298.091 508.227 298.622C507.455 299.144 506.86 299.826 506.443 300.667C506.027 301.508 505.818 302.409 505.818 303.372V304.917C505.818 306.235 506.045 307.353 506.5 308.269C506.962 309.178 507.602 309.872 508.42 310.349C509.239 310.819 510.189 311.053 511.273 311.053C511.977 311.053 512.614 310.955 513.182 310.758C513.758 310.553 514.254 310.25 514.67 309.849C515.087 309.44 515.409 308.932 515.636 308.326L518.227 309.053C517.955 309.932 517.496 310.705 516.852 311.372C516.208 312.031 515.413 312.546 514.466 312.917C513.519 313.281 512.455 313.463 511.273 313.463ZM534.261 303.144V305.644H524.625V303.144H534.261ZM525.261 295.644V313.099H522.58V295.644H525.261ZM536.307 295.644V313.099H533.625V295.644H536.307ZM539.341 318.099V310.599H540.795C541.152 310.228 541.458 309.826 541.716 309.394C541.973 308.963 542.197 308.451 542.386 307.86C542.583 307.262 542.75 306.534 542.886 305.678C543.023 304.815 543.144 303.773 543.25 302.553L543.841 295.644H554.932V310.599H557.614V318.099H554.932V313.099H542.023V318.099H539.341ZM543.841 310.599H552.25V298.144H546.341L545.886 302.553C545.697 304.379 545.462 305.974 545.182 307.338C544.902 308.701 544.455 309.788 543.841 310.599Z" fill="#28384B"/>
<path d="M212.273 375H210.864C210.78 374.595 210.634 374.239 210.426 373.932C210.222 373.625 209.972 373.367 209.676 373.159C209.384 372.947 209.061 372.788 208.705 372.682C208.348 372.576 207.977 372.523 207.591 372.523C206.886 372.523 206.248 372.701 205.676 373.057C205.108 373.413 204.655 373.938 204.318 374.631C203.985 375.324 203.818 376.174 203.818 377.182C203.818 378.189 203.985 379.04 204.318 379.733C204.655 380.426 205.108 380.951 205.676 381.307C206.248 381.663 206.886 381.841 207.591 381.841C207.977 381.841 208.348 381.788 208.705 381.682C209.061 381.576 209.384 381.419 209.676 381.21C209.972 380.998 210.222 380.739 210.426 380.432C210.634 380.121 210.78 379.765 210.864 379.364H212.273C212.167 379.958 211.973 380.491 211.693 380.96C211.413 381.43 211.064 381.83 210.648 382.159C210.231 382.485 209.763 382.733 209.244 382.903C208.729 383.074 208.178 383.159 207.591 383.159C206.598 383.159 205.716 382.917 204.943 382.432C204.17 381.947 203.563 381.258 203.119 380.364C202.676 379.47 202.455 378.409 202.455 377.182C202.455 375.955 202.676 374.894 203.119 374C203.563 373.106 204.17 372.417 204.943 371.932C205.716 371.447 206.598 371.205 207.591 371.205C208.178 371.205 208.729 371.29 209.244 371.46C209.763 371.631 210.231 371.881 210.648 372.21C211.064 372.536 211.413 372.934 211.693 373.403C211.973 373.869 212.167 374.402 212.273 375ZM217.913 383.182C217.125 383.182 216.434 382.994 215.839 382.619C215.249 382.244 214.786 381.72 214.453 381.045C214.124 380.371 213.959 379.583 213.959 378.682C213.959 377.773 214.124 376.979 214.453 376.301C214.786 375.623 215.249 375.097 215.839 374.722C216.434 374.347 217.125 374.159 217.913 374.159C218.701 374.159 219.391 374.347 219.982 374.722C220.576 375.097 221.038 375.623 221.368 376.301C221.701 376.979 221.868 377.773 221.868 378.682C221.868 379.583 221.701 380.371 221.368 381.045C221.038 381.72 220.576 382.244 219.982 382.619C219.391 382.994 218.701 383.182 217.913 383.182ZM217.913 381.977C218.512 381.977 219.004 381.824 219.391 381.517C219.777 381.21 220.063 380.807 220.249 380.307C220.434 379.807 220.527 379.265 220.527 378.682C220.527 378.098 220.434 377.555 220.249 377.051C220.063 376.547 219.777 376.14 219.391 375.83C219.004 375.519 218.512 375.364 217.913 375.364C217.315 375.364 216.822 375.519 216.436 375.83C216.05 376.14 215.764 376.547 215.578 377.051C215.393 377.555 215.3 378.098 215.3 378.682C215.3 379.265 215.393 379.807 215.578 380.307C215.764 380.807 216.05 381.21 216.436 381.517C216.822 381.824 217.315 381.977 217.913 381.977ZM223.369 380.773H224.801C224.831 381.167 225.009 381.466 225.335 381.67C225.665 381.875 226.093 381.977 226.619 381.977C227.157 381.977 227.617 381.867 228 381.648C228.383 381.424 228.574 381.064 228.574 380.568C228.574 380.277 228.502 380.023 228.358 379.807C228.214 379.587 228.011 379.417 227.75 379.295C227.489 379.174 227.18 379.114 226.824 379.114H225.324V377.909H226.824C227.358 377.909 227.752 377.788 228.006 377.545C228.263 377.303 228.392 377 228.392 376.636C228.392 376.246 228.254 375.934 227.977 375.699C227.701 375.46 227.309 375.341 226.801 375.341C226.29 375.341 225.864 375.456 225.523 375.688C225.182 375.915 225.002 376.208 224.983 376.568H223.574C223.589 376.098 223.733 375.684 224.006 375.324C224.278 374.96 224.65 374.676 225.119 374.472C225.589 374.263 226.127 374.159 226.733 374.159C227.347 374.159 227.879 374.267 228.33 374.483C228.784 374.695 229.134 374.985 229.381 375.352C229.631 375.716 229.756 376.129 229.756 376.591C229.756 377.083 229.617 377.481 229.341 377.784C229.064 378.087 228.718 378.303 228.301 378.432V378.523C228.631 378.545 228.917 378.652 229.159 378.841C229.405 379.027 229.597 379.271 229.733 379.574C229.869 379.873 229.938 380.205 229.938 380.568C229.938 381.098 229.795 381.561 229.511 381.955C229.227 382.345 228.837 382.648 228.341 382.864C227.845 383.076 227.278 383.182 226.642 383.182C226.025 383.182 225.472 383.081 224.983 382.881C224.494 382.676 224.106 382.394 223.818 382.034C223.534 381.67 223.384 381.25 223.369 380.773ZM230.889 385.5V381.75H231.616C231.795 381.564 231.948 381.364 232.077 381.148C232.205 380.932 232.317 380.676 232.412 380.381C232.51 380.081 232.594 379.718 232.662 379.29C232.73 378.858 232.791 378.337 232.844 377.727L233.139 374.273H238.685V381.75H240.026V385.5H238.685V383H232.23V385.5H230.889ZM233.139 381.75H237.344V375.523H234.389L234.162 377.727C234.067 378.64 233.95 379.437 233.81 380.119C233.67 380.801 233.446 381.345 233.139 381.75ZM244.374 383.205C243.821 383.205 243.319 383.1 242.868 382.892C242.417 382.68 242.059 382.375 241.794 381.977C241.529 381.576 241.396 381.091 241.396 380.523C241.396 380.023 241.495 379.617 241.692 379.307C241.889 378.992 242.152 378.746 242.482 378.568C242.811 378.39 243.175 378.258 243.572 378.17C243.974 378.08 244.377 378.008 244.783 377.955C245.313 377.886 245.743 377.835 246.072 377.801C246.406 377.763 246.648 377.701 246.8 377.614C246.955 377.527 247.033 377.375 247.033 377.159V377.114C247.033 376.553 246.879 376.117 246.572 375.807C246.269 375.496 245.809 375.341 245.192 375.341C244.552 375.341 244.05 375.481 243.686 375.761C243.322 376.042 243.067 376.341 242.919 376.659L241.646 376.205C241.874 375.674 242.177 375.261 242.555 374.966C242.938 374.667 243.355 374.458 243.805 374.341C244.26 374.22 244.707 374.159 245.146 374.159C245.427 374.159 245.749 374.193 246.112 374.261C246.48 374.326 246.834 374.46 247.175 374.665C247.519 374.869 247.805 375.178 248.033 375.591C248.26 376.004 248.374 376.557 248.374 377.25V383H247.033V381.818H246.964C246.874 382.008 246.722 382.21 246.51 382.426C246.298 382.642 246.016 382.826 245.663 382.977C245.311 383.129 244.881 383.205 244.374 383.205ZM244.578 382C245.108 382 245.555 381.896 245.919 381.688C246.286 381.479 246.563 381.21 246.749 380.881C246.938 380.551 247.033 380.205 247.033 379.841V378.614C246.976 378.682 246.851 378.744 246.658 378.801C246.468 378.854 246.249 378.902 245.999 378.943C245.752 378.981 245.512 379.015 245.277 379.045C245.046 379.072 244.858 379.095 244.714 379.114C244.366 379.159 244.04 379.233 243.737 379.335C243.438 379.434 243.196 379.583 243.01 379.784C242.828 379.981 242.737 380.25 242.737 380.591C242.737 381.057 242.91 381.409 243.254 381.648C243.603 381.883 244.044 382 244.578 382ZM250.821 383V374.273H254.389C255.329 374.273 256.075 374.485 256.628 374.909C257.181 375.333 257.457 375.894 257.457 376.591C257.457 377.121 257.3 377.532 256.986 377.824C256.671 378.112 256.268 378.307 255.776 378.409C256.098 378.455 256.41 378.568 256.713 378.75C257.02 378.932 257.274 379.182 257.474 379.5C257.675 379.814 257.776 380.201 257.776 380.659C257.776 381.106 257.662 381.506 257.435 381.858C257.207 382.21 256.882 382.489 256.457 382.693C256.033 382.898 255.526 383 254.935 383H250.821ZM252.094 381.773H254.935C255.397 381.773 255.759 381.663 256.02 381.443C256.281 381.223 256.412 380.924 256.412 380.545C256.412 380.095 256.281 379.741 256.02 379.483C255.759 379.222 255.397 379.091 254.935 379.091H252.094V381.773ZM252.094 377.932H254.389C254.749 377.932 255.058 377.883 255.315 377.784C255.573 377.682 255.77 377.538 255.906 377.352C256.046 377.163 256.116 376.939 256.116 376.682C256.116 376.314 255.963 376.027 255.656 375.818C255.349 375.606 254.927 375.5 254.389 375.5H252.094V377.932ZM262.374 383.205C261.821 383.205 261.319 383.1 260.868 382.892C260.417 382.68 260.059 382.375 259.794 381.977C259.529 381.576 259.396 381.091 259.396 380.523C259.396 380.023 259.495 379.617 259.692 379.307C259.889 378.992 260.152 378.746 260.482 378.568C260.811 378.39 261.175 378.258 261.572 378.17C261.974 378.08 262.377 378.008 262.783 377.955C263.313 377.886 263.743 377.835 264.072 377.801C264.406 377.763 264.648 377.701 264.8 377.614C264.955 377.527 265.033 377.375 265.033 377.159V377.114C265.033 376.553 264.879 376.117 264.572 375.807C264.269 375.496 263.809 375.341 263.192 375.341C262.552 375.341 262.05 375.481 261.686 375.761C261.322 376.042 261.067 376.341 260.919 376.659L259.646 376.205C259.874 375.674 260.177 375.261 260.555 374.966C260.938 374.667 261.355 374.458 261.805 374.341C262.26 374.22 262.707 374.159 263.146 374.159C263.427 374.159 263.749 374.193 264.112 374.261C264.48 374.326 264.834 374.46 265.175 374.665C265.519 374.869 265.805 375.178 266.033 375.591C266.26 376.004 266.374 376.557 266.374 377.25V383H265.033V381.818H264.964C264.874 382.008 264.722 382.21 264.51 382.426C264.298 382.642 264.016 382.826 263.663 382.977C263.311 383.129 262.881 383.205 262.374 383.205ZM262.578 382C263.108 382 263.555 381.896 263.919 381.688C264.286 381.479 264.563 381.21 264.749 380.881C264.938 380.551 265.033 380.205 265.033 379.841V378.614C264.976 378.682 264.851 378.744 264.658 378.801C264.468 378.854 264.249 378.902 263.999 378.943C263.752 378.981 263.512 379.015 263.277 379.045C263.046 379.072 262.858 379.095 262.714 379.114C262.366 379.159 262.04 379.233 261.737 379.335C261.438 379.434 261.196 379.583 261.01 379.784C260.828 379.981 260.737 380.25 260.737 380.591C260.737 381.057 260.91 381.409 261.254 381.648C261.603 381.883 262.044 382 262.578 382ZM270.162 381.023L274.366 374.273H275.912V383H274.571V376.25L270.389 383H268.821V374.273H270.162V381.023ZM273.48 371.364H274.73C274.73 371.977 274.518 372.479 274.094 372.869C273.67 373.259 273.094 373.455 272.366 373.455C271.651 373.455 271.08 373.259 270.656 372.869C270.236 372.479 270.026 371.977 270.026 371.364H271.276C271.276 371.659 271.357 371.919 271.52 372.142C271.687 372.366 271.969 372.477 272.366 372.477C272.764 372.477 273.048 372.366 273.219 372.142C273.393 371.919 273.48 371.659 273.48 371.364ZM289.345 371L290.027 371.818C289.762 372.076 289.455 372.256 289.107 372.358C288.758 372.46 288.364 372.523 287.925 372.545C287.485 372.568 286.997 372.591 286.459 372.614C285.853 372.636 285.351 372.784 284.953 373.057C284.555 373.33 284.249 373.723 284.033 374.239C283.817 374.754 283.679 375.386 283.618 376.136H283.732C284.027 375.591 284.436 375.189 284.959 374.932C285.482 374.674 286.042 374.545 286.641 374.545C287.322 374.545 287.936 374.705 288.482 375.023C289.027 375.341 289.459 375.812 289.777 376.438C290.095 377.062 290.254 377.833 290.254 378.75C290.254 379.663 290.091 380.451 289.766 381.114C289.444 381.777 288.991 382.288 288.408 382.648C287.828 383.004 287.148 383.182 286.368 383.182C285.588 383.182 284.904 382.998 284.317 382.631C283.73 382.259 283.273 381.71 282.947 380.983C282.622 380.252 282.459 379.348 282.459 378.273V377.341C282.459 375.398 282.788 373.924 283.447 372.92C284.11 371.917 285.107 371.398 286.436 371.364C286.906 371.348 287.324 371.345 287.692 371.352C288.059 371.36 288.379 371.343 288.652 371.301C288.925 371.259 289.156 371.159 289.345 371ZM286.368 381.977C286.894 381.977 287.347 381.845 287.726 381.58C288.108 381.314 288.402 380.941 288.607 380.46C288.811 379.975 288.913 379.405 288.913 378.75C288.913 378.114 288.809 377.572 288.601 377.125C288.396 376.678 288.103 376.337 287.72 376.102C287.338 375.867 286.879 375.75 286.345 375.75C285.955 375.75 285.605 375.816 285.294 375.949C284.983 376.081 284.718 376.277 284.499 376.534C284.279 376.792 284.108 377.106 283.987 377.477C283.87 377.848 283.807 378.273 283.8 378.75C283.8 379.727 284.029 380.509 284.487 381.097C284.946 381.684 285.572 381.977 286.368 381.977ZM293.646 381.023L297.851 374.273H299.396V383H298.055V376.25L293.874 383H292.305V374.273H293.646V381.023ZM301.307 380.773H302.739C302.769 381.167 302.947 381.466 303.273 381.67C303.602 381.875 304.03 381.977 304.557 381.977C305.095 381.977 305.555 381.867 305.938 381.648C306.32 381.424 306.511 381.064 306.511 380.568C306.511 380.277 306.439 380.023 306.295 379.807C306.152 379.587 305.949 379.417 305.688 379.295C305.426 379.174 305.117 379.114 304.761 379.114H303.261V377.909H304.761C305.295 377.909 305.689 377.788 305.943 377.545C306.201 377.303 306.33 377 306.33 376.636C306.33 376.246 306.191 375.934 305.915 375.699C305.638 375.46 305.246 375.341 304.739 375.341C304.227 375.341 303.801 375.456 303.46 375.688C303.119 375.915 302.939 376.208 302.92 376.568H301.511C301.527 376.098 301.67 375.684 301.943 375.324C302.216 374.96 302.587 374.676 303.057 374.472C303.527 374.263 304.064 374.159 304.67 374.159C305.284 374.159 305.816 374.267 306.267 374.483C306.722 374.695 307.072 374.985 307.318 375.352C307.568 375.716 307.693 376.129 307.693 376.591C307.693 377.083 307.555 377.481 307.278 377.784C307.002 378.087 306.655 378.303 306.239 378.432V378.523C306.568 378.545 306.854 378.652 307.097 378.841C307.343 379.027 307.534 379.271 307.67 379.574C307.807 379.873 307.875 380.205 307.875 380.568C307.875 381.098 307.733 381.561 307.449 381.955C307.165 382.345 306.775 382.648 306.278 382.864C305.782 383.076 305.216 383.182 304.58 383.182C303.962 383.182 303.409 383.081 302.92 382.881C302.432 382.676 302.044 382.394 301.756 382.034C301.472 381.67 301.322 381.25 301.307 380.773ZM315.599 378.023V379.273H310.781V378.023H315.599ZM311.099 374.273V383H309.759V374.273H311.099ZM316.622 374.273V383H315.281V374.273H316.622ZM322.73 383.182C321.889 383.182 321.164 382.996 320.554 382.625C319.948 382.25 319.48 381.727 319.151 381.057C318.825 380.383 318.662 379.598 318.662 378.705C318.662 377.811 318.825 377.023 319.151 376.341C319.48 375.655 319.938 375.121 320.526 374.739C321.116 374.352 321.806 374.159 322.594 374.159C323.048 374.159 323.497 374.235 323.94 374.386C324.384 374.538 324.787 374.784 325.151 375.125C325.514 375.462 325.804 375.909 326.02 376.466C326.236 377.023 326.344 377.708 326.344 378.523V379.091H319.616V377.932H324.98C324.98 377.439 324.882 377 324.685 376.614C324.491 376.227 324.215 375.922 323.855 375.699C323.499 375.475 323.079 375.364 322.594 375.364C322.06 375.364 321.598 375.496 321.207 375.761C320.821 376.023 320.524 376.364 320.315 376.784C320.107 377.205 320.003 377.655 320.003 378.136V378.909C320.003 379.568 320.116 380.127 320.344 380.585C320.575 381.04 320.895 381.386 321.304 381.625C321.713 381.86 322.188 381.977 322.73 381.977C323.082 381.977 323.401 381.928 323.685 381.83C323.973 381.727 324.221 381.576 324.429 381.375C324.637 381.17 324.798 380.917 324.912 380.614L326.207 380.977C326.071 381.417 325.842 381.803 325.52 382.136C325.198 382.466 324.8 382.723 324.327 382.909C323.853 383.091 323.321 383.182 322.73 383.182ZM331.929 383.182C331.111 383.182 330.406 382.989 329.815 382.602C329.224 382.216 328.77 381.684 328.452 381.006C328.134 380.328 327.974 379.553 327.974 378.682C327.974 377.795 328.137 377.013 328.463 376.335C328.793 375.653 329.251 375.121 329.838 374.739C330.429 374.352 331.118 374.159 331.906 374.159C332.52 374.159 333.073 374.273 333.565 374.5C334.058 374.727 334.461 375.045 334.776 375.455C335.09 375.864 335.285 376.341 335.361 376.886H334.02C333.918 376.489 333.69 376.136 333.338 375.83C332.99 375.519 332.52 375.364 331.929 375.364C331.406 375.364 330.948 375.5 330.554 375.773C330.164 376.042 329.859 376.422 329.639 376.915C329.423 377.403 329.315 377.977 329.315 378.636C329.315 379.311 329.421 379.898 329.634 380.398C329.849 380.898 330.152 381.286 330.543 381.562C330.937 381.839 331.399 381.977 331.929 381.977C332.277 381.977 332.594 381.917 332.878 381.795C333.162 381.674 333.402 381.5 333.599 381.273C333.796 381.045 333.937 380.773 334.02 380.455H335.361C335.285 380.97 335.098 381.434 334.798 381.847C334.503 382.256 334.111 382.581 333.622 382.824C333.137 383.062 332.573 383.182 331.929 383.182ZM343.162 381.023L347.366 374.273H348.912V383H347.571V376.25L343.389 383H341.821V374.273H343.162V381.023ZM356.732 386.273C356.504 386.273 356.302 386.254 356.124 386.216C355.946 386.182 355.822 386.148 355.754 386.114L356.095 384.932C356.421 385.015 356.709 385.045 356.959 385.023C357.209 385 357.43 384.888 357.624 384.688C357.821 384.491 358 384.17 358.163 383.727L358.413 383.045L355.186 374.273H356.641L359.05 381.227H359.141L361.55 374.273H363.004L359.3 384.273C359.133 384.723 358.927 385.097 358.68 385.392C358.434 385.691 358.148 385.913 357.822 386.057C357.5 386.201 357.137 386.273 356.732 386.273ZM364.774 383V374.273H371.638V383H370.297V375.523H366.115V383H364.774ZM374.087 386.273V374.273H375.382V375.659H375.541C375.64 375.508 375.776 375.314 375.95 375.08C376.128 374.841 376.382 374.629 376.712 374.443C377.045 374.254 377.496 374.159 378.064 374.159C378.799 374.159 379.446 374.343 380.007 374.71C380.568 375.078 381.005 375.598 381.32 376.273C381.634 376.947 381.791 377.742 381.791 378.659C381.791 379.583 381.634 380.384 381.32 381.062C381.005 381.737 380.57 382.259 380.013 382.631C379.456 382.998 378.814 383.182 378.087 383.182C377.526 383.182 377.077 383.089 376.74 382.903C376.403 382.714 376.143 382.5 375.962 382.261C375.78 382.019 375.64 381.818 375.541 381.659H375.428V386.273H374.087ZM375.405 378.636C375.405 379.295 375.501 379.877 375.695 380.381C375.888 380.881 376.17 381.273 376.541 381.557C376.912 381.837 377.367 381.977 377.905 381.977C378.465 381.977 378.933 381.83 379.308 381.534C379.687 381.235 379.971 380.833 380.161 380.33C380.354 379.822 380.45 379.258 380.45 378.636C380.45 378.023 380.356 377.47 380.166 376.977C379.981 376.481 379.698 376.089 379.32 375.801C378.945 375.509 378.473 375.364 377.905 375.364C377.359 375.364 376.901 375.502 376.53 375.778C376.159 376.051 375.878 376.434 375.689 376.926C375.5 377.415 375.405 377.985 375.405 378.636ZM386.405 383.205C385.852 383.205 385.35 383.1 384.899 382.892C384.448 382.68 384.09 382.375 383.825 381.977C383.56 381.576 383.428 381.091 383.428 380.523C383.428 380.023 383.526 379.617 383.723 379.307C383.92 378.992 384.183 378.746 384.513 378.568C384.842 378.39 385.206 378.258 385.604 378.17C386.005 378.08 386.409 378.008 386.814 377.955C387.344 377.886 387.774 377.835 388.104 377.801C388.437 377.763 388.679 377.701 388.831 377.614C388.986 377.527 389.064 377.375 389.064 377.159V377.114C389.064 376.553 388.911 376.117 388.604 375.807C388.301 375.496 387.84 375.341 387.223 375.341C386.583 375.341 386.081 375.481 385.717 375.761C385.354 376.042 385.098 376.341 384.95 376.659L383.678 376.205C383.905 375.674 384.208 375.261 384.587 374.966C384.969 374.667 385.386 374.458 385.837 374.341C386.291 374.22 386.738 374.159 387.178 374.159C387.458 374.159 387.78 374.193 388.143 374.261C388.511 374.326 388.865 374.46 389.206 374.665C389.551 374.869 389.837 375.178 390.064 375.591C390.291 376.004 390.405 376.557 390.405 377.25V383H389.064V381.818H388.996C388.905 382.008 388.753 382.21 388.541 382.426C388.329 382.642 388.047 382.826 387.695 382.977C387.342 383.129 386.912 383.205 386.405 383.205ZM386.609 382C387.14 382 387.587 381.896 387.95 381.688C388.318 381.479 388.594 381.21 388.78 380.881C388.969 380.551 389.064 380.205 389.064 379.841V378.614C389.007 378.682 388.882 378.744 388.689 378.801C388.5 378.854 388.28 378.902 388.03 378.943C387.784 378.981 387.543 379.015 387.308 379.045C387.077 379.072 386.89 379.095 386.746 379.114C386.397 379.159 386.071 379.233 385.768 379.335C385.469 379.434 385.227 379.583 385.041 379.784C384.859 379.981 384.768 380.25 384.768 380.591C384.768 381.057 384.941 381.409 385.286 381.648C385.634 381.883 386.075 382 386.609 382ZM392.852 383V374.273H396.42C397.36 374.273 398.106 374.485 398.659 374.909C399.212 375.333 399.489 375.894 399.489 376.591C399.489 377.121 399.331 377.532 399.017 377.824C398.703 378.112 398.299 378.307 397.807 378.409C398.129 378.455 398.441 378.568 398.744 378.75C399.051 378.932 399.305 379.182 399.506 379.5C399.706 379.814 399.807 380.201 399.807 380.659C399.807 381.106 399.693 381.506 399.466 381.858C399.239 382.21 398.913 382.489 398.489 382.693C398.064 382.898 397.557 383 396.966 383H392.852ZM394.125 381.773H396.966C397.428 381.773 397.79 381.663 398.051 381.443C398.313 381.223 398.443 380.924 398.443 380.545C398.443 380.095 398.313 379.741 398.051 379.483C397.79 379.222 397.428 379.091 396.966 379.091H394.125V381.773ZM394.125 377.932H396.42C396.78 377.932 397.089 377.883 397.347 377.784C397.604 377.682 397.801 377.538 397.938 377.352C398.078 377.163 398.148 376.939 398.148 376.682C398.148 376.314 397.994 376.027 397.688 375.818C397.381 375.606 396.958 375.5 396.42 375.5H394.125V377.932ZM401.064 383V381.75H401.382C401.643 381.75 401.861 381.699 402.036 381.597C402.21 381.491 402.35 381.307 402.456 381.045C402.566 380.78 402.649 380.413 402.706 379.943C402.767 379.47 402.81 378.867 402.837 378.136L402.996 374.273H408.814V383H407.473V375.523H404.268L404.132 378.636C404.102 379.352 404.037 379.983 403.939 380.528C403.844 381.07 403.698 381.525 403.501 381.892C403.308 382.259 403.051 382.536 402.729 382.722C402.407 382.907 402.003 383 401.518 383H401.064ZM416.524 383V375.5H414.206C413.683 375.5 413.272 375.621 412.973 375.864C412.674 376.106 412.524 376.439 412.524 376.864C412.524 377.28 412.659 377.608 412.928 377.847C413.2 378.085 413.573 378.205 414.047 378.205H416.865V379.455H414.047C413.456 379.455 412.946 379.35 412.518 379.142C412.09 378.934 411.761 378.636 411.53 378.25C411.299 377.86 411.183 377.398 411.183 376.864C411.183 376.326 411.304 375.864 411.547 375.477C411.789 375.091 412.136 374.794 412.587 374.585C413.041 374.377 413.581 374.273 414.206 374.273H417.797V383H416.524ZM410.706 383L413.183 378.659H414.638L412.161 383H410.706ZM421.599 381.023L425.804 374.273H427.349V383H426.009V376.25L421.827 383H420.259V374.273H421.599V381.023ZM424.918 371.364H426.168C426.168 371.977 425.955 372.479 425.531 372.869C425.107 373.259 424.531 373.455 423.804 373.455C423.088 373.455 422.518 373.259 422.094 372.869C421.673 372.479 421.463 371.977 421.463 371.364H422.713C422.713 371.659 422.795 371.919 422.957 372.142C423.124 372.366 423.406 372.477 423.804 372.477C424.202 372.477 424.486 372.366 424.656 372.142C424.83 371.919 424.918 371.659 424.918 371.364ZM435.646 381.023L439.851 374.273H441.396V383H440.055V376.25L435.874 383H434.305V374.273H435.646V381.023ZM448.625 381.182L451.67 374.273H452.943L449.17 383H448.08L444.375 374.273H445.625L448.625 381.182ZM445.193 374.273V383H443.852V374.273H445.193ZM452.057 383V374.273H453.398V383H452.057ZM460.352 383V374.273H463.92C464.86 374.273 465.606 374.485 466.159 374.909C466.712 375.333 466.989 375.894 466.989 376.591C466.989 377.121 466.831 377.532 466.517 377.824C466.203 378.112 465.799 378.307 465.307 378.409C465.629 378.455 465.941 378.568 466.244 378.75C466.551 378.932 466.805 379.182 467.006 379.5C467.206 379.814 467.307 380.201 467.307 380.659C467.307 381.106 467.193 381.506 466.966 381.858C466.739 382.21 466.413 382.489 465.989 382.693C465.564 382.898 465.057 383 464.466 383H460.352ZM461.625 381.773H464.466C464.928 381.773 465.29 381.663 465.551 381.443C465.813 381.223 465.943 380.924 465.943 380.545C465.943 380.095 465.813 379.741 465.551 379.483C465.29 379.222 464.928 379.091 464.466 379.091H461.625V381.773ZM461.625 377.932H463.92C464.28 377.932 464.589 377.883 464.847 377.784C465.104 377.682 465.301 377.538 465.438 377.352C465.578 377.163 465.648 376.939 465.648 376.682C465.648 376.314 465.494 376.027 465.188 375.818C464.881 375.606 464.458 375.5 463.92 375.5H461.625V377.932ZM477.382 383.182C476.594 383.182 475.903 382.994 475.308 382.619C474.717 382.244 474.255 381.72 473.922 381.045C473.592 380.371 473.428 379.583 473.428 378.682C473.428 377.773 473.592 376.979 473.922 376.301C474.255 375.623 474.717 375.097 475.308 374.722C475.903 374.347 476.594 374.159 477.382 374.159C478.17 374.159 478.859 374.347 479.45 374.722C480.045 375.097 480.507 375.623 480.837 376.301C481.17 376.979 481.337 377.773 481.337 378.682C481.337 379.583 481.17 380.371 480.837 381.045C480.507 381.72 480.045 382.244 479.45 382.619C478.859 382.994 478.17 383.182 477.382 383.182ZM477.382 381.977C477.981 381.977 478.473 381.824 478.859 381.517C479.246 381.21 479.532 380.807 479.717 380.307C479.903 379.807 479.996 379.265 479.996 378.682C479.996 378.098 479.903 377.555 479.717 377.051C479.532 376.547 479.246 376.14 478.859 375.83C478.473 375.519 477.981 375.364 477.382 375.364C476.784 375.364 476.291 375.519 475.905 375.83C475.518 376.14 475.232 376.547 475.047 377.051C474.861 377.555 474.768 378.098 474.768 378.682C474.768 379.265 474.861 379.807 475.047 380.307C475.232 380.807 475.518 381.21 475.905 381.517C476.291 381.824 476.784 381.977 477.382 381.977ZM482.452 385.5V381.75H483.179C483.357 381.564 483.51 381.364 483.639 381.148C483.768 380.932 483.88 380.676 483.974 380.381C484.073 380.081 484.156 379.718 484.224 379.29C484.293 378.858 484.353 378.337 484.406 377.727L484.702 374.273H490.247V381.75H491.588V385.5H490.247V383H483.793V385.5H482.452ZM484.702 381.75H488.906V375.523H485.952L485.724 377.727C485.63 378.64 485.512 379.437 485.372 380.119C485.232 380.801 485.009 381.345 484.702 381.75ZM499.209 378.023V379.273H494.391V378.023H499.209ZM494.709 374.273V383H493.368V374.273H494.709ZM500.232 374.273V383H498.891V374.273H500.232ZM506.226 383.182C505.438 383.182 504.747 382.994 504.152 382.619C503.561 382.244 503.099 381.72 502.766 381.045C502.436 380.371 502.271 379.583 502.271 378.682C502.271 377.773 502.436 376.979 502.766 376.301C503.099 375.623 503.561 375.097 504.152 374.722C504.747 374.347 505.438 374.159 506.226 374.159C507.014 374.159 507.703 374.347 508.294 374.722C508.889 375.097 509.351 375.623 509.68 376.301C510.014 376.979 510.18 377.773 510.18 378.682C510.18 379.583 510.014 380.371 509.68 381.045C509.351 381.72 508.889 382.244 508.294 382.619C507.703 382.994 507.014 383.182 506.226 383.182ZM506.226 381.977C506.824 381.977 507.317 381.824 507.703 381.517C508.089 381.21 508.375 380.807 508.561 380.307C508.747 379.807 508.839 379.265 508.839 378.682C508.839 378.098 508.747 377.555 508.561 377.051C508.375 376.547 508.089 376.14 507.703 375.83C507.317 375.519 506.824 375.364 506.226 375.364C505.627 375.364 505.135 375.519 504.749 375.83C504.362 376.14 504.076 376.547 503.891 377.051C503.705 377.555 503.612 378.098 503.612 378.682C503.612 379.265 503.705 379.807 503.891 380.307C504.076 380.807 504.362 381.21 504.749 381.517C505.135 381.824 505.627 381.977 506.226 381.977ZM517 381.182L520.045 374.273H521.318L517.545 383H516.455L512.75 374.273H514L517 381.182ZM513.568 374.273V383H512.227V374.273H513.568ZM520.432 383V374.273H521.773V383H520.432ZM533.5 381.182L536.545 374.273H537.818L534.045 383H532.955L529.25 374.273H530.5L533.5 381.182ZM530.068 374.273V383H528.727V374.273H530.068ZM536.932 383V374.273H538.273V383H536.932ZM544.386 383.182C543.545 383.182 542.82 382.996 542.21 382.625C541.604 382.25 541.136 381.727 540.807 381.057C540.481 380.383 540.318 379.598 540.318 378.705C540.318 377.811 540.481 377.023 540.807 376.341C541.136 375.655 541.595 375.121 542.182 374.739C542.773 374.352 543.462 374.159 544.25 374.159C544.705 374.159 545.153 374.235 545.597 374.386C546.04 374.538 546.443 374.784 546.807 375.125C547.17 375.462 547.46 375.909 547.676 376.466C547.892 377.023 548 377.708 548 378.523V379.091H541.273V377.932H546.636C546.636 377.439 546.538 377 546.341 376.614C546.148 376.227 545.871 375.922 545.511 375.699C545.155 375.475 544.735 375.364 544.25 375.364C543.716 375.364 543.254 375.496 542.864 375.761C542.477 376.023 542.18 376.364 541.972 376.784C541.763 377.205 541.659 377.655 541.659 378.136V378.909C541.659 379.568 541.773 380.127 542 380.585C542.231 381.04 542.551 381.386 542.96 381.625C543.369 381.86 543.845 381.977 544.386 381.977C544.739 381.977 545.057 381.928 545.341 381.83C545.629 381.727 545.877 381.576 546.085 381.375C546.294 381.17 546.455 380.917 546.568 380.614L547.864 380.977C547.727 381.417 547.498 381.803 547.176 382.136C546.854 382.466 546.456 382.723 545.983 382.909C545.509 383.091 544.977 383.182 544.386 383.182ZM553.585 383.182C552.767 383.182 552.063 382.989 551.472 382.602C550.881 382.216 550.426 381.684 550.108 381.006C549.79 380.328 549.631 379.553 549.631 378.682C549.631 377.795 549.794 377.013 550.119 376.335C550.449 375.653 550.907 375.121 551.494 374.739C552.085 374.352 552.775 374.159 553.562 374.159C554.176 374.159 554.729 374.273 555.222 374.5C555.714 374.727 556.117 375.045 556.432 375.455C556.746 375.864 556.941 376.341 557.017 376.886H555.676C555.574 376.489 555.347 376.136 554.994 375.83C554.646 375.519 554.176 375.364 553.585 375.364C553.063 375.364 552.604 375.5 552.21 375.773C551.82 376.042 551.515 376.422 551.295 376.915C551.08 377.403 550.972 377.977 550.972 378.636C550.972 379.311 551.078 379.898 551.29 380.398C551.506 380.898 551.809 381.286 552.199 381.562C552.593 381.839 553.055 381.977 553.585 381.977C553.934 381.977 554.25 381.917 554.534 381.795C554.818 381.674 555.059 381.5 555.256 381.273C555.453 381.045 555.593 380.773 555.676 380.455H557.017C556.941 380.97 556.754 381.434 556.455 381.847C556.159 382.256 555.767 382.581 555.278 382.824C554.794 383.062 554.229 383.182 553.585 383.182ZM558.29 375.523V374.273H565.381V375.523H562.517V383H561.176V375.523H558.29ZM570.543 383.182C569.702 383.182 568.976 382.996 568.366 382.625C567.76 382.25 567.293 381.727 566.963 381.057C566.637 380.383 566.474 379.598 566.474 378.705C566.474 377.811 566.637 377.023 566.963 376.341C567.293 375.655 567.751 375.121 568.338 374.739C568.929 374.352 569.618 374.159 570.406 374.159C570.861 374.159 571.31 374.235 571.753 374.386C572.196 374.538 572.599 374.784 572.963 375.125C573.327 375.462 573.616 375.909 573.832 376.466C574.048 377.023 574.156 377.708 574.156 378.523V379.091H567.429V377.932H572.793C572.793 377.439 572.694 377 572.497 376.614C572.304 376.227 572.027 375.922 571.668 375.699C571.312 375.475 570.891 375.364 570.406 375.364C569.872 375.364 569.41 375.496 569.02 375.761C568.634 376.023 568.336 376.364 568.128 376.784C567.92 377.205 567.815 377.655 567.815 378.136V378.909C567.815 379.568 567.929 380.127 568.156 380.585C568.387 381.04 568.707 381.386 569.116 381.625C569.526 381.86 570.001 381.977 570.543 381.977C570.895 381.977 571.213 381.928 571.497 381.83C571.785 381.727 572.033 381.576 572.241 381.375C572.45 381.17 572.611 380.917 572.724 380.614L574.02 380.977C573.884 381.417 573.654 381.803 573.332 382.136C573.01 382.466 572.613 382.723 572.139 382.909C571.666 383.091 571.134 383.182 570.543 383.182Z" fill="#28384B"/>
<defs>
<filter id="filter0_f_405_178" x="105.875" y="39.5583" width="407.341" height="430.743" filterUnits="userSpaceOnUse" color-interpolation-filters="sRGB">
<feFlood flood-opacity="0" result="BackgroundImageFix"/>
<feBlend mode="normal" in="SourceGraphic" in2="BackgroundImageFix" result="shape"/>
<feGaussianBlur stdDeviation="8" result="effect1_foregroundBlur_405_178"/>
</filter>
<filter id="filter1_bdiii_405_178" x="0.100002" y="51.521" width="359.4" height="434.461" filterUnits="userSpaceOnUse" color-interpolation-filters="sRGB">
<feFlood flood-opacity="0" result="BackgroundImageFix"/>
<feGaussianBlur in="BackgroundImageFix" stdDeviation="32"/>
<feComposite in2="SourceAlpha" operator="in" result="effect1_backgroundBlur_405_178"/>
<feColorMatrix in="SourceAlpha" type="matrix" values="0 0 0 0 0 0 0 0 0 0 0 0 0 0 0 0 0 0 127 0" result="hardAlpha"/>
<feOffset dx="12.8" dy="57.6"/>
<feGaussianBlur stdDeviation="41.6"/>
<feComposite in2="hardAlpha" operator="out"/>
<feColorMatrix type="matrix" values="0 0 0 0 0 0 0 0 0 0.383333 0 0 0 0 0.107333 0 0 0 0.14 0"/>
<feBlend mode="normal" in2="effect1_backgroundBlur_405_178" result="effect2_dropShadow_405_178"/>
<feBlend mode="normal" in="SourceGraphic" in2="effect2_dropShadow_405_178" result="shape"/>
<feColorMatrix in="SourceAlpha" type="matrix" values="0 0 0 0 0 0 0 0 0 0 0 0 0 0 0 0 0 0 127 0" result="hardAlpha"/>
<feOffset dx="1.6" dy="6.4"/>
<feGaussianBlur stdDeviation="3.2"/>
<feComposite in2="hardAlpha" operator="arithmetic" k2="-1" k3="1"/>
<feColorMatrix type="matrix" values="0 0 0 0 1 0 0 0 0 1 0 0 0 0 1 0 0 0 1 0"/>
<feBlend mode="normal" in2="shape" result="effect3_innerShadow_405_178"/>
<feColorMatrix in="SourceAlpha" type="matrix" values="0 0 0 0 0 0 0 0 0 0 0 0 0 0 0 0 0 0 127 0" result="hardAlpha"/>
<feOffset dx="-1.6" dy="-6.4"/>
<feGaussianBlur stdDeviation="3.2"/>
<feComposite in2="hardAlpha" operator="arithmetic" k2="-1" k3="1"/>
<feColorMatrix type="matrix" values="0 0 0 0 0 0 0 0 0 0 0 0 0 0 0 0 0 0 0.06 0"/>
<feBlend mode="normal" in2="effect3_innerShadow_405_178" result="effect4_innerShadow_405_178"/>
<feColorMatrix in="SourceAlpha" type="matrix" values="0 0 0 0 0 0 0 0 0 0 0 0 0 0 0 0 0 0 127 0" result="hardAlpha"/>
<feOffset dy="1.6"/>
<feGaussianBlur stdDeviation="1.6"/>
<feComposite in2="hardAlpha" operator="arithmetic" k2="-1" k3="1"/>
<feColorMatrix type="matrix" values="0 0 0 0 0 0 0 0 0 0 0 0 0 0 0 0 0 0 0.04 0"/>
<feBlend mode="normal" in2="effect4_innerShadow_405_178" result="effect5_innerShadow_405_178"/>
</filter>
<linearGradient id="paint0_linear_405_178" x1="297.5" y1="63.5" x2="464.277" y2="417.345" gradientUnits="userSpaceOnUse">
<stop stop-color="#FFB7B9"/>
<stop offset="1" stop-color="#3376FF" stop-opacity="0"/>
</linearGradient>
</defs>
</svg>
