<svg width="24" height="24" viewBox="0 0 24 24" fill="none" xmlns="http://www.w3.org/2000/svg">
<path fill-rule="evenodd" clip-rule="evenodd" d="M12.8501 12.0001C12.8501 12.4695 12.4695 12.8501 12.0001 12.8501L4.0001 12.8501C3.53065 12.8501 3.1501 12.4695 3.1501 12.0001C3.1501 11.5307 3.53065 11.1501 4.0001 11.1501L12.0001 11.1501C12.4695 11.1501 12.8501 11.5307 12.8501 12.0001Z" fill="#728CCD"/>
<path fill-rule="evenodd" clip-rule="evenodd" d="M6.59909 15.6011C6.26714 15.9331 5.72895 15.9331 5.39701 15.6011L3.0903 13.2944C2.36783 12.5719 2.36783 11.4006 3.0903 10.6781L5.38515 8.38326C5.71709 8.05132 6.25528 8.05132 6.58723 8.38326C6.91917 8.71521 6.91917 9.2534 6.58723 9.58534L4.29238 11.8802C4.2338 11.9388 4.2338 12.0337 4.29238 12.0923L6.59909 14.399C6.93103 14.731 6.93103 15.2692 6.59909 15.6011Z" fill="#728CCD"/>
<path fill-rule="evenodd" clip-rule="evenodd" d="M9.85015 15.0001C9.85015 16.7398 11.2604 18.1501 13.0001 18.1501H17.0001C18.7398 18.1501 20.1501 16.7398 20.1501 15.0001V8.5001C20.1501 6.7604 18.7398 5.3501 17.0001 5.3501H13.0001C11.2604 5.3501 9.85015 6.7604 9.85015 8.5001V9.67867C9.85015 10.1481 9.46959 10.5287 9.00015 10.5287C8.5307 10.5287 8.15015 10.1481 8.15015 9.67867V8.5001C8.15015 5.82152 10.3216 3.6501 13.0001 3.6501H17.0001C19.6787 3.6501 21.8501 5.82152 21.8501 8.5001V15.0001C21.8501 17.6787 19.6787 19.8501 17.0001 19.8501H13.0001C10.3216 19.8501 8.15015 17.6787 8.15015 15.0001V14.3394C8.15015 13.8699 8.5307 13.4894 9.00015 13.4894C9.46959 13.4894 9.85015 13.8699 9.85015 14.3394V15.0001Z" fill="#728CCD"/>
</svg>
