<svg width="32" height="32" viewBox="0 0 32 32" fill="none" xmlns="http://www.w3.org/2000/svg">
<path fill-rule="evenodd" clip-rule="evenodd" d="M14.849 20.765C18.1162 20.765 20.7648 18.1164 20.7648 14.8492C20.7648 11.582 18.1162 8.93335 14.849 8.93335C11.5818 8.93335 8.93317 11.582 8.93317 14.8492C8.93317 18.1164 11.5818 20.765 14.849 20.765ZM14.849 23.0317C19.368 23.0317 23.0315 19.3682 23.0315 14.8492C23.0315 10.3301 19.368 6.66669 14.849 6.66669C10.3299 6.66669 6.6665 10.3301 6.6665 14.8492C6.6665 19.3682 10.3299 23.0317 14.849 23.0317Z" fill="#ADC5F6"/>
<path fill-rule="evenodd" clip-rule="evenodd" d="M19.8922 19.8924C19.4496 20.335 19.4496 21.0526 19.8922 21.4952L23.1984 24.8014C23.641 25.244 24.3586 25.244 24.8012 24.8014C25.2438 24.3588 25.2438 23.6412 24.8012 23.1986L21.495 19.8924C21.0524 19.4498 20.3348 19.4498 19.8922 19.8924Z" fill="#ADC5F6"/>
</svg>
