<svg width="102" height="32" viewBox="0 0 102 32" fill="none" xmlns="http://www.w3.org/2000/svg">
<g clip-path="url(#clip0_405_225)">
<path fill-rule="evenodd" clip-rule="evenodd" d="M14.849 20.765C18.1162 20.765 20.7648 18.1164 20.7648 14.8492C20.7648 11.582 18.1162 8.93335 14.849 8.93335C11.5818 8.93335 8.93317 11.582 8.93317 14.8492C8.93317 18.1164 11.5818 20.765 14.849 20.765ZM14.849 23.0317C19.368 23.0317 23.0315 19.3682 23.0315 14.8492C23.0315 10.3301 19.368 6.66669 14.849 6.66669C10.3299 6.66669 6.6665 10.3301 6.6665 14.8492C6.6665 19.3682 10.3299 23.0317 14.849 23.0317Z" fill="#ADC5F6"/>
<path fill-rule="evenodd" clip-rule="evenodd" d="M19.8922 19.8924C19.4496 20.335 19.4496 21.0526 19.8922 21.4952L23.1984 24.8014C23.641 25.244 24.3586 25.244 24.8012 24.8014C25.2438 24.3588 25.2438 23.6412 24.8012 23.1986L21.495 19.8924C21.0524 19.4498 20.3348 19.4498 19.8922 19.8924Z" fill="#ADC5F6"/>
<path d="M53.4805 23V8.9082H42.0059V23H44.2031V10.8027H51.293V23H53.4805ZM61.2246 23.2051C62.2467 23.2051 63.1289 22.987 63.8711 22.5508C64.6198 22.1081 65.196 21.4798 65.5996 20.666C66.0033 19.8457 66.2051 18.8724 66.2051 17.7461V17.7266C66.2051 16.5938 66 15.6204 65.5898 14.8066C65.1862 13.9928 64.6133 13.3678 63.8711 12.9316C63.1289 12.4889 62.2435 12.2676 61.2148 12.2676C60.1992 12.2676 59.3171 12.4889 58.5684 12.9316C57.8262 13.3678 57.25 13.9928 56.8398 14.8066C56.4362 15.6204 56.2344 16.5938 56.2344 17.7266V17.7461C56.2344 18.8724 56.4362 19.8457 56.8398 20.666C57.2435 21.4798 57.8197 22.1081 58.5684 22.5508C59.3171 22.987 60.2025 23.2051 61.2246 23.2051ZM61.2246 21.4277C60.6322 21.4277 60.1243 21.2845 59.7012 20.998C59.2845 20.7051 58.9622 20.2852 58.7344 19.7383C58.513 19.1849 58.4023 18.5208 58.4023 17.7461V17.7266C58.4023 16.9453 58.513 16.2812 58.7344 15.7344C58.9622 15.1875 59.2845 14.7708 59.7012 14.4844C60.1243 14.1914 60.6289 14.0449 61.2148 14.0449C61.8073 14.0449 62.3118 14.1914 62.7285 14.4844C63.1517 14.7708 63.474 15.1875 63.6953 15.7344C63.9232 16.2812 64.0371 16.9453 64.0371 17.7266V17.7461C64.0371 18.5208 63.9232 19.1816 63.6953 19.7285C63.474 20.2754 63.1549 20.6953 62.7383 20.9883C62.3216 21.2812 61.8171 21.4277 61.2246 21.4277ZM68.6953 23H70.7949L76.0781 14.7871L74.6426 15.5977H75.7266V23H77.8262V12.4727H75.7266L70.4336 20.6562L71.8789 19.8457H70.7949V12.4727H68.6953V23ZM85.2969 23.2051C86.1693 23.2051 86.918 23.0553 87.543 22.7559C88.1745 22.4499 88.679 22.0332 89.0566 21.5059C89.4342 20.9785 89.6816 20.3698 89.7988 19.6797L89.8086 19.6016H87.7773L87.7578 19.6602C87.6016 20.2266 87.3184 20.6628 86.9082 20.9688C86.498 21.2747 85.9609 21.4277 85.2969 21.4277C84.724 21.4277 84.2292 21.2812 83.8125 20.9883C83.3958 20.6888 83.0736 20.2624 82.8457 19.709C82.6178 19.1556 82.5039 18.4915 82.5039 17.7168V17.6973C82.5039 16.9421 82.6146 16.291 82.8359 15.7441C83.0638 15.1973 83.3861 14.7773 83.8027 14.4844C84.2194 14.1914 84.7174 14.0449 85.2969 14.0449C85.9935 14.0449 86.5501 14.2207 86.9668 14.5723C87.3835 14.9173 87.6504 15.3503 87.7676 15.8711L87.7773 15.9102H89.8184L89.8086 15.8516C89.724 15.1745 89.4928 14.5658 89.1152 14.0254C88.7376 13.485 88.2266 13.0586 87.582 12.7461C86.944 12.4271 86.179 12.2676 85.2871 12.2676C84.2715 12.2676 83.3926 12.4889 82.6504 12.9316C81.9082 13.3678 81.3353 13.9928 80.9316 14.8066C80.5345 15.6204 80.3359 16.584 80.3359 17.6973V17.7168C80.3359 18.8431 80.5345 19.8164 80.9316 20.6367C81.3353 21.457 81.9082 22.0918 82.6504 22.541C83.3926 22.9837 84.2747 23.2051 85.2969 23.2051ZM94.8086 18.3418L98.5977 23H101.215L96.4297 17.2188V17.541L101.029 12.4727H98.5488L94.7988 16.7793H94.3105V12.4727H92.1914V23H94.3105V18.3418H94.8086Z" fill="#ADC5F6"/>
</g>
<defs>
<clipPath id="clip0_405_225">
<rect width="102" height="32" fill="white"/>
</clipPath>
</defs>
</svg>
